<svg id="Layer_1" data-name="Layer 1" xmlns="http://www.w3.org/2000/svg" viewBox="0 0 517 516"><title>Artboard 2 copy 21</title><g id="branding_or_marketing_for_product" data-name="branding or marketing for product"><path d="M509.81,133.76a6.57,6.57,0,0,0-.84-.91,16.81,16.81,0,0,0-8.3-4.32c-3.1-.56-6.21-1.11-9.33-1.63a37.42,37.42,0,0,1-11.15-3.5c-1.76-.91-3.57-1.76-5.32-2.69-1.39-.75-2.76-1.54-4.09-2.39a19.64,19.64,0,0,1-7.65-9c-.51-1.19-1-2.4-1.48-3.61-1.83-4.82-3.53-9.68-4.89-14.65a22.53,22.53,0,0,0-11.51-14.37,42.36,42.36,0,0,0-5.61-2.56c-.83-.31-1.68-.58-2.53-.86A11.68,11.68,0,0,1,432,70a3.6,3.6,0,0,0-2-1.42c.5-.83.93-1.53,1.35-2.24s.93-1.52,1.32-2.32a5,5,0,0,0,.58-2.38A1.5,1.5,0,0,0,431.38,60a3.13,3.13,0,0,0-1.52.57c-.79.55-1.57,1.12-2.31,1.74a68.4,68.4,0,0,0-9.22,9.42q-9,11-18.64,21.49c-7,7.62-13.62,15.48-20.19,23.43q-11.75,14.24-23.41,28.54c-5.26,6.44-10.54,12.86-15.75,19.35C336,169.89,331.47,175,327,180.22a10,10,0,0,1-1.37,1.53c-.65.49-1.41-.09-2.15-.05a38.94,38.94,0,0,1-7.39-.39c-3.4-.49-6.75-1.23-10.08-2.05a5.92,5.92,0,0,1-2.6-1.18l-4.77-4.25a.37.37,0,0,0-.23-.21.26.26,0,0,1-.19-.15c0-.22,0-.44.21-.47l.66.14a8.67,8.67,0,0,1,1,.33,6.66,6.66,0,0,1,1,.18,17.35,17.35,0,0,0,5.9.75c3.44-.09,6.87-.11,10.3-.47,8.22-.89,14.39-5,18.71-12a11.73,11.73,0,0,0,1.45-7.76c-.15-1.29-.93-1.72-2.21-1.31-.26.08-.5.22-.75.32a17.59,17.59,0,0,1-3.55,1,34.6,34.6,0,0,1-7.4.25c-3.37-.1-6.74-.2-10.1,0a60.58,60.58,0,0,0-7,.4A1.18,1.18,0,0,1,305,154c-.65-1.44-1.27-2.9-2-4.3a12.28,12.28,0,0,1-.26-11.12c.74-1.63,1.46-3.26,2.24-4.86a29.13,29.13,0,0,0,2.76-10.5,58.27,58.27,0,0,1,2.13-13c.16-.52.28-1.06.41-1.59.47-1.87.47-1.87,2.24-2.39l2-.58a20.1,20.1,0,0,0,12.09-10.23,18.56,18.56,0,0,0,.92-16.86,22,22,0,0,0-6.43-8.46,56.89,56.89,0,0,0-12-7.48,7.15,7.15,0,0,1-2.21-1,8.38,8.38,0,0,1-1.13-2.39,51.56,51.56,0,0,0-22.19-25,41.65,41.65,0,0,0-27.6-5.2,36.43,36.43,0,0,0-18.12,8.3,39.28,39.28,0,0,0-11.63,16.73,1.18,1.18,0,0,1-1,.88c-1.48.29-3,.52-4.43.92a32.2,32.2,0,0,0-16.73,10.34,15.08,15.08,0,0,0-3,4.9,26.52,26.52,0,0,0-1.29,12,10.9,10.9,0,0,0,4.14,7.34,23.14,23.14,0,0,0,5.9,3.72,1.47,1.47,0,0,1,1.06,1.54,14.87,14.87,0,0,1-.24,2.66,49.63,49.63,0,0,0-.84,10.46c.19,4.88.37,9.75.32,14.63a32.66,32.66,0,0,0,2.15,12.1q1.44,3.75,2.89,7.5a89.56,89.56,0,0,1,5,16.31,31.21,31.21,0,0,1,.15,11.48,46.15,46.15,0,0,0-1.05,4.82,2.56,2.56,0,0,1-1.61,2.36l-1.65.83-9.42,4.63a34.37,34.37,0,0,0-12.12,10.34,87.11,87.11,0,0,0-7.59,11.52c-2.1,3.86-4.16,7.74-6.22,11.62A97.54,97.54,0,0,1,166.13,238c-1.73,1.87-3.35,3.83-5,5.78a5,5,0,0,0-1.36,4.36h0a6.29,6.29,0,0,0,2.24,1.75c7,3.39,12.22,8.75,16.62,15a37.84,37.84,0,0,0,2.75,3.76c0,.66-.44.9-.78,1.2a67.67,67.67,0,0,0-11.15,13.42c-1.62,2.47-3.38,4.84-5.08,7.25-.18.27-.31.61-.67.69-.2,0-.25-.09-.24-.26a24.82,24.82,0,0,0-2.34-10.77c-.82-1.89-1.76-3.72-2.71-5.54a3.65,3.65,0,0,1-.41-2.55c.36-1.74.62-3.51.88-5.27a65.78,65.78,0,0,0,.38-13.16c0-.68,0-1.36-.05-2A2.54,2.54,0,0,1,159,251c-.26-3.16-.8-6.27-1.3-9.39a25.72,25.72,0,0,1-.19-8.62,11.44,11.44,0,0,0,.14-1.85c0-.34-.09-.71-.52-.75a.63.63,0,0,0-.74.55c-.15.88-.28,1.76-.41,2.64a33,33,0,0,0,.5,10.26,80,80,0,0,1,1.19,19.49c-.18,2.34-.59,4.64-.93,6.94a34.16,34.16,0,0,1-3.91,11.87,8.72,8.72,0,0,0-.47.91.71.71,0,0,0,.18.93.76.76,0,0,0,1.07-.25,10.41,10.41,0,0,0,.77-1.22,32.33,32.33,0,0,0,2.42-5.68c.11-.35.13-.79.69-.88.47,1,1,2,1.42,3a35,35,0,0,1,2.64,7.78,5.54,5.54,0,0,1,.12,2.65,18.3,18.3,0,0,1-3.87,7.42,20.48,20.48,0,0,1-7.38,5.13c-3.67,1.55-7.5,2.67-11.11,4.35a9.32,9.32,0,0,1-3.23.58,5.22,5.22,0,0,1-5.38-3,14.86,14.86,0,0,1-1.58-4.66,46.57,46.57,0,0,1-.59-10.07c.13-3.16.37-6.31.57-9.47.37-5.69,1-11.36,1.83-17,.87-6,1.94-11.93,3-17.89.62-3.66,1.27-7.31,1.56-11a4.27,4.27,0,0,0,0-1,.58.58,0,0,0-.57-.49c-.25,0-.37.15-.5.29-.36.4-.27.91-.34,1.37-.89,5.42-1.76,10.85-2.68,16.27-.81,4.8-1.67,9.6-2.27,14.45-.51,4.16-1,8.32-1.36,12.5-.4,4.52-.73,9-.76,13.58a44.35,44.35,0,0,0,.5,8.22,16,16,0,0,0,2.39,6.52,6.55,6.55,0,0,0,5.76,3,12.53,12.53,0,0,0,5.19-1.13,61.63,61.63,0,0,1,5.75-2.24c1.62-.56,3.21-1.21,4.79-1.88a20.57,20.57,0,0,0,9-7.25c.45-.64.7-1.58,1.85-1,.18.1.67-.17.9-.39a9.44,9.44,0,0,0,1.2-1.4c2.41-3.43,4.86-6.83,7.18-10.32a67.37,67.37,0,0,1,10.55-12.36,2.17,2.17,0,0,1,1.81-.73,3.26,3.26,0,0,0,2.28-.82c.59-.46,1.18-.94,1.73-1.45,3-2.8,5.83-5.84,8.67-8.83.26-.27.42-.75,1-.6.24,2.8.5,5.6.73,8.4.32,4,.73,7.95.9,11.93.21,5,.29,10,.17,15.05s-.43,9.89-1,14.8c-.53,4.36-1.35,8.69-2.22,13a59.8,59.8,0,0,1-4.55,13.85c-.73,1.55-1.44,3.12-2.1,4.7-.55,1.33-1.06,2.68-1.49,4.05a7.53,7.53,0,0,0-.29,4.07,4.28,4.28,0,0,1-.26,2.6,61.53,61.53,0,0,1-3.29,7.32,183.9,183.9,0,0,0-8.31,17.7,125.55,125.55,0,0,0-6,21.81,187.52,187.52,0,0,0-3.19,28.24,145.29,145.29,0,0,0,.18,15.05,146.8,146.8,0,0,0,2.37,18,116.32,116.32,0,0,0,8.4,27.08,5,5,0,0,1,.64,1.72h1.65a2.72,2.72,0,0,0-.45-1.36c-1.36-2.92-2.61-5.9-3.7-8.94a139.53,139.53,0,0,1-7.33-36,133.27,133.27,0,0,1,0-20.18c.24-3.43.53-6.86.92-10.27.54-4.84,1.37-9.65,2.31-14.44a118.49,118.49,0,0,1,5.63-20,184.86,184.86,0,0,1,8.12-17.35,53.84,53.84,0,0,0,3.26-7.33c.12-.36.15-.84.69-1a21,21,0,0,0,8.92,2c.69,0,1.37.05,2.06.1a148.66,148.66,0,0,0,21.21.17c2.19-.15,4.38-.28,6.56-.63,3-.49,6-.94,9-1.26,4.23-.46,8.44-1.13,12.63-1.86a14.19,14.19,0,0,0,4.93-1.38c.52-.31.92,0,1.32.29a28.41,28.41,0,0,0,7.21,3,65.25,65.25,0,0,0,15.45,2.32c5,.22,10,.23,15.05.13,2.95-.05,5.91-.07,8.86-.08a3.16,3.16,0,0,1,1.78.19,1.5,1.5,0,0,1,.05,1c-1.14,5.86-2.25,11.73-3.46,17.58-.87,4.23-1.87,8.44-2.8,12.66a16,16,0,0,0-.3,4.31,4.88,4.88,0,0,0,1.13,2.82,5.26,5.26,0,0,0,3.11,1.87,33.94,33.94,0,0,0,7,.75,88.32,88.32,0,0,0,10.91-.33c.34,0,.69-.07,1-.09a.49.49,0,0,1,.58.44,33.77,33.77,0,0,0,1,4.2,72.56,72.56,0,0,1,1.67,7.85c.82,5.79,1.32,11.61,1.61,17.44a126.29,126.29,0,0,1-1,24.88,124.65,124.65,0,0,1-5,21.23,159.52,159.52,0,0,1-6,15.13,4.16,4.16,0,0,0-.71,2.11h1.65a4.31,4.31,0,0,1,.73-2.11,127.4,127.4,0,0,0,12-51.17,182.36,182.36,0,0,0-.92-20,96.77,96.77,0,0,0-1.52-11.23c-.44-2.09-1-4.14-1.6-6.18a6.57,6.57,0,0,1-.29-3.66,11.22,11.22,0,0,0,1.59.18c2.14,0,4.27-.1,6.39-.21s4.53-.39,6.79-.44c5.64-.12,11.27-.45,16.88-.95,4.38-.38,8.77-.79,13.12-1.39s8.94-1.46,13.4-2.29a39.14,39.14,0,0,0,9-2.89,5.67,5.67,0,0,0,3.6-5.3,22.93,22.93,0,0,0-.26-5.55,30.5,30.5,0,0,1-.55-3.66c-.35-4.66-.64-9.33-1-14a2.28,2.28,0,0,1,.5-1.9,4.15,4.15,0,0,0,.82-3.69c-.11-.61-.3-1.2-.41-1.81a157.53,157.53,0,0,0-4.47-17.34,20,20,0,0,0-1.63-4,7.93,7.93,0,0,0-5.93-4.32,15.56,15.56,0,0,0-2.45-.27,36.91,36.91,0,0,0-5.15.2c-1,.13-2.06.16-3.08.23a.73.73,0,0,1-.81-.5c-.14-.38-.31-.76-.45-1.14-1.2-3.29-2.32-6.61-3.24-10-2-7.22-4.2-14.36-6.47-21.48a11.62,11.62,0,0,1-.51-2.41q-.48-4.41-1.07-8.8c-.58-4.5-1.34-9-1.77-13.48-.61-6.5-1-13-1.65-19.52s-1.59-12.81-2.78-19.16c-.79-4.26-1.67-8.5-2.17-12.8-.58-4.91-1.32-9.8-2.12-14.68a27.54,27.54,0,0,0-5.73-12.83,7.43,7.43,0,0,0-4-2.76,13.32,13.32,0,0,0-4-.72c-.17,0-.44,0-.41-.45,2.38-2.94,4.82-6,7.3-9q8-9.73,16-19.42c1.23-1.49,2.47-2.95,3.7-4.43a1,1,0,0,1,1.23-.44A100.27,100.27,0,0,0,372,152.48a51.4,51.4,0,0,1,22.65,12.09c1.47,1.34,2.91,2.72,4.36,4.09a80.52,80.52,0,0,1,15,19.55c2.7,4.62,5.58,9.14,8.36,13.72a27.74,27.74,0,0,0,4.24,5.29A34,34,0,0,0,442.24,216a90.18,90.18,0,0,0,24.1,2.62,61.26,61.26,0,0,1,8.24.21,7.52,7.52,0,0,0,.82.05c1.32,0,1.68-.3,1.46-1.55a13.28,13.28,0,0,1,.16-4.71,99.28,99.28,0,0,1,4.58-16.66,223.5,223.5,0,0,1,9.89-22.41c3.63-7.09,6.9-14.35,10.29-21.55,1.58-3.36,3.17-6.71,4.72-10.07a12.06,12.06,0,0,1,2.25-3.43,8.7,8.7,0,0,0,1.22-1.65A2.55,2.55,0,0,0,509.81,133.76Zm-206.3,48.77a5,5,0,0,0,.72-2.21,103.86,103.86,0,0,0,10.35,2.37,74,74,0,0,0-2,9.15c-.26,1.48-.48,3-.7,4.47a4.43,4.43,0,0,1-1.08,2.39c-12.07,14.09-23.87,28.42-36.12,42.36-2.94,3.36-5.76,6.82-8.64,10.24l-.66.79a.63.63,0,0,1-.9.15c-.64-.4-1.31-.76-1.92-1.19s-1.52-.17-1.75-.9a6.31,6.31,0,0,1,0-2c.4-6.87.36-13.75.52-20.62.1-3.84.52-7.67.92-11.5a165.92,165.92,0,0,0,1-17.69,53.56,53.56,0,0,0-.58-5.94c-.06-.55-.15-1.09-.19-1.64s.13-.72.71-.72a12.28,12.28,0,0,0,3.68-.3.85.85,0,0,1,.93.26c.23.26.48.51.69.77a34.07,34.07,0,0,0,8.88,7.29,15.94,15.94,0,0,0,3.78,1.59,4,4,0,0,0,3.18-.36,13.8,13.8,0,0,0,1.75-1.09,138.51,138.51,0,0,0,15.76-13.57A18.59,18.59,0,0,0,303.51,182.53Zm3.56,66.59A148.57,148.57,0,0,0,308.25,267a126.47,126.47,0,0,0,2.43,14.2c.47,1.79,1,3.57,1.48,5.36a1.62,1.62,0,0,1,0,1.46,54,54,0,0,1-9.24-2.43c-3.1-1.11-6.15-2.35-9.24-3.49a13.56,13.56,0,0,0-4.31-1.32,1,1,0,0,1-.82-.53c-2.54-3.68-4.48-7.57-4.32-12.2,0-1.16.05-2.34.19-3.49a36.39,36.39,0,0,0,.16-7,34.41,34.41,0,0,1,0-5.56,11,11,0,0,0-1.3-6.56,1,1,0,0,1,.12-1.28c1.08-1.34,2.13-2.7,3.19-4Q296,228.2,305.39,216.3c1.06-1.35,2.2-2.63,3.31-4,1.13.48.35,1.33.38,2-.2,2.25-.41,4.51-.61,6.77C307.65,230.45,306.83,239.76,307.07,249.12Zm13.14,41.94c4.91.62,9.83,1.08,14.74,1.69A33.72,33.72,0,0,1,345,295.59a16.7,16.7,0,0,1,7.5,7.13,10.77,10.77,0,0,1,.22,10.11,17.26,17.26,0,0,1-5.34,6.7,33.57,33.57,0,0,1-6.48,4,12.91,12.91,0,0,1-5.34,1.21A30.74,30.74,0,0,1,324,321.78c-3.83-1.72-7.49-3.75-11.21-5.65A139.52,139.52,0,0,0,298.67,310c-4.49-1.69-8.92-3.54-13.36-5.37a28.38,28.38,0,0,1-3.06-1.67,3.61,3.61,0,0,1-1.82-4,32,32,0,0,1,.68-3.64,41.59,41.59,0,0,1,3-7.43,17.86,17.86,0,0,1,3.7-4.65,2.48,2.48,0,0,1,2.82-.63c1.09.41,2.18.84,3.26,1.27,3.62,1.47,7.27,2.87,11,4A95.12,95.12,0,0,0,320.21,291.06Zm-36.79-41.75a36.93,36.93,0,0,1-.17,5.76,19.67,19.67,0,0,0-.16,3.91,29,29,0,0,1-.24,6,20.48,20.48,0,0,0,3,14l1.51,2.47c-.68.71-1.34,1.4-2,2.08a14,14,0,0,0-2.55,3.49,37.07,37.07,0,0,0-3.78,10.4,8.63,8.63,0,0,0-.16,1.23c0,1.69-.42,1.38-1.55,1.48a3.46,3.46,0,0,1-1.94-.56q-4.2-2.2-8.41-4.37A42.46,42.46,0,0,0,255.2,291a13.49,13.49,0,0,1-4.06-1.44,36.24,36.24,0,0,1-6.65-4.84,5.45,5.45,0,0,1-1.16-6.76,9.28,9.28,0,0,1,1.95-2.65c.79-.76,1.56-1.55,2.42-2.23,3.07-2.42,4.36-5.73,4.81-9.47.05-.41.07-.82.12-1.23a4.37,4.37,0,0,1,1.76-3.14c.28-.21.54-.43.82-.63a5.86,5.86,0,0,0,2.36-3.28,10.79,10.79,0,0,1,.74-1.91,2.3,2.3,0,0,1,3.28-1.13,10.53,10.53,0,0,1,2.59,1.67,26.64,26.64,0,0,0,6,3.57c2.53,1.15,4.56.71,6.56-1.25a9.29,9.29,0,0,0,2.9-6.2,5.58,5.58,0,0,1,1.78-3.59c.51-.53.87-.45,1.27.24A5.36,5.36,0,0,1,283.42,249.31ZM247.9,289.48c.12.63-.34.91-.64,1.25-1.62,1.77-3.26,3.53-4.89,5.29-2.52,2.72-5,5.49-7.63,8.09a27.36,27.36,0,0,1-3.48,2.89,3.27,3.27,0,0,1-1.65.77.9.9,0,0,1,0-1c.39-.79.74-1.62,1.19-2.38,2.11-3.54,4.14-7.12,6.35-10.59,1.59-2.48,2.89-5.14,4.28-7.74.9-1.68.87-1.4,1.89-.35A52.21,52.21,0,0,0,247.9,289.48ZM229.81,78a27,27,0,0,1,5.31-2.45,96.38,96.38,0,0,1,10.69-3.69c.93-.23,1-.19,1.32.74a31.35,31.35,0,0,0,11.44,15.49c.72.51,1.42,1.06,2.13,1.59,0,0,0,.13.06.21-.1.41-.44.15-.66.2a7.54,7.54,0,0,1-.82.06,10.09,10.09,0,0,0-5.23,2.22,2.47,2.47,0,0,0-.53.63.56.56,0,0,0,.1.74.62.62,0,0,0,.75.14,6.05,6.05,0,0,0,.84-.59,8,8,0,0,1,2.56-1.3,5.91,5.91,0,0,1,4.61.18c.29.15.78.31,1,.18.92-.65,1.54,0,2.2.42,1.53,1,3.08,2.07,4.56,3.18a27,27,0,0,1,10.27,15.7c.28,1.13.4,2.3.58,3.45a4,4,0,0,0,.75,1.9A1.37,1.37,0,0,0,284,117a7.58,7.58,0,0,0,.81-1.41c.39-.81.73-1.63,1.13-2.43a7.82,7.82,0,0,1,2.5-3,3.54,3.54,0,0,1,5,.5,7.25,7.25,0,0,1,1.78,7.24,13.06,13.06,0,0,1-2.85,5.42c-.41.54-1,.42-1.52.33-4-.75-6.63,3.55-5.88,7.2.18.84.79,1.66.25,2.57a8,8,0,0,0,0,2.67,65.88,65.88,0,0,1,.28,13.17,70.57,70.57,0,0,1-1.33,7.91c-.22,1.22-.48,2.43-.68,3.65a1,1,0,0,1-.85,1c-3.24.67-6.3,1.9-9.48,2.76A82.05,82.05,0,0,1,262.7,167a22.07,22.07,0,0,1-8.37-.61,26.55,26.55,0,0,1-6.84-2.77,6.14,6.14,0,0,1-1.19-.82,5.82,5.82,0,0,1-1.19-1.39c-.29-.53.25-1,.39-1.53a21.7,21.7,0,0,0,1-6.5c0-.84.09-1,1-.93a19.39,19.39,0,0,0,4.3-.39,11.07,11.07,0,0,0,5.51-3,1.35,1.35,0,0,0,.26-.32.69.69,0,0,0-.08-.93.6.6,0,0,0-.75-.11,4.81,4.81,0,0,0-.83.59,10.83,10.83,0,0,1-7.4,2.61c-8.39.15-15.16-3.21-20.63-9.43-1-1.13-1.94-2.32-2.83-3.54a20,20,0,0,1-3.39-8.32,36.09,36.09,0,0,1,.59-15.13c.91-3.73,2.14-7.38,3.32-11a103.76,103.76,0,0,0,3.79-16.86c.37-2.5.36-5.07.52-7.6C229.83,78.59,229.81,78.25,229.81,78Zm32.64-4.79c0-.11.18-.17.28-.25s.32,0,.36.1a3.85,3.85,0,0,1,.27.74,14,14,0,0,0,2.8,5.44,27.42,27.42,0,0,0,3.83,4c2,1.66,4,3.3,6.06,5a27.39,27.39,0,0,1,7.8,10.19c.52,1.17.49,1.78,0,1.77-.83,0-.83-.8-1.06-1.31a27,27,0,0,0-8.23-10.36c-2-1.5-3.84-3.11-5.71-4.71A26.24,26.24,0,0,1,264.61,79a15,15,0,0,1-2.07-4.23A2.54,2.54,0,0,1,262.45,73.17ZM236.07,166.6a7.77,7.77,0,0,1,4.94-4.9,2.3,2.3,0,0,1,2.65.59c.09.1.21.18.3.28,2.95,3.14,6.78,4.57,10.83,5.56a25.7,25.7,0,0,0,11.83-.17c4.17-.92,8.25-2.11,12.31-3.39,1.44-.45,2.91-.81,4.37-1.17a5.64,5.64,0,0,1,5.92,1.93,15.58,15.58,0,0,1,3.67,7.49,3.74,3.74,0,0,1-1,3.41,14.68,14.68,0,0,1-5.39,3.71,30.25,30.25,0,0,1-6.74,1.81,55.74,55.74,0,0,1-7.68.56c-10.08,0-18.83-1.69-27.11-5.61a31.63,31.63,0,0,1-6-3.6,10.69,10.69,0,0,1-2.38-2.55A4.34,4.34,0,0,1,236.07,166.6Zm-.49-6.26a4.4,4.4,0,0,1-.46.92c-.22.34-.5.68-1,.59-.24,0-.3-.65-.06-1.1a20.53,20.53,0,0,0,1.44-3.62,11,11,0,0,0,.62-3.22.61.61,0,0,1,.47-.6c.24-.07.58.33.61.69a3.61,3.61,0,0,0,0,.37c0,.25-.06.66-.14,1.06A29,29,0,0,1,235.58,160.34Zm53.59-26.75a4.6,4.6,0,0,1,.75.33.4.4,0,0,1,.14.54.45.45,0,0,1-.33.2,3.47,3.47,0,0,1-2.23-.92,4.72,4.72,0,0,1-1.72-3.91,7.64,7.64,0,0,1,1.58-4.9.49.49,0,0,1,.7-.18c.33.2.18.47.05.71-.26.48-.55,1-.79,1.44a6,6,0,0,0-.6,3A3.75,3.75,0,0,0,289.17,133.59Zm1.75,6.42c.08-.15.16-.23.31-.17s.3.09.33.17a4.24,4.24,0,0,1,.19,1c0,1.17,0,2.33,0,3.5a38.52,38.52,0,0,1-.79,8.36,4.86,4.86,0,0,1-.74,1.89.53.53,0,0,1-.72.19.6.6,0,0,1-.21-.51c1.35-4.17,1.42-8.48,1.44-12.8A3.27,3.27,0,0,1,290.92,140Zm.68-6.77c0-.35.3-.8.68-.76a.65.65,0,0,1,.66.59.72.72,0,0,1-.67.81C291.89,133.88,291.67,133.66,291.6,133.24ZM228,161a.69.69,0,0,1-.48.3.57.57,0,0,1-.45-.35,13.74,13.74,0,0,1-.1-1.44c-.34-3.76-.64-7.52-2-11.1-.68-1.8-1.35-3.6-2-5.42-.38-1.17-.63-2.39-.9-3.59a.48.48,0,0,1,.46-.56.45.45,0,0,1,.47.3,1.34,1.34,0,0,1,.14.38,31.7,31.7,0,0,0,2.06,6.24,43.05,43.05,0,0,1,2.9,14.36A1.28,1.28,0,0,1,228,161Zm-5.06,14.46a10.62,10.62,0,0,1,1.11-.92l9.29-6.85a1,1,0,0,1,1-.27c-.24,2.94,1.39,4.92,3.47,6.64a26.35,26.35,0,0,0,6.11,3.77,4.87,4.87,0,0,1,2,1.67,20.78,20.78,0,0,0,5.11,5.05c2,1.33,3.94,2.68,6,4.07a84.92,84.92,0,0,1-9.14,7.73,12.89,12.89,0,0,1-5.09,2.1,5.35,5.35,0,0,1-4.28-1,15.54,15.54,0,0,1-2.12-1.94c-4-4.21-7.66-8.64-11.74-12.73a13,13,0,0,1-2.37-3.09A3.06,3.06,0,0,1,222.9,175.44Zm32.7,10.4c-1.56-1-3-2.1-4.56-3.16a14.3,14.3,0,0,1-3-2.91c2.32.73,4.39,1.42,6.49,2A41.49,41.49,0,0,0,261,183c2.25.27,4.49.58,6.75.71s4.38,0,6.58,0c.47-.2.88-.24,1,.43-1.62.87-3.23,1.79-4.88,2.63C265.3,189.41,260.35,188.83,255.6,185.84Zm46.12-7.21a2.25,2.25,0,0,1,.31,3.31,10.52,10.52,0,0,1-1.33,1.57A146.83,146.83,0,0,1,285.11,197a4.63,4.63,0,0,1-5.34.55,31.61,31.61,0,0,1-10.19-7.88c-.28-.34-.22-.64.2-.81a50.6,50.6,0,0,0,5.65-3,16,16,0,0,0,2.4-1.58,5.59,5.59,0,0,1,3-1.24,28.44,28.44,0,0,0,5.94-1.64,16.67,16.67,0,0,0,4.93-2.94c1.63-1.37,2.92-2.92,2.87-5.57a21.83,21.83,0,0,1,2,1.3C298.3,175.65,300,177.11,301.72,178.63Zm3.46-22a24,24,0,0,1,3.48-.38c4.53-.14,9-.45,13.58-.17,1.58.1,3.16.09,4.74.11a19.94,19.94,0,0,0,8-1.45c.64-.27.85-.1.91.59a10.07,10.07,0,0,1-1.71,6.65c-3.94,5.8-9.24,9.45-16.3,10.36a46.89,46.89,0,0,1-5.54.39,17.17,17.17,0,0,0-2.27.09,24.39,24.39,0,0,1-10.95-1.22,12.29,12.29,0,0,0-5-.77c-.46-1-.85-2.06-1.35-3a2,2,0,0,1,0-2,16.79,16.79,0,0,1,12.39-9.22Zm.2-42.82a19.1,19.1,0,0,1-1.46,4.92c-.77,1.83-1.6,3.64-2.47,5.43a14.34,14.34,0,0,0-1.5,7.58,18.31,18.31,0,0,1-.51,5.11,18.3,18.3,0,0,0,0,8.36,1.35,1.35,0,0,1,0,.6.42.42,0,0,1-.26.26.48.48,0,0,1-.37,0,1.32,1.32,0,0,1-.54-.85,8.42,8.42,0,0,1-.3-1.2c-.09-.95-.12-1.91-.18-2.87a21.92,21.92,0,0,1,.62-5.11,14.09,14.09,0,0,0,.36-4.09,15.87,15.87,0,0,1,1.53-8c.82-1.74,1.66-3.47,2.4-5.24a17.18,17.18,0,0,0-1.29-17.27,39.68,39.68,0,0,0-4.83-6.14c-2.73-2.91-5.37-5.89-7.83-9a13.38,13.38,0,0,1-1.93-2.91.42.42,0,0,1,.1-.56.48.48,0,0,1,.71.12c1,1.25,1.84,2.56,2.87,3.76,2.14,2.5,4.33,5,6.54,7.41a47,47,0,0,1,5.46,7A19,19,0,0,1,305.38,113.81ZM228.1,53.52c5.4-12.51,14.57-20.43,28.13-22.78a38.85,38.85,0,0,1,24.95,4.14c10.54,5.43,18,13.77,22.88,24.51a7.93,7.93,0,0,1,.37,1,.36.36,0,0,1-.45.44c-.53-.17-1-.35-1.56-.54a97.46,97.46,0,0,0-10-3c-3-.75-6.06-1.19-9.12-1.64a105.08,105.08,0,0,0-22-.83,179.59,179.59,0,0,1-20-.29c-3.29-.16-6.59-.25-9.88-.16-1.16,0-2.31.18-3.4.27A1,1,0,0,1,228.1,53.52ZM215.91,86a12,12,0,0,0-4.54,6.45c-.16.67-.42.76-1,.49a16.78,16.78,0,0,1-3.54-2.08c-.77-.58-1.49-1.21-2.24-1.82a9.36,9.36,0,0,1-3.21-5.81,21.76,21.76,0,0,1,.17-7.38c.06-.41.17-.81.23-1.21a14.78,14.78,0,0,1,3.48-7.35A29.87,29.87,0,0,1,219.31,58a49.26,49.26,0,0,1,16-2.26c6.32.14,12.62.7,19,.66,2.68,0,5.36-.09,8-.27,2.4-.16,4.81-.18,7.21-.14a116.07,116.07,0,0,1,18.23,1.8A98.16,98.16,0,0,1,304,62.39a55,55,0,0,1,10.57,5,41.16,41.16,0,0,1,6.62,4.89,19.49,19.49,0,0,1,5.71,9.14,16.08,16.08,0,0,1-.12,9.73,23.21,23.21,0,0,1-4.18,7.51,16.9,16.9,0,0,1-7.54,5.19c-1.23.42-2.46.8-3.78,1.23a2.6,2.6,0,0,1-.18-1.64A14.77,14.77,0,0,0,308.82,95a28.64,28.64,0,0,0-4.66-5.74c-2.29-2.18-4.64-4.3-7-6.46-1.4-1.31-2.8-2.63-4.16-4a54.1,54.1,0,0,0-7.59-6.33,28.43,28.43,0,0,0-13.26-4.66,59.31,59.31,0,0,0-15.4.59c-2.64.4-5.29.77-7.94,1.18a46.84,46.84,0,0,0-9.5,2.64c-2.12.8-4.24,1.59-6.34,2.41a36.23,36.23,0,0,0-6.91,3.65c-3.49,2.32-6.8,4.88-10.05,7.54Zm3,22.78a35.42,35.42,0,0,0-.6,7c0,1,.22,1.91.31,2.86a10.12,10.12,0,0,1,0,1.23c0,.1-.13.23-.24.28a.38.38,0,0,1-.52-.18,3,3,0,0,1-.37-1,19.31,19.31,0,0,1-.42-4.09,55.91,55.91,0,0,1,1.77-11.58c.82-3,1.72-6.07,2.6-9.09a47,47,0,0,0,1.67-6.58c0-.33,0-.7.5-.76s.52.24.46,1a12.54,12.54,0,0,1-.3,2c-.79,2.91-1.62,5.81-2.44,8.71A85.43,85.43,0,0,0,218.9,108.77ZM198.38,317.94c.47-2,.69-4.05,1-6.08.07-.4.18-.8.34-1.48a29.16,29.16,0,0,0,11.17,5.05,23,23,0,0,0,12.19,0c.56-.16.8,0,.71.56a32.14,32.14,0,0,0-.57,7.58c0,.68-.05.72-.82.89-1.27.28-2.53.61-3.82.81a23.18,23.18,0,0,1-13.62-2,51.2,51.2,0,0,1-5.61-3A1.87,1.87,0,0,1,198.38,317.94Zm56.77-12.63c-.28,4.12-.25,8.24-.2,12.37.07,5.57.05,11.13-.31,16.69-.22,3.5-.29,7-.34,10.51a1.63,1.63,0,0,1-1.29,1.81c-1.26.33-2.53.63-3.81.84-4.13.71-8.27,1.37-12.44,1.81-3,.32-6,.85-9,1.25-1.49.2-3,.39-4.5.49a118.64,118.64,0,0,1-15.66.31c-3.29-.21-6.59-.34-9.88-.49a22.91,22.91,0,0,1-5.28-.85,10.07,10.07,0,0,1-1.16-.42c-1.81-.78-2.41-1.81-2.13-3.72a13.79,13.79,0,0,1,1-3.57c.86-1.94,1.65-3.92,2.56-5.84a64.89,64.89,0,0,0,4.89-14.4c.06-.26.13-.52.19-.77a1.8,1.8,0,0,1,1.14.48,46.12,46.12,0,0,0,5.64,3,25.07,25.07,0,0,0,15.9,1.72c1.14-.24,2.28-.48,3.41-.76.8-.2,1-.5,1-1.31,0-.21,0-.42,0-.62a30.1,30.1,0,0,1,.61-8.2c.05-.27.13-.53.17-.8.21-1.39-.34-1.93-1.58-1.4-4.06,1.73-8.21,1.46-12.36.6a34.28,34.28,0,0,1-7.38-2.54,17.74,17.74,0,0,1-3.34-2,2,2,0,0,1-.95-2.08c.28-2.25.39-4.52.58-6.78a178.82,178.82,0,0,0,.3-19.37c-.13-4.95-.56-9.88-1-14.81s-.86-10.13-.9-15.22c0-2.89,0-5.78,0-8.66a45.84,45.84,0,0,1,5.74-22.31c1.16-2.1,2.27-4.24,3.36-6.37a10.31,10.31,0,0,0,.71-1.92.63.63,0,0,0-.49-.79.57.57,0,0,0-.67.34c-.43.86-.8,1.75-1.25,2.59-1,1.88-2.07,3.72-3.1,5.59a47.72,47.72,0,0,0-5,13.68,54.26,54.26,0,0,0-.86,10.26c0,3.36,0,6.73.14,10.1a3.12,3.12,0,0,1-.8,2.44c-1,1-1.82,2.06-2.77,3.05-2.38,2.48-4.7,5-7.26,7.32a10.56,10.56,0,0,1-2,1.49,1.52,1.52,0,0,1-1.74-.13,6.09,6.09,0,0,1-1-1,22.07,22.07,0,0,1-1.33-1.84,52.47,52.47,0,0,0-12.94-13.72,33.86,33.86,0,0,0-4.81-2.77c-1.88-1-2.07-1.65-.91-3.34a20.35,20.35,0,0,1,1.54-1.93c1.89-2.18,3.81-4.34,5.71-6.51A94,94,0,0,0,180.77,220c1.85-3.37,3.62-6.78,5.41-10.18a127.47,127.47,0,0,1,8.1-13.15,38.25,38.25,0,0,1,16.51-13.53c2.32-1,4.56-2.23,6.82-3.38.78-.4,1.51-.9,2.23-1.33.62.38.52,1,.76,1.49a14.72,14.72,0,0,0,2.64,3.66c4.21,4.25,8.08,8.81,12.15,13.19l.29.3c2.65,2.76,5.17,3.93,10.1,2.13a15.76,15.76,0,0,0,3.56-2.05,72.94,72.94,0,0,0,7-5.83c.61-.55,1.23-1.09,1.83-1.66a1.35,1.35,0,0,1,1.49-.35c1.33.41,1.31.38,1.48,1.8a87.34,87.34,0,0,1,.23,16.88c-.32,4.52-.88,9-1.22,13.54-.24,3.16-.37,6.32-.47,9.48s-.05,6.18-.13,9.28-.26,6.31-.37,9.47a1.32,1.32,0,0,1-.59,1.22,5.25,5.25,0,0,0-2.25,3.34,5.69,5.69,0,0,1-2.45,3.42,6.14,6.14,0,0,0-2.79,4.82,29.1,29.1,0,0,1-.59,3.44,9.35,9.35,0,0,1-2.9,5.11L245,273.48a14.1,14.1,0,0,0-2.32,2.62,7.55,7.55,0,0,0-1.33,6.25,2.22,2.22,0,0,1-.43,1.86c-1.25,2.05-2.44,4.14-3.59,6.25-.75,1.4-1.6,2.72-2.42,4.07-2,3.23-3.89,6.48-5.79,9.74a18.86,18.86,0,0,0-1.16,2.64,1.75,1.75,0,0,0,.34,1.92,1.8,1.8,0,0,0,2.09.39,6.11,6.11,0,0,0,1.46-.75,31.74,31.74,0,0,0,3.23-2.55c1.83-1.76,3.59-3.6,5.33-5.45,3.05-3.26,6.06-6.56,9.14-9.9.85.38,1.7.81,2.58,1.16.7.27,1.44.44,2.17.65,1.1.33,1.11.35,1.15,1.59,0,.14,0,.28,0,.41C255.37,298,255.4,301.67,255.15,305.31ZM304,351.7c-8,0-16.08.31-24.12,0a68.07,68.07,0,0,1-18.26-2.9,26.23,26.23,0,0,1-4.89-2.13,1.48,1.48,0,0,1-.83-1.5c.08-2.82,0-5.64.21-8.45.38-6.52.65-13,.42-19.57-.15-4.48.09-8.94.29-13.4.14-3.3.17-6.6.11-9.9,0-.66.21-.86.87-.68a40.75,40.75,0,0,1,8.05,3.11c2.81,1.42,5.62,2.86,8.41,4.35a5.44,5.44,0,0,0,3.69.93,1.33,1.33,0,0,1,1.53.75,7,7,0,0,0,2.75,2.43,31,31,0,0,0,5,2.36c4.29,1.65,8.6,3.25,12.87,4.95,2.8,1.11,5.56,2.35,8.33,3.55.69.3,1.34.69,2,1a.91.91,0,0,1,.55,1.17c-.18.87-.33,1.75-.51,2.63-.81,3.89-1.71,7.77-2.43,11.69-.59,3.24-1,6.52-1.48,9.77s-1.12,6.47-1.69,9.73C304.49,351.64,304.22,351.7,304,351.7Zm19.85,38.37a4.18,4.18,0,0,1-3.34,2.45c-.74.1-1.5.19-2.25.23a76,76,0,0,1-14-.2,13.88,13.88,0,0,1-2-.4,3.65,3.65,0,0,1-2.89-3.76,16,16,0,0,1,.49-4.08c.81-3.55,1.65-7.08,2.39-10.64,1.6-7.66,3.11-15.34,4.42-23.05q1.13-6.71,2.23-13.4c.36-2.17.68-4.34,1-6.51.08-.54.3-.89.89-.91a17.18,17.18,0,0,1,6.48,1,5.24,5.24,0,0,1,3.37,3.62,27.52,27.52,0,0,1,1.16,5.43c.7,7.66,1.47,15.31,1.76,23,.22,5.84.64,11.66,1,17.49h.15c0,2,0,4,0,6A9,9,0,0,1,323.8,390.07Zm68.63-9.94a4,4,0,0,1-2.32,3.38A32.15,32.15,0,0,1,382,386.3a198.8,198.8,0,0,1-22.38,3.4c-4.25.33-8.49.7-12.74,1-1.16.09-2.33.14-3.5.15-3.92,0-7.82.4-11.73.64-2.19.14-4.39.14-7,.21a12,12,0,0,0,1.52-6.69c0-3.3-.23-6.59-.41-9.88q-.39-7-.75-14c0-.75.07-.87.78-.8a24.65,24.65,0,0,0,5.94-.45c5.37-.77,10.73-1.56,16.1-2.3,1.84-.25,3.69-.37,5.54-.56.54-.05.93.07,1.06.69a3.89,3.89,0,0,0,.37,1,8.42,8.42,0,0,0,14.78.94c.46-1.66,1.7-1.86,3.18-1.81,1.85.05,3.71,0,5.56-.05,2.48-.07,4.95-.18,7.42-.29a19.81,19.81,0,0,0,4.9-1.12,21.3,21.3,0,0,1,.38,3.44c.19,3.36.33,6.73.58,10.08.1,1.44.38,2.86.6,4.29A21.94,21.94,0,0,1,392.43,380.13Zm-23.09-54.7a57.18,57.18,0,0,1,9.25-.57c.55,0,1.1,0,1.65.08a6.78,6.78,0,0,1,5.53,3.79,24.86,24.86,0,0,1,1.8,4.81c1,3.43,2,6.86,2.87,10.31.6,2.33,1,4.7,1.49,7a6,6,0,0,1,.1,1.64,2.55,2.55,0,0,1-1.53,2,10.78,10.78,0,0,1-3.9,1.23,42.17,42.17,0,0,1-5.14.38c-3.3,0-6.6.07-9.9.09a2.81,2.81,0,0,1-.66-.13,21.21,21.21,0,0,0-.23-2.64,8.4,8.4,0,0,0-16.44-.21c-.16.65-.27,1.32-.41,2-.73.13-1.46.32-2.21.39-6.7.61-13.35,1.72-20,2.66-1.22.18-2.44.43-3.66.59a6.31,6.31,0,0,1-1.84,0c-1.29-.23-1.3-.36-1.33-1.42-.16-5.71-1-11.36-1.38-17a31.17,31.17,0,0,0-1.27-6.46c-.35-1.18-.16-1.65.95-2.07a17.94,17.94,0,0,1,3-.87,45.09,45.09,0,0,1,4.48-.62c7.47-.64,14.87-1.8,22.29-2.76C358.32,327,363.82,326.13,369.34,325.43Zm-10.4-16.82c.53,2.69,1.08,5.37,1.59,8.07.45,2.42.86,4.86,1.28,7.29.12.69,0,.84-.68.94q-4.28.63-8.56,1.23c-4.62.63-9.24,1.28-13.86,1.88-2.72.35-5.45.68-8.19.89a26.41,26.41,0,0,0-7.81,1.63,1.64,1.64,0,0,1-.52,0,75.67,75.67,0,0,1-1.61-8.43,3.2,3.2,0,0,1,1.78.59,38.65,38.65,0,0,0,7.51,2.76,25.37,25.37,0,0,0,5.7.74,13.15,13.15,0,0,0,5.4-1.07,29.68,29.68,0,0,0,8.95-5.77,16.31,16.31,0,0,0,5.41-10.57,11.49,11.49,0,0,0-.11-2.87,3.43,3.43,0,0,1,.24-2c.53-1.18,1-2.39,1.71-4.07C357.83,303.1,358.39,305.85,358.94,308.61Zm-21.61-123a7.14,7.14,0,0,1,3,2.1,25.21,25.21,0,0,1,5.39,11.42c.87,4.87,1.61,9.75,2.17,14.66.51,4.44,1.38,8.81,2.2,13.2,1.16,6.21,2.11,12.44,2.77,18.73.67,6.49,1.13,13,1.65,19.49.3,3.7.9,7.36,1.37,11,.21,1.63.44,3.26.67,4.89.07.59.56,1.27-.39,1.61a32.4,32.4,0,0,0-10.28-11.33,19.06,19.06,0,0,0-8-3c-.82-.12-1.63-.24-2.45-.33a23.16,23.16,0,0,0-9.52,1.24,3,3,0,0,0-.74.37.54.54,0,0,0-.28.68.64.64,0,0,0,.62.46,4.75,4.75,0,0,0,1-.23,24.67,24.67,0,0,1,8.76-1,20.27,20.27,0,0,1,11,4,31.54,31.54,0,0,1,8.32,9.57c.37.66.7,1.34,1.07,2a13.47,13.47,0,0,1,1.61,9.52c-.53,2.73-1.88,5.12-2.91,7.82l-2.07-2.84a18.59,18.59,0,0,0-9.08-6.49,41,41,0,0,0-9.21-2.1l-11.67-1.25-.82-.1a.92.92,0,0,1-.91-.92c-.11-1.64-.29-3.28-.37-4.93a101.17,101.17,0,0,1,.47-13.37c.21-2.47.41-4.93.62-7.4.58-6.7,1.18-13.4,1.76-20.11.29-3.35.54-6.71.82-10.06.06-.68.18-1.36.24-2a1.94,1.94,0,0,0-.06-.8.71.71,0,0,0-.45-.38.74.74,0,0,0-.53.2,1.92,1.92,0,0,0-.45,1.33c-.25,2.67-.52,5.33-.77,8-.53,5.74-1.08,11.49-1.58,17.23-.36,4.11-.66,8.22-1,12.32-.14,1.78-.3,3.56-.44,5.34-.31.21.09,1-.71.81a225,225,0,0,1-2.52-38.19c.06-6.53.4-13,.9-19.55.38-4.93,1-9.84,1.64-14.73a6.59,6.59,0,0,1,1.61-3.67c3.62-4.13,7.12-8.37,10.66-12.56.36-.42.72-.83,1.09-1.24a.7.7,0,0,1,.73-.25C334,185.09,335.69,184.91,337.33,185.59Zm22.94-38.38a.93.93,0,0,0-.64.75,4,4,0,0,1-1.17,1.9q-12.49,15.21-25,30.41c-2.84,3.45-5.75,6.84-8.62,10.27-1.18,1.42-2.31,2.9-3.51,4.31-2.26,2.68-4.48,5.4-6.83,8-3,3.26-5.58,6.8-8.39,10.18-4.88,5.86-9.54,11.9-14.21,17.92-4.42,5.7-8.84,11.4-13.52,16.9-2,2.35-3.81,4.87-5.7,7.32-1.31,1.69-1.09,1.33-2.64.6-1.06-.49-2.07-1.09-3.07-1.68-.75-.44-.77-.63-.26-1.24,3.87-4.56,7.7-9.15,11.62-13.66q12.65-14.55,25-29.35c5-6,10-12.07,15.28-17.84,5-5.47,9.73-11.21,14.71-16.7,3.89-4.28,7.38-8.88,11-13.34,9.14-11.16,18.36-22.26,27.49-33.43,5.83-7.13,11.56-14.34,17.59-21.31,3.37-3.9,6.73-7.8,10.19-11.62,6.45-7.14,12.86-14.31,18.94-21.77a74.09,74.09,0,0,1,10.79-11,21.13,21.13,0,0,1,1.85-1.29.47.47,0,0,1,.73.4,1.82,1.82,0,0,1-.31,1.17,29,29,0,0,1-3.51,5.56c-2.83,3.54-5.67,7.08-8.58,10.56-3.88,4.63-7.85,9.2-11.75,13.81s-8,8.92-12,13.3c-4.91,5.3-9.52,10.85-14.19,16.35-3.07,3.61-6.21,7.17-9.28,10.78-3.53,4.12-7,8.28-10.53,12.42C361.33,146.36,361,147,360.27,147.21ZM428.34,72.1C426.8,77,425.89,82,424.55,86.85a74.55,74.55,0,0,1-5,13.47,35.54,35.54,0,0,1-2.19,3.72c-2.81,4.16-5.63,8.3-8.5,12.41a67.81,67.81,0,0,1-12.73,14c-2.82,2.31-5.5,4.77-8.23,7.19a54.3,54.3,0,0,1-6.23,4.73,22.82,22.82,0,0,1-12.58,4c-1.78,0-3.56.19-5.33.29-.38-.5.09-.76.31-1,3.28-3.89,6.53-7.8,9.87-11.62,4.53-5.17,9-10.38,13.38-15.68,4.2-5.09,8.66-10,13.17-14.76,5.89-6.26,11.34-12.9,16.92-19.42,3.53-4.12,7-8.31,10.46-12.47C428.25,71.52,428.45,71.65,428.34,72.1Zm80.24,64.1a6.37,6.37,0,0,1-1,1.32,13.06,13.06,0,0,0-2.57,3.95c-1.77,3.8-3.5,7.61-5.31,11.39-3.24,6.75-6.26,13.6-9.7,20.26a218.85,218.85,0,0,0-9.82,22.22A100.38,100.38,0,0,0,475.4,213a26.12,26.12,0,0,0-.19,3.08c0,.4.14.83-.19,1.22a3.09,3.09,0,0,1-.55.06c-2.82-.27-5.63-.2-8.45-.2a89.85,89.85,0,0,1-23.88-2.76,32.5,32.5,0,0,1-15.38-9.16,22.24,22.24,0,0,1-2.77-3.58c-.54-.88-1.1-1.75-1.63-2.63-3-4.95-5.95-9.88-8.9-14.85a66.79,66.79,0,0,0-4.17-6.13,94.22,94.22,0,0,0-17.44-17.74,50.11,50.11,0,0,0-18.79-9.08c-2.8-.71-5.6-1.39-8.4-2.09-.4-.1-.78-.27-1.16-.4-.14-.08-.19-.17-.16-.27s.08-.15.12-.15a34.28,34.28,0,0,1,5.54-.42,24.43,24.43,0,0,0,13.73-4.39,60.46,60.46,0,0,0,6.68-5.17c3.13-2.79,6.3-5.53,9.48-8.26a55.56,55.56,0,0,0,7.94-8.36c1.42-1.85,2.84-3.71,4.18-5.62,2.44-3.5,4.82-7,7.22-10.55a42.87,42.87,0,0,0,3.94-7.23,93.21,93.21,0,0,0,5.23-16.46,78.37,78.37,0,0,1,2.07-8c.15-.46.28-.92.47-1.36.53-1.28.54-1.8,1.84-.53a13.17,13.17,0,0,0,5.14,3c1.42.49,2.85,1,4.25,1.56A30.91,30.91,0,0,1,447,79.69a19.11,19.11,0,0,1,7.43,9.36c.36,1,.75,1.93,1,2.92,1.41,5.18,3.24,10.21,5.12,15.23.38,1,.83,2,1.28,3a21.15,21.15,0,0,0,7.91,9.29c1.37.9,2.8,1.75,4.25,2.51,2.25,1.19,4.54,2.3,6.82,3.42a38.26,38.26,0,0,0,10.64,3.1c3.12.53,6.23,1.06,9.33,1.66a14.64,14.64,0,0,1,7.17,3.85,5.3,5.3,0,0,1,.56.6A1.28,1.28,0,0,1,508.58,136.2Z"/><path d="M208.26,115.27c-.85-4.06-3-7.16-7.07-8.71a11.45,11.45,0,0,1-1.12-.53L136.58,76.09,106.05,61.68a13.38,13.38,0,0,1-3.45-2.2A25.75,25.75,0,0,0,99.34,57a22.7,22.7,0,0,0-12.15-4,24,24,0,0,0-11.71,2.74,34.84,34.84,0,0,0-10.15,8,54.3,54.3,0,0,0-9.21,14.56,75.93,75.93,0,0,0-6.29,28.59,70.87,70.87,0,0,0,3.07,23.6A46.84,46.84,0,0,0,61,146.09a28.49,28.49,0,0,0,10.16,8.23,21.6,21.6,0,0,0,12.64,2c1.62-.25,3.23-.61,4.88-.75,2.87-.23,5.74-.56,8.59-1,4.9-.74,9.78-1.49,14.73-1.75,3.36-.17,6.72-.47,10.06-.84,5.87-.67,11.71-1.58,17.53-2.6,2.23-.4,4.49-.65,6.73-.95.58-.08.77.12.72.65a13.64,13.64,0,0,1-.19,1.43c-1,4.58-1.67,9.19-2.23,13.83a56.44,56.44,0,0,0-.65,8.21c0,1.09,0,2.18,0,3.27-1.13.42-2.29.1-3.43.17a19,19,0,0,0-3.28.23A3.39,3.39,0,0,0,135,177.8a18,18,0,0,0-1.67,4,69.4,69.4,0,0,0-2,10.3,31.39,31.39,0,0,0,0,8.44c.35,3,1.87,5.27,5,6a16.17,16.17,0,0,0,1.81.38c1.23.15,2.46.26,3.7.38s1.38.16,1.47,1.43c0,.34,0,.69,0,1,.08,1.3.08,2.62.28,3.91a5.72,5.72,0,0,0,5.51,5.18,65.41,65.41,0,0,0,7,.41,29.47,29.47,0,0,1,5.14.26,5.48,5.48,0,0,0,2.84-.34c1.21-.44,2.25-1.16,2.32-2.6a3.25,3.25,0,0,1,1.8-2.78,9.83,9.83,0,0,0,.83-.61,22.83,22.83,0,0,0,7.83-10.88,15.27,15.27,0,0,0,.88-5.88,23,23,0,0,0-2.41-8.89,48,48,0,0,0-5.48-8.46,2.67,2.67,0,0,1-.65-1.86q.28-13.4.52-26.8c0-1,0-2.07,0-3.1a9.9,9.9,0,0,0-.33-2.95c5-1.32,9.84-2.13,14.68-3.07,5.46-1.07,10.85-2.29,15.87-4.89a14.46,14.46,0,0,0,7.7-8.92A24.25,24.25,0,0,0,208.26,115.27ZM84.44,154.61a20.58,20.58,0,0,1-13.2-2,26.39,26.39,0,0,1-7.77-6,42.66,42.66,0,0,1-8.4-14.53,65.92,65.92,0,0,1-3.5-16.68A72.93,72.93,0,0,1,51.64,102c1.07-11,4.09-21.42,10-30.87a42.52,42.52,0,0,1,8.52-10A27.1,27.1,0,0,1,81.91,55a20.61,20.61,0,0,1,13.65,1.55,27.84,27.84,0,0,1,9.88,8.24,46.33,46.33,0,0,1,7.57,15,68.25,68.25,0,0,1,2.06,8.81,5.69,5.69,0,0,1,.08.82.59.59,0,0,1-.62.66l-.61.05c-3.16.23-6.28.69-9.42,1.09a67.9,67.9,0,0,1-7,.55c-2.34,0-4.65.3-7,.51a24,24,0,0,1-4.94,0c-.2,0-.41,0-.62,0-3.15-.32-4.29,1.19-4.44,4-.06,1-.07,2.06-.07,3.09,0,3.3,0,6.6,0,9.9a23.84,23.84,0,0,0,.75,5.7c.6,2.43,1.6,3.37,4.34,3.61a18.3,18.3,0,0,0,4.73-.14,3.36,3.36,0,0,1,1.41,0c2.73.66,5.54.93,8.32,1.39,4.19.69,8.38,1.43,12.52,2.14a1.33,1.33,0,0,1,0,1.06,62.15,62.15,0,0,1-8.48,17.54,39,39,0,0,1-9.84,9.88A25.49,25.49,0,0,1,84.44,154.61ZM94,116a21.46,21.46,0,0,0,3.53-8.48,13.06,13.06,0,0,0-.33-5.5,70.56,70.56,0,0,0-2.48-7.62,1.22,1.22,0,0,1-.09-.83c2.08-.14,4.19-.33,6.3-.41,1.93-.07,3.82-.41,5.73-.62l8-.87c.68-.07.84.07.91.77a78.29,78.29,0,0,1-1.74,26c-.57,2.29,0,2.13-2.7,1.8-1.77-.21-3.51-.58-5.27-.9-3.31-.6-6.62-1.19-10-1.52-.86-.08-1.71-.3-2.53-.45C93.29,116.64,93.75,116.36,94,116Zm-1.44-.59a3.47,3.47,0,0,1-2.91,1.66c-1.44,0-2.88.13-4.32,0A2.51,2.51,0,0,1,82.85,115a18.08,18.08,0,0,1-.71-4.25q0-7,0-14a6.85,6.85,0,0,1,.19-1.63,1.46,1.46,0,0,1,1.46-1.21c1,0,2.06,0,3.09,0a21.33,21.33,0,0,0,4.92-.26.94.94,0,0,1,1.15.62c.1.25.25.49.35.74.94,2.51,1.75,5,2.48,7.63A13.2,13.2,0,0,1,95,110.9,19.85,19.85,0,0,1,92.56,115.39Zm49.41,32c-3.05.46-6.09,1-9.15,1.49-5.3.77-10.6,1.56-15.95,1.93a165.56,165.56,0,0,0-18.84,2,24.27,24.27,0,0,1-4.88.57c0-.15-.08-.35,0-.37,7.06-4.23,12-10.36,15.88-17.48a69.38,69.38,0,0,0,6.58-17.92,77.44,77.44,0,0,0,1.89-15.32,68.17,68.17,0,0,0-5.13-28.77,46.41,46.41,0,0,0-4.7-8.44c-.2-.28-.38-.57-.55-.86,0,0,0-.11,0-.18a1.81,1.81,0,0,1,1.1.33l58,27.37a83,83,0,0,0-5.86,13.44,61.31,61.31,0,0,0-3.05,21.51,46.14,46.14,0,0,0,3.59,16c.15.38.33.76.48,1.14a.43.43,0,0,1-.32.63c-.73.18-1.47.34-2.21.46-3.06.48-6.1,1-9.16,1.43C147.15,146.77,144.55,147,142,147.43Zm-4.12,57.88a10.29,10.29,0,0,1-1.2-.26,4.76,4.76,0,0,1-3.77-4.13,25.52,25.52,0,0,1-.25-7c.17-2,.55-3.93.85-5.9,0-.12.13-.23.21-.35a25.07,25.07,0,0,1,2.24-8.49,2.61,2.61,0,0,1,2.2-1.66,15,15,0,0,1,1.63-.15,30.14,30.14,0,0,1,8.56,1.07c.66.2,1.29.47,1.92.73a2.88,2.88,0,0,1,1.24,1.05,2.19,2.19,0,0,1-1.1,3.5,9.8,9.8,0,0,1-3,.4,53,53,0,0,1-6.16-.55c-1-.12-2-.23-3.08-.29a.69.69,0,0,0-.75.56c-.08.39.19.73.68.86l.2,0,.2,0a63.55,63.55,0,0,0,9,.83,11.84,11.84,0,0,0,2.46-.19,6.51,6.51,0,0,1,4.35.78,3.66,3.66,0,0,1,2,2.48,1.86,1.86,0,0,1-.64,2,4.29,4.29,0,0,1-1.82.91,8.16,8.16,0,0,1-2.46.23,80.75,80.75,0,0,1-10.05-.94c-1.28-.24-2.58-.37-3.87-.56l-2.25-.09a3.65,3.65,0,0,0-.81,0,.61.61,0,0,0-.56.51.66.66,0,0,0,.49.79,8.77,8.77,0,0,0,1.81.35c4.25.23,8.42,1.26,12.68,1.36a3.88,3.88,0,0,1,1.57.44,2.4,2.4,0,0,1,.64,3.82,4.38,4.38,0,0,1-2.33,1.21,12.21,12.21,0,0,1-3.08,0c-2.66-.27-5.32-.58-8-.86-.75-.08-1.5-.16-2.25-.21s-1.28.15-1.27.64.27.68,1.19.86c.33.06.67.12,1,.16,2.93.32,5.87.59,8.8.95a6.15,6.15,0,0,1,4.55,3.15.94.94,0,0,1-.2,1.13,3,3,0,0,1-1.58.91,9,9,0,0,1-3.45.46C142.22,205.78,140,205.55,137.85,205.31Zm27.51-9.85c-.16,2.6-.29,5.21-.33,7.82,0,2.26,0,4.53.14,6.79a50.35,50.35,0,0,1-.15,5.36c-.11,1.77-.82,2.45-2.56,2.6a6.31,6.31,0,0,1-1.44,0c-3.07-.39-6.17-.24-9.26-.4a32.71,32.71,0,0,1-3.27-.37,3.75,3.75,0,0,1-3-2.3,6.1,6.1,0,0,1-.63-2.16c-.08-1.51-.13-3-.2-4.53a.5.5,0,0,1,.45-.58c.74-.13,1.49-.2,2.23-.34a6.1,6.1,0,0,0,2.64-1.1,2.58,2.58,0,0,0,.65-3.79c-.45-.67-1-1.26-1.56-1.9,3.86-1.79,4.4-2.82,3.65-6.86.3-.36.75-.29,1.13-.38a6.27,6.27,0,0,0,2.75-1.34,3.26,3.26,0,0,0,1.14-3.32,5.27,5.27,0,0,0-2.95-3.74c-.6-.32-1.34-.33-1.9-.87a2.63,2.63,0,0,1,.15-.53c1.15-1.87,0-4.52-2-5.57a14.32,14.32,0,0,0-2.89-1.06c-.79-.21-1.81-.11-2.29-.73s-.31-1.72-.33-2.61a52,52,0,0,1,.63-9.24c.72-4.88,1.52-9.76,2.25-14.65.19-1.25,0-1.39,1.59-1.65,3.46-.55,6.92-1.09,10.37-1.7,2.29-.41,4.57-.93,6.85-1.4l.76-.12a2.46,2.46,0,0,1,.32,1.64c0,1.58,0,3.17-.1,4.74-.28,3.57-.29,7.14-.33,10.71,0,4.33-.12,8.65-.19,13a3.08,3.08,0,0,1-.19,1.41c-.56.2-.89-.26-1.31-.44a3.67,3.67,0,0,0-4.53.77,6.19,6.19,0,0,0-2.07,5,10.33,10.33,0,0,0,.31,2.23,19.49,19.49,0,0,0,4.29,8.35A4.11,4.11,0,0,1,165.36,195.46Zm10-3.7a16.28,16.28,0,0,1-1.67,13.87,21.19,21.19,0,0,1-5.87,6.56c-.22.15-.46.27-.89.52a113.31,113.31,0,0,1-.07-16.47.79.79,0,0,1,.18-.53c.31-.23.46.1.66.26a3.72,3.72,0,0,0,.66.46.42.42,0,0,0,.53-.21.78.78,0,0,0,.19-.54,3.72,3.72,0,0,0-.94-1.32c-1.19-1.43-2.44-2.8-3.55-4.29a18,18,0,0,1-3.38-8.09,4.77,4.77,0,0,1,1.65-4.44,2.07,2.07,0,0,1,2.81-.32,6.23,6.23,0,0,1,1.48,1.11A38.12,38.12,0,0,1,175.32,191.76Zm7.35-51.71c-1.82.35-3.65.65-5.47,1-3.69.79-7.37,1.63-11.06,2.44-.47.11-.93.22-1.4.31-1.35.25-1.39.54-2.15-1.15a48.6,48.6,0,0,1-2.89-9.22A45.28,45.28,0,0,1,159,121a55.81,55.81,0,0,1,3.57-17.07c1.16-3,2.47-6,3.74-8.93a17.34,17.34,0,0,1,1.07-2,.57.57,0,0,1,.71-.23c.26.1.51.22.76.34l16.95,8a1.82,1.82,0,0,1,1.05.77l-1.21,1.82a39.8,39.8,0,0,0-6.31,14.44,27.89,27.89,0,0,0,1,16,25.5,25.5,0,0,0,2.74,5.06C183.37,139.65,183.24,139.94,182.67,140.05Zm23.69-13.57a13.22,13.22,0,0,1-7.3,8.66,50.39,50.39,0,0,1-12.26,4c-.27.06-.54.07-.81.14a1.1,1.1,0,0,1-1.22-.52,21.57,21.57,0,0,1-4-8.29,25.16,25.16,0,0,1-.64-5.34,34.75,34.75,0,0,1,3.84-15.8,41.87,41.87,0,0,1,3.88-6.29c.51-.69.69-.76,1.37-.44,4,1.87,8,3.69,11.87,5.65a9.63,9.63,0,0,1,4.88,4.82,14,14,0,0,1,1,3.77A25.48,25.48,0,0,1,206.36,126.48Z"/><path d="M313.16,487.41H179.92a5.41,5.41,0,0,1-1.5-2.18c-5.28-11.56-8.14-23.77-9.79-36.3a117.34,117.34,0,0,1-1.2-18.9C168,412.67,170,395.5,175.65,379a143.6,143.6,0,0,1,8-17.87c1.48-2.95,3-5.86,4.24-8.94.81-2.07,1.23-2.23,3.26-1.49,4.08,1.5,8.38,1.42,12.61,1.64a157.28,157.28,0,0,0,16.25,0c5.22-.27,10.38-1.09,15.56-1.78,6.33-.85,12.69-1.5,18.87-3.25a3,3,0,0,1,2.36.46c5.5,3,11.51,4,17.63,4.58,8.58.82,17.17.22,25.76.4.82,0,1.65,0,2.47,0,2,.13,2.47.64,2.13,2.59-.44,2.58-.92,5.15-1.42,7.71C302,370,300.62,377,298.93,383.84a16.08,16.08,0,0,0-.44,4.09c.05,3.25,1.28,4.84,4.48,5.43a58.16,58.16,0,0,0,14.38.47c.61-.05,1.22-.17,1.84-.21a2.79,2.79,0,0,1,3.28,2.35,101.62,101.62,0,0,1,3.21,17.63,189.79,189.79,0,0,1,.87,21.19,117.85,117.85,0,0,1-5.17,32.46,130.49,130.49,0,0,1-7,18.29A5.08,5.08,0,0,1,313.16,487.41Z" fill="#f38704"/><path d="M262.05,99.86a2.66,2.66,0,0,0-4.71-.37,5.3,5.3,0,0,0-1.08,3.26,4.31,4.31,0,0,0,.41,2.21,3.06,3.06,0,0,0,3,1.82,2.63,2.63,0,0,0,2.58-1.74A6,6,0,0,0,262.05,99.86Zm-2.28,3a1,1,0,0,1-1,.54.89.89,0,0,1-.81-.8,3,3,0,0,1,.39-2.16A.86.86,0,0,1,259,100a.88.88,0,0,1,.85.48,4.15,4.15,0,0,1,.23.84A3.1,3.1,0,0,1,259.77,102.85Zm1.5,1.89a.49.49,0,0,1-.62.36.63.63,0,0,1-.3-.47c-.08-.56.19-.92.57-.87S261.45,104.26,261.27,104.74Z" fill="#050505"/><path d="M252.87,126.5a25.09,25.09,0,0,0-5.74-.37c-.82.07-1.64.11-2.46.16v-.06c-1.78.09-3.56.12-5.34.27a41.78,41.78,0,0,0-4.47.62c-1.29.25-1.64,1.09-1.12,2.29.05.13.14.24.2.36a29.47,29.47,0,0,0,5.42,7.45,14.42,14.42,0,0,0,1.24,1.09,4.39,4.39,0,0,0,3,1,9.57,9.57,0,0,0,5.61-2.29,18.3,18.3,0,0,0,5.13-7.1,3.93,3.93,0,0,0,.24-.78C255,127.58,254.44,126.74,252.87,126.5Zm-2.21,7.1a23.41,23.41,0,0,1-3.07,2.72,8.24,8.24,0,0,1-3.16,1.38,3.45,3.45,0,0,1-3.23-.78,21,21,0,0,1-4.86-5.51c-.35-.59-.71-1.17-1-1.78s-.13-1,.58-1.12c2-.22,3.94-.52,5.92-.61,2.8-.13,5.6-.13,8.41-.14a8.74,8.74,0,0,1,3.09.53A10.55,10.55,0,0,1,250.66,133.6Z" fill="#040303"/><path d="M150.61,230.39a34.65,34.65,0,0,1-8.19-.74,18,18,0,0,1-1.78-.49,9.8,9.8,0,0,1-6.79-7.61,22.18,22.18,0,0,1-.5-3.25c-.28-3.22-.51-6.44-.75-9.66a3.48,3.48,0,0,1,.06-1,.64.64,0,0,1,.59-.48.62.62,0,0,1,.62.45,4.21,4.21,0,0,1,.19,1c.3,3.22.59,6.43.86,9.65a19.2,19.2,0,0,0,.76,4,8,8,0,0,0,4.9,5.21,20.81,20.81,0,0,0,5.82,1.2,54.22,54.22,0,0,0,7.21.18,5.29,5.29,0,0,0,5.25-3.83,11.34,11.34,0,0,1,.61-1.53.55.55,0,0,1,.72-.21.79.79,0,0,1,.38.43,2.45,2.45,0,0,1,0,1c-.93,3.24-2.74,5.35-6.25,5.64C153.08,230.48,151.84,230.39,150.61,230.39Z" fill="#040303"/><path d="M37.89,150.51c-.06.55-.5.79-.89,1.06a66.41,66.41,0,0,0-6.65,5.54c-.61.55-1.21,1.12-1.81,1.68L20.86,166a25.79,25.79,0,0,0-3.28,3.41,1,1,0,0,1-.65.46c-.3.06-.77-.27-.7-.57a1.73,1.73,0,0,1,.27-.75,21.07,21.07,0,0,1,1.72-2c4.86-4.77,9.78-9.46,14.94-13.9,1-.85,2.06-1.59,3.1-2.38a1.42,1.42,0,0,1,1-.34C37.5,149.86,37.92,150.25,37.89,150.51Z" fill="#060505"/><path d="M22.43,39.76A1.92,1.92,0,0,1,23,40a3.94,3.94,0,0,1,.56.59c4.17,4.94,9.34,8.65,14.77,12A10.74,10.74,0,0,0,41.49,54a2,2,0,0,1,.73.34.7.7,0,0,1-.35,1.24,2.43,2.43,0,0,1-1.4-.23A22.82,22.82,0,0,1,37,53.6a72.56,72.56,0,0,1-11-8.27,31.61,31.61,0,0,1-3.72-4.12,1.34,1.34,0,0,1-.38-.92C21.9,40,22.11,39.83,22.43,39.76Z" fill="#070505"/><path d="M19.65,105.77c-2.59-.27-5.43-.09-8.19-.73-1.33-.31-2.64-.72-4-1.1-.32-.1-.68-.2-.83-.54a.79.79,0,0,1,0-.58.61.61,0,0,1,.43-.34,3.43,3.43,0,0,1,1,.16c5.27,1.69,10.68,1.66,16.1,1.35,1.51-.09,3-.33,4.51-.49a2.75,2.75,0,0,1,.81,0,.75.75,0,0,1,.63.71c0,.33-.23.49-.44.64a1.23,1.23,0,0,1-.58.17A81.12,81.12,0,0,1,19.65,105.77Z" fill="#080505"/><path d="M487.79,110s.09,0,.12,0,.07.17-.09.23a.38.38,0,0,1-.1-.13S487.76,110.08,487.79,110Z" fill="#f59726"/><path d="M363.46,148.33a34.28,34.28,0,0,1,5.54-.42,24.43,24.43,0,0,0,13.73-4.39,60.46,60.46,0,0,0,6.68-5.17c3.13-2.79,6.3-5.53,9.48-8.26a55.09,55.09,0,0,0,7.94-8.36c1.42-1.85,2.84-3.71,4.18-5.62,2.44-3.5,4.82-7,7.22-10.55a42.87,42.87,0,0,0,3.94-7.23,93.21,93.21,0,0,0,5.23-16.46,78.37,78.37,0,0,1,2.07-8c.15-.46.28-.92.47-1.36.53-1.28.54-1.8,1.84-.53a13.17,13.17,0,0,0,5.14,3c1.42.49,2.85,1,4.25,1.56A30.91,30.91,0,0,1,447,79.69a19.11,19.11,0,0,1,7.43,9.36c.36,1,.75,1.93,1,2.92,1.41,5.18,3.24,10.21,5.12,15.23.38,1,.83,2,1.28,3a21.15,21.15,0,0,0,7.91,9.29c1.37.9,2.8,1.75,4.25,2.51,2.25,1.19,4.54,2.3,6.82,3.42a38.26,38.26,0,0,0,10.64,3.1c3.12.53,6.23,1.06,9.33,1.66a14.64,14.64,0,0,1,7.17,3.85,5.3,5.3,0,0,1,.56.6,1.28,1.28,0,0,1,.11,1.54,6.37,6.37,0,0,1-1,1.32,13.06,13.06,0,0,0-2.57,3.95c-1.77,3.8-3.5,7.61-5.31,11.39-3.24,6.75-6.26,13.6-9.69,20.26a216.72,216.72,0,0,0-9.83,22.22A100.38,100.38,0,0,0,475.4,213a26.12,26.12,0,0,0-.19,3.08c0,.4.14.83-.19,1.22a3.09,3.09,0,0,1-.55.06c-2.82-.27-5.63-.2-8.45-.2a89.85,89.85,0,0,1-23.88-2.76,32.5,32.5,0,0,1-15.38-9.16,22.24,22.24,0,0,1-2.77-3.58c-.54-.88-1.1-1.75-1.63-2.63-3-4.95-5.95-9.88-8.9-14.85a66.79,66.79,0,0,0-4.17-6.13,94.22,94.22,0,0,0-17.44-17.74,50.11,50.11,0,0,0-18.79-9.08c-2.8-.71-5.6-1.39-8.4-2.09-.4-.1-.78-.27-1.16-.4-.14-.08-.19-.17-.16-.27S363.42,148.33,363.46,148.33Z" fill="#f38704"/><path d="M228,54.57a1,1,0,0,1,.07-1c5.4-12.51,14.57-20.43,28.13-22.78a38.85,38.85,0,0,1,24.95,4.14c10.54,5.43,18,13.77,22.88,24.51a7.93,7.93,0,0,1,.37,1,.41.41,0,0,1-.1.35.42.42,0,0,1-.36.09c-.52-.17-1-.35-1.55-.54a97.46,97.46,0,0,0-10-3c-3-.75-6.06-1.19-9.12-1.64a105.08,105.08,0,0,0-22-.83,179.59,179.59,0,0,1-20-.29c-3.29-.16-6.59-.25-9.88-.16C230.27,54.34,229.12,54.48,228,54.57Z" fill="#f38704"/><path d="M272,182.31c-10.08,0-18.83-1.69-27.11-5.61a31.63,31.63,0,0,1-6-3.6,10.69,10.69,0,0,1-2.38-2.55,4.34,4.34,0,0,1-.49-4,7.77,7.77,0,0,1,4.94-4.9,2.3,2.3,0,0,1,2.65.59c.09.1.21.18.3.28,2.95,3.14,6.78,4.57,10.83,5.56a25.7,25.7,0,0,0,11.83-.17c4.17-.92,8.25-2.11,12.31-3.39,1.44-.45,2.91-.81,4.37-1.17a5.64,5.64,0,0,1,5.92,1.93,15.58,15.58,0,0,1,3.67,7.49,3.74,3.74,0,0,1-1,3.41,14.68,14.68,0,0,1-5.39,3.71,30.25,30.25,0,0,1-6.74,1.81A55.74,55.74,0,0,1,272,182.31Z" fill="#f38704"/><path d="M294.13,170.83c-.46-1-.85-2.06-1.35-3a2,2,0,0,1,0-2,16.79,16.79,0,0,1,12.39-9.22,24,24,0,0,1,3.48-.38c4.53-.14,9-.45,13.58-.17,1.58.1,3.16.09,4.74.11a19.94,19.94,0,0,0,8-1.45c.64-.27.85-.1.91.59a10.07,10.07,0,0,1-1.71,6.65c-3.94,5.8-9.24,9.45-16.3,10.36a46.91,46.91,0,0,1-5.55.39,17.08,17.08,0,0,0-2.26.09,24.39,24.39,0,0,1-10.95-1.22A12.29,12.29,0,0,0,294.13,170.83Z" fill="#f38704"/><path d="M318.7,289.38c-1.22-.23-2.49-.47-3.77-.68a1.24,1.24,0,0,1-1.05-1.1c-.77-3.2-1.69-6.37-2.33-9.6a140.45,140.45,0,0,1-2.37-16.72,171.33,171.33,0,0,1-.26-25.33c.35-4.66.6-9.33,1-14,.34-3.76.84-7.51,1.28-11.26a5.78,5.78,0,0,1,1.43-3.33c1.17-1.33,2.26-2.73,3.42-4,.58.25.39.65.35.92-.67,4.49-1,9-1.46,13.52-.21,2.26-.38,4.52-.46,6.79-.23,6.39-.59,12.77-.4,19.17s.39,12.91,1,19.34a153.31,153.31,0,0,0,2.59,17.73c.22,1,.44,2,.73,3a19.07,19.07,0,0,1,.53,5.1C319,289,318.84,289.14,318.7,289.38Z" fill="#f38704"/><path d="M369.27,355.17a6.85,6.85,0,1,1-7-6.78A6.82,6.82,0,0,1,369.27,355.17Z" fill="#f38704"/><path d="M359.35,295.2c1,3.21,2,6.42,2.91,9.64s1.75,6.34,2.71,9.48,2,6.36,3.11,9.6a14.17,14.17,0,0,1-4.12.63.69.69,0,0,1-.72-.6,23.09,23.09,0,0,1-.53-2.83,82,82,0,0,0-1.39-8.1q-1.32-6.86-2.6-13.73a8.94,8.94,0,0,1-.16-3.26C358.9,295.83,358.53,295,359.35,295.2Z" fill="#f28604"/><path d="M319.65,330.32c-2.61-1.61-5.53-1.85-8.48-1.94-.76,0-.89-.15-.74-.79.73-3,1.44-6,2-9,.09-.55.34-.68.86-.41,1.64.84,3.26,1.71,4.9,2.56a1.25,1.25,0,0,1,.74.91l1.35,7.67C320.4,329.85,320.49,330.36,319.65,330.32Z" fill="#f28604"/><path d="M320.53,183.51l-1.27,5.11a2.93,2.93,0,0,1-.71,1.23c-1.45,1.65-2.89,3.3-4.34,4.94-.08.09-.23.12-.47.23a4,4,0,0,1,.21-1.93,66.37,66.37,0,0,1,1.62-8c.15-.53.33-1,.51-1.56a.71.71,0,0,1,.8-.48C318,183.16,319.18,183.33,320.53,183.51Z" fill="#f08504"/><path d="M359.35,295.2c-.44.11-.46.62-.79.83,0-.34,0-.67,0-1s.18-.55.49-.48S359.37,294.93,359.35,295.2Z" fill="#704802"/><path d="M319.65,330.32c.43-.2.49-.62.6-1a1.57,1.57,0,0,1,.38,1.1c0,.2,0,.41-.23.46a.52.52,0,0,1-.35-.12A5.48,5.48,0,0,1,319.65,330.32Z" fill="#c96603"/><path d="M363.46,148.33c0,.14,0,.28,0,.42-.27.05-.64,0-.65-.2S363.2,148.27,363.46,148.33Z" fill="#b35302"/><path d="M149.12,200.54c3.86-1.79,4.4-2.82,3.65-6.86.3-.36.75-.29,1.13-.38a6.27,6.27,0,0,0,2.75-1.34,3.26,3.26,0,0,0,1.14-3.32,5.27,5.27,0,0,0-2.95-3.74c-.6-.32-1.34-.33-1.9-.87a2.63,2.63,0,0,1,.15-.53c1.15-1.87,0-4.52-2-5.57a14.32,14.32,0,0,0-2.89-1.06c-.79-.21-1.81-.11-2.29-.73s-.31-1.72-.33-2.61a52,52,0,0,1,.63-9.24c.72-4.88,1.52-9.76,2.25-14.65.19-1.25,0-1.39,1.59-1.65,3.46-.55,6.92-1.09,10.37-1.7,2.29-.41,4.57-.93,6.85-1.4l.76-.12a2.46,2.46,0,0,1,.32,1.64c0,1.58,0,3.17-.1,4.74-.28,3.57-.29,7.14-.33,10.71,0,4.33-.12,8.65-.19,13a3.08,3.08,0,0,1-.19,1.41c-.56.2-.89-.26-1.31-.44a3.67,3.67,0,0,0-4.53.77,6.19,6.19,0,0,0-2.07,5,10.33,10.33,0,0,0,.31,2.23,19.49,19.49,0,0,0,4.29,8.35,4.11,4.11,0,0,1,1.16,3.33c-.16,2.6-.29,5.21-.33,7.82,0,2.26,0,4.53.14,6.79a50.35,50.35,0,0,1-.15,5.36c-.11,1.77-.82,2.45-2.56,2.6a6.31,6.31,0,0,1-1.44,0c-3.07-.39-6.17-.24-9.26-.4a32.71,32.71,0,0,1-3.27-.37,3.75,3.75,0,0,1-3-2.3,6.1,6.1,0,0,1-.63-2.16c-.08-1.51-.13-3-.2-4.53a.5.5,0,0,1,.45-.58c.74-.13,1.49-.2,2.23-.34a6.1,6.1,0,0,0,2.64-1.1,2.58,2.58,0,0,0,.65-3.79C150.23,201.77,149.65,201.18,149.12,200.54Z" fill="#f38704"/><path d="M186.83,101.85l-1.21,1.82a39.8,39.8,0,0,0-6.31,14.44,27.89,27.89,0,0,0,1,16,25.5,25.5,0,0,0,2.74,5.06c.32.46.19.75-.38.86-1.82.35-3.65.65-5.47,1-3.69.79-7.37,1.63-11.06,2.44-.47.11-.93.22-1.4.31-1.35.25-1.39.54-2.15-1.15a48.6,48.6,0,0,1-2.89-9.22A45.28,45.28,0,0,1,159,121a55.81,55.81,0,0,1,3.57-17.07c1.16-3,2.47-6,3.74-8.93a17.34,17.34,0,0,1,1.07-2,.57.57,0,0,1,.71-.23c.26.1.51.22.76.34l16.95,8A1.82,1.82,0,0,1,186.83,101.85Z" fill="#f38704"/><path d="M86.87,93.92a21.33,21.33,0,0,0,4.92-.26.94.94,0,0,1,1.15.62c.1.25.25.49.35.74.94,2.51,1.75,5,2.48,7.63A13.2,13.2,0,0,1,95,110.9a19.85,19.85,0,0,1-2.47,4.49,3.47,3.47,0,0,1-2.91,1.66c-1.44,0-2.88.13-4.32,0A2.51,2.51,0,0,1,82.85,115a18.08,18.08,0,0,1-.71-4.25q0-7,0-14a6.85,6.85,0,0,1,.19-1.63,1.46,1.46,0,0,1,1.46-1.21C84.81,93.9,85.84,93.92,86.87,93.92Z" fill="#f38704"/><path d="M253,243.07a3.33,3.33,0,0,1-3-4.57,7.89,7.89,0,0,1,.88-1.38,2.23,2.23,0,0,1,2.76-.71,3.48,3.48,0,0,1,2.66,3.27A3.26,3.26,0,0,1,253,243.07Z" fill="#030202"/><path d="M249.23,335.24a2.34,2.34,0,0,1-2.11-1,3.79,3.79,0,0,1-.77-2.68c.14-1.64,1.49-2,2.67-2.43a2.15,2.15,0,0,1,2.6.61,3.34,3.34,0,0,1-.5,4.88A2.78,2.78,0,0,1,249.23,335.24Z" fill="#040303"/><path d="M258.41,207.69a3,3,0,0,1-6-.1,2.9,2.9,0,0,1,2.9-3.06A3,3,0,0,1,258.41,207.69Z" fill="#040303"/><path d="M248.91,301.85a2.56,2.56,0,0,1,2.76,2.42,2.61,2.61,0,0,1-1.74,3.08,2.55,2.55,0,0,1-2.65-.58,3.41,3.41,0,0,1-.87-3.57A2.32,2.32,0,0,1,248.91,301.85Z" fill="#050404"/><path d="M417.87,175.18a1.29,1.29,0,0,1,.46,1.28c-.46,2.06-.92,4.12-1.41,6.17a1.49,1.49,0,0,1-.42.67.65.65,0,0,1-1-.27,3,3,0,0,1,.1-1.61l1.5-5.94C417.31,175.26,417.48,174.93,417.87,175.18Z" fill="#0f0800"/><path d="M407.75,165.16a14.73,14.73,0,0,1,1.62-.13.64.64,0,0,1,.66.64.59.59,0,0,1-.45.62,27.45,27.45,0,0,1-5.86.62c-.15,0-.33-.22-.42-.38a.51.51,0,0,1,.25-.69,4.51,4.51,0,0,1,1.35-.42c.94-.14,1.9-.19,2.84-.28Z" fill="#100900"/><path d="M408.21,169.38c-.07.09-.15.33-.3.4a8,8,0,0,1-3.15.85.62.62,0,0,1-.28-1.17,8.8,8.8,0,0,1,2.93-.88A.73.73,0,0,1,408.21,169.38Z" fill="#1d0f00"/><path d="M412,179.35a.7.7,0,0,1-.63-.65,3.75,3.75,0,0,1,.94-2.18.59.59,0,0,1,.74-.09c.15.09.33.31.32.45a3.65,3.65,0,0,1-1,2.34A1.07,1.07,0,0,1,412,179.35Z" fill="#1e1000"/><path d="M417.87,175.18l-.76.3-.48-.37a1.63,1.63,0,0,1,1.32-.41C417.92,174.86,417.9,175,417.87,175.18Z" fill="#b98104"/><path d="M235.36,88.47a6,6,0,0,0-3.16.83,8.54,8.54,0,0,1-1.27.67.68.68,0,0,1-.85-.37.53.53,0,0,1,.16-.73,8.16,8.16,0,0,1,9.55-.83,50.38,50.38,0,0,1,4,3.17A.62.62,0,0,1,244,92a.66.66,0,0,1-.82.43,3.25,3.25,0,0,1-1.08-.55c-.75-.59-1.48-1.21-2.21-1.83A6.16,6.16,0,0,0,235.36,88.47Z" fill="#0b0808"/><path d="M247.79,119.58a12,12,0,0,1-1.42-.24,3.86,3.86,0,0,1-3.21-4.36,1.62,1.62,0,0,1,.24-.76.69.69,0,0,1,.5-.26.84.84,0,0,1,.51.26,1.53,1.53,0,0,1,.24,1.18,2.27,2.27,0,0,0,2.24,2.45c.54.08,1.08.2,1.62.27s.8.29.77.78-.46.62-.88.68A5.79,5.79,0,0,1,247.79,119.58Z" fill="#0f0d0d"/><path d="M291.09,117.18a3,3,0,0,1-1.18,2.44c-.1.06-.33.08-.38,0s-.27-.43-.22-.5a3.83,3.83,0,0,0,.74-3.08c0-.17.11-.25.28-.2a.68.68,0,0,1,.36.14A2.11,2.11,0,0,1,291.09,117.18Z" fill="#302e2e"/><path d="M293.23,124.45c-.35-.31-.79-.54-.89-1.06-.57.21-1.06-.16-1.58-.23a5.31,5.31,0,0,0-5.72,3,7,7,0,0,0-.48,5.35c.19.66.41,1.3.62,1.94.48.49.93,1,1.45,1.44a5.13,5.13,0,0,0,7.33-.41,6.06,6.06,0,0,0,1.46-2.66A7,7,0,0,0,293.23,124.45Zm-3.17,10a.45.45,0,0,1-.33.2,3.47,3.47,0,0,1-2.23-.92,4.72,4.72,0,0,1-1.72-3.91,7.64,7.64,0,0,1,1.58-4.9.49.49,0,0,1,.7-.18c.33.2.18.47.05.71-.26.48-.55,1-.79,1.44a6,6,0,0,0-.6,3,3.75,3.75,0,0,0,2.45,3.69,4.6,4.6,0,0,1,.75.33A.4.4,0,0,1,290.06,134.46Zm2.21-.58c-.38,0-.6-.22-.67-.64s.3-.8.68-.76a.65.65,0,0,1,.66.59A.72.72,0,0,1,292.27,133.88Z" fill="#f38705"/><path d="M419.59,170.11c-.26-.05-.51-.13-.74.12-1.52,1.74-3.55,1.86-5.64,1.74-.68,0-1-.48-.75-1.14a16.93,16.93,0,0,1,1.41-3.17,6.27,6.27,0,0,1,2.44-2,1.12,1.12,0,0,1,.77.87c-.24,1.25-1.53,1.88-1.9,3.19,1.46.53,2.19-1.22,3.47-1.07C419.37,168.88,419.48,169.49,419.59,170.11Z" fill="#0b0808"/><path d="M420.47,169.22a6.06,6.06,0,0,1,2-1,30.07,30.07,0,0,0,7.73-3.15c.79-.46,1.42-.46,1.61,0s-.06.87-.75,1.3a17.87,17.87,0,0,1-2.51,1.35,28.7,28.7,0,0,1-7,2.2c-.41.06-.1.44-.14.66C420.69,170.37,420.6,169.78,420.47,169.22Z" fill="#0e0a0a"/><path d="M474.73,133.27a9.07,9.07,0,0,0-1-.21,62.79,62.79,0,0,0-14.16-.92,54.38,54.38,0,0,0-17.05,3.64,55.46,55.46,0,0,0-5.8,2.69c-1.38.74-1.18.78-2.27-.2-.51-.46-1.05-.89-1.6-1.31a11.43,11.43,0,0,0-5-2.21,22.56,22.56,0,0,0-9,.25,13.06,13.06,0,0,0-3.5,1.2,27.85,27.85,0,0,0-8.29,6.7,8,8,0,0,0-.5.65c-.31.52-.8,1.06-.3,1.68s1,.29,1.54.12.77-.28,1.17-.41a19.59,19.59,0,0,1,13.13-.1c.91.32,1.82.61,2.73.93.3.11.71.08.8.56a5,5,0,0,1-1.34,1.49,55.59,55.59,0,0,0-10,13.8,17.68,17.68,0,0,1-2.3,3.61,10.22,10.22,0,0,0-2.17,4.62c-.27,1.21-.52,2.41-.78,3.62-.18.89.05,1.36.92,1.53a13.51,13.51,0,0,0,4.7.35c.68-.1,1.36-.16,2.05-.24.4-.25,1,.12,1.32-.41a14.35,14.35,0,0,0,2.12-1.24,2.92,2.92,0,0,1,2.45-.7,37.3,37.3,0,0,0,11.69-.43A43.63,43.63,0,0,0,439,171.2c1.16-.32,1.39-.21,1.89.91a8.15,8.15,0,0,1,.79,4.22c-.46,4.13-1.4,8.12-4,11.54a3.06,3.06,0,0,0-.39.71.75.75,0,0,0,.69,1,7.58,7.58,0,0,0,1.41-.25,17.17,17.17,0,0,0,4.1-1.9,20.13,20.13,0,0,0,8.41-9.34,12.8,12.8,0,0,0,.19-10.41c-.2-.51-.45-1-.67-1.51a.75.75,0,0,1,.33-1.05c.35-.22.68-.47,1-.7a54.59,54.59,0,0,0,7.1-5.95,73.3,73.3,0,0,0,15.27-22.83,5.62,5.62,0,0,0,.35-1A1.07,1.07,0,0,0,474.73,133.27ZM421.3,143a15.21,15.21,0,0,0-2.05-.56,17.54,17.54,0,0,0-4.16-.25c-.7,0-1.4.1-2.11.2s-1.21.18-1.81.29l-1.79.34a.61.61,0,0,1-.05-.31.57.57,0,0,1,.08-.23,1,1,0,0,1,.17-.18l.18-.16c.62-.59,1.26-1.16,1.92-1.7s1.34-1.06,2.05-1.55a15.32,15.32,0,0,1,6.4-2.61,24.62,24.62,0,0,1,4.76-.3c.53,0,1.06.05,1.59.1a10.59,10.59,0,0,1,4,1.19c.31.17.61.35.91.54a13.73,13.73,0,0,1,1.32,1,16.23,16.23,0,0,1,1.21,1.15l-.69.47c-1.48,1-2.91,2-4.27,3.08-.53.42-1,.84-1.55,1.28a.74.74,0,0,1-.22.14.8.8,0,0,1-.46,0,1.29,1.29,0,0,1-.26-.08Q423.91,143.89,421.3,143ZM420,171.41a1,1,0,0,1-.33.51h0l-.32.26a1.85,1.85,0,0,1-.34.23,11,11,0,0,1-6.2,1.38,14.45,14.45,0,0,1-2.22-.31h0c.28-1.42.47-2.69.78-3.94a8.68,8.68,0,0,1,.9-2.25,10.36,10.36,0,0,1,.88-1.28c.21-.25.42-.5.64-.74l.05-.05.52-.51a.6.6,0,0,1,.13-.09.59.59,0,0,1,.31-.13.47.47,0,0,1,.23,0,.75.75,0,0,1,.23.15c.35.32.69.66,1,1a4.12,4.12,0,0,1-.63.93c-.25.28-.52.54-.79.8a6.61,6.61,0,0,0-1.09,1.32,4,4,0,0,0-.25.55,4,4,0,0,0-.34,1.47c0,.31.23.47.65.55a6.36,6.36,0,0,0,1.15,0,5.5,5.5,0,0,0,2.06-.48c.22-.1.43-.2.65-.32l.43-.25.22-.13a1.74,1.74,0,0,1,.45-.17l.25,0a1.09,1.09,0,0,1,.52.15c.07.14.12.29.19.42s0,.09.07.13a.94.94,0,0,1,.2.64v0S420,171.38,420,171.41Zm-4.52-3.14c-.19,0-.09-.16,0,0,.23,0,.9-.28,2.58-1.73l-2.72,3.84C415.66,169,415.59,168.44,415.5,168.27Zm36,2.53a10.69,10.69,0,0,1,.05,2.83c-.05.41-.12.81-.2,1.2a15.69,15.69,0,0,1-3,6.3c-.25.32-.5.63-.76.93s-.48.55-.73.81a18.78,18.78,0,0,1-1.48,1.35,22.4,22.4,0,0,1-4.69,2.93.32.32,0,0,1-.23.08s-.07,0-.1-.06a.3.3,0,0,1-.1-.07c.51-1.23,1-2.46,1.45-3.72.22-.63.42-1.26.6-1.9s.35-1.29.49-1.95a17.12,17.12,0,0,0,.42-3.45,10.59,10.59,0,0,0,0-1.13,10.9,10.9,0,0,0-1.27-4.42s0-.07,0-.13,0-.1,0-.18a69,69,0,0,0,7.2-3.51l.72-.41c.17.3.32.59.47.89a14.19,14.19,0,0,1,.73,1.78A11.61,11.61,0,0,1,451.53,170.8ZM462,154a56,56,0,0,1-11.43,10.08c-.85.56-1.72,1.09-2.6,1.59a47.58,47.58,0,0,1-5.57,2.67c-.93.37-1.87.7-2.82,1s-2.06.62-3.1.88l-.93.22a41.35,41.35,0,0,1-10.85.94c-.75,0-1.5-.17-2.25-.22a1.24,1.24,0,0,1-.58-.22c-.16-.12-.3-.26-.46-.39,0-.24,0-.43,0-.58.05-.42.23-.5.91-.69l.08,0c.3-.08.59-.18.89-.27,1-.29,2-.61,3-1,.66-.25,1.33-.49,2-.76a6.68,6.68,0,0,0,2-1.11,6.34,6.34,0,0,0,.67-.69c-1.36.58-2.66,1.19-3.93,1.75a23.71,23.71,0,0,1-6.46,2c-.21-.4-.41-.81-.63-1.2-.12-.22-.32-.4-.18-.68h0a7.24,7.24,0,0,1-2.22-3.06c-.11,0-.25.09-.31,0h0c-.58-.48-1.14-1-1.63-1.43.07-.2.15-.42.24-.64.19-.45.41-.93.67-1.44s.56-1,.89-1.6q.24-.42.51-.84a56.73,56.73,0,0,1,4.49-6.16c.23-.29.47-.57.72-.85.48-.56,1-1.09,1.45-1.61a52.16,52.16,0,0,1,3.81-3.64,51.2,51.2,0,0,1,14.23-8.72c1-.41,2-.78,2.92-1.1.47-.16.92-.31,1.36-.44a17.47,17.47,0,0,1,5.24-1c0,.13-.07.25-.11.37s-.07.26-.11.38a12,12,0,0,0-.42,2.33,11.57,11.57,0,0,0,.06,2.28,14.34,14.34,0,0,0,1.35,4.4c.23.48.48.95.75,1.4a16.08,16.08,0,0,0,1.79,2.49c.33.38.68.75,1,1.09a16.07,16.07,0,0,0,5.2,3.29,3.93,3.93,0,0,1,.49.23.52.52,0,0,1,.22.23C462.35,153.49,462.23,153.68,462,154Zm11.67-18.76c-.05.13-.09.26-.15.39a84.28,84.28,0,0,1-4.09,8c-.38.64-.76,1.28-1.16,1.91-1.19,1.89-2.46,3.73-3.84,5.52l-.23.29-.19.22a.76.76,0,0,1-1,.2l-.32-.09a14.2,14.2,0,0,1-6.56-4.59,15.35,15.35,0,0,1-1.29-1.85,14,14,0,0,1-1.62-4,10.9,10.9,0,0,1-.28-2c0-.33,0-.66,0-1,0,0,0,0,0-.07a11.68,11.68,0,0,1,.56-2.75,1.86,1.86,0,0,1,1-1.19,2.25,2.25,0,0,1,.82-.22,60,60,0,0,1,7.13-.45,47.76,47.76,0,0,1,5.28.23c1.71.16,3.38.39,5,.63a1.86,1.86,0,0,1,.41.08C473.55,134.59,473.77,134.8,473.64,135.22Z" fill="#010000"/><path d="M419.9,167.15c2.14-1.71,4.66-3,6.35-5.22C424.29,163.86,421.48,164.76,419.9,167.15Z" fill="#010000"/><path d="M424.32,157.76a.78.78,0,0,0,.41-.82,15.77,15.77,0,0,0-5.79,5.41c-.4.64-.62,1.41-1.32,1.82a1.68,1.68,0,0,0,1.33-.85A16.15,16.15,0,0,1,424.32,157.76Z" fill="#010000"/><path d="M440.26,187.1l.43.05a2.37,2.37,0,0,1-.39.32c-.06,0-.18-.09-.27-.15Z" fill="#724d4d"/><path d="M418.64,168.65a.46.46,0,0,1-.35-.47A.42.42,0,0,1,418.64,168.65Z" fill="#0b0808"/><path d="M238.81,98.73a2.1,2.1,0,0,0-2.48.17,5.41,5.41,0,0,0-1.17,6.69,3.42,3.42,0,0,0,5.92-.13,4.19,4.19,0,0,0,.41-1.92A5.11,5.11,0,0,0,238.81,98.73Zm-1.57,4.62a.75.75,0,0,1-1.16-.38,10.47,10.47,0,0,1-.17-1,8.28,8.28,0,0,1,.28-1.17.9.9,0,0,1,.81-.55.86.86,0,0,1,.8.54A2.16,2.16,0,0,1,237.24,103.35Zm2.25,1.47c-.32.05-.63-.35-.66-.84v-.38c.1-.26.12-.55.45-.61a.57.57,0,0,1,.64.36,1.69,1.69,0,0,1,.19.56A.87.87,0,0,1,239.49,104.82Z" fill="#040303"/><path d="M441.34,160.3a8,8,0,0,1-4.13-1,7.32,7.32,0,0,1-3.39-9,9,9,0,0,1,12-5.12,7.38,7.38,0,0,1,3.58,10.35A9.08,9.08,0,0,1,441.34,160.3Z" fill="#040202"/><path d="M417.45,164.26c1.25-3.37,3.77-5.63,6.64-7.58a5.12,5.12,0,0,1,.75-.35.72.72,0,0,1,.92.2.76.76,0,0,1-.25,1.07c-.33.25-.69.45-1,.68a21,21,0,0,0-3.56,3.1,6.72,6.72,0,0,0-1.75,2.73c-.2.73-.64.78-1.4.31l-.35-.21Z" fill="#0e0a0a"/><path d="M419.73,167.38a1.15,1.15,0,0,1,.37-1.61,60.14,60.14,0,0,0,5.72-4.34c.38-.33.8-.56,1.29-.19.34.26.27.74-.2,1.24a5.51,5.51,0,0,1-.75.7c-1.66,1.21-3.32,2.41-5,3.63a2.76,2.76,0,0,1-1.51.51Z" fill="#141010"/><path d="M441.6,158.8c-3.36,0-5.7-1.73-6.49-4.44a5.71,5.71,0,0,1,.46-4.18,7.51,7.51,0,0,1,9.21-3.72,5.85,5.85,0,0,1,3.14,8.58A7.13,7.13,0,0,1,441.6,158.8Z" fill="#f38704"/></g></svg>