<svg id="Layer_1" data-name="Layer 1" xmlns="http://www.w3.org/2000/svg" viewBox="0 0 517 516"><title>Artboard 2 copy 19</title><g id="finding_employees_or_jobs" data-name="finding employees or jobs"><path d="M465.39,459.79a19.77,19.77,0,0,0-3-3.9,36.27,36.27,0,0,1-4-4.5c-2.43-3.47-4.82-7-7.06-10.56-8-12.79-13.78-26.59-18.55-40.84-2-5.84-3.68-11.76-5.49-17.66a74.78,74.78,0,0,0-2.77-7.68c-2.56-5.92-5.18-11.82-8.16-17.55a91.52,91.52,0,0,1-6.45-15.92c-1.17-3.91-2.4-7.81-3.6-11.71a178.83,178.83,0,0,1-5.54-21.22,53.64,53.64,0,0,1-1-6.16c-.18-3-.31-6-.63-9-.36-3.43-.26-6.89-.75-10.31-.59-4.12-1.12-8.25-2.09-12.3-2.31-9.55-5.15-19-8.25-28.27a78.61,78.61,0,0,0-9.28-19.33c-.75-1.1-1.4-2.09-.73-3.5a4.32,4.32,0,0,0,.14-1.7,35.56,35.56,0,0,0-.72-7.7c-.68-3.31-1.61-6.55-2.56-9.78a109.55,109.55,0,0,1-4.77-24.66,88.53,88.53,0,0,1,.39-15.7c.52-4.35,1.11-8.68,1.27-13.07a79.38,79.38,0,0,0-2.3-23.47,45.26,45.26,0,0,0-16.05-24.11c-4.3-3.45-9.27-5.69-14.32-7.76a11.64,11.64,0,0,0-1.65-.5,71.36,71.36,0,0,0-16.56-2.46,58.37,58.37,0,0,0-12.87.88,60.66,60.66,0,0,0-17.71,6.45,24.49,24.49,0,0,0-6.48,4.94c-3.61,4-7.3,7.92-9.74,12.81a5.07,5.07,0,0,1-1.87,2.32l-1.32-.76c-4.76-2.66-9.46-5.42-14.28-8Q229.19,92.6,201.54,78.42c-7.15-3.65-14.37-7.18-21.37-11.1-3.07-1.72-6.09-3.51-9.16-5.22a10.35,10.35,0,0,1-2.25-1.6,9.22,9.22,0,0,0-8.51-2.56,17.1,17.1,0,0,0-5.79,2.22A28,28,0,0,0,148,65.5,47,47,0,0,0,136.1,91.26a26.23,26.23,0,0,0,.31,9.22,14.86,14.86,0,0,0,2.56,5.87,9.12,9.12,0,0,0,8.85,3.78,9.32,9.32,0,0,1,3.8.23l2.48.7c8.81,2.55,17.61,5.16,26.44,7.63,5.73,1.61,11.36,3.51,17.06,5.19a1.72,1.72,0,0,1,1.48,1.77,5.12,5.12,0,0,0,.12.64q.9,6.28,1.79,12.57c1,6.82,2,13.63,2.92,20.45a2,2,0,0,1-.07,1.53c-.46-.11-.92-.24-1.4-.34a7.54,7.54,0,0,0-5.58,1c-1.86,1.14-2.23,2.39-1.36,4.36.53,1.18,1.08,2.34,1.51,3.56,1.1,3.12,1.14,6.13-.82,9A11.27,11.27,0,0,0,194.1,186c-.35.21-.65.4-1,.57a21.15,21.15,0,0,0-3.6,2.34,6.76,6.76,0,0,0-2.35,4,17.6,17.6,0,0,0-.2,5.79,22,22,0,0,0,3.4,9.42c2.14,3.32,4.37,6.57,6.78,9.7.92,1.2,1.73,2.47,2.67,3.65a2.42,2.42,0,0,1,.43,2.76A20,20,0,0,0,199,232c.38,3.42.77,6.85,1.27,10.25a20,20,0,0,0,5,11.24c.1.11.16.24.26.34a1.83,1.83,0,0,1,.35,2.47,22.85,22.85,0,0,0-2,4.76c-.66,2.2-1.49,4.33-2.35,6.46-1.41,3.53-2.78,7.08-4.19,10.6q-7.24,18.07-13.73,36.42c-2.34,6.62-5,13.11-7.56,19.67-4.1,10.71-8.05,21.48-12.27,32.14-7.35,18.61-14.56,37.25-21.17,56.14-5.13,14.68-10.32,29.34-15,44.17A171.45,171.45,0,0,0,122,488.29a38.43,38.43,0,0,0-.64,8.57,10.35,10.35,0,0,0,3.28,7.48,4.28,4.28,0,0,0,5,.81,8.63,8.63,0,0,0,2-1.27,13.41,13.41,0,0,0,3.52-4.3c1.3-2.64,2.71-5.24,3.78-8,1.92-4.86,3.65-9.8,5.4-14.73.69-2,1.14-4,1.84-5.95,1.54-4.32,3.15-8.62,4.76-12.91,3-8,6.13-16.07,9.11-24.14,2.26-6.12,4.34-12.3,6.56-18.44,3.5-9.63,6.89-19.31,10.32-29,3.29-9.25,6.85-18.41,10.32-27.6,4.62-12.27,9.23-24.55,14.13-36.72,1-2.53,2-5.08,2.82-7.67,2.78-8.52,5.36-17.1,7.64-25.77.64-2.42,1.24-4.84,1.89-7.38a4.07,4.07,0,0,1,.66,2.17c.08.64.14,1.29.22,1.93l2,14.93q1,7.36,2,14.73t1.91,14.51c.64,4.84,1.26,9.68,1.9,14.51q1,7.47,2,14.94.94,7.26,1.91,14.51l1.95,14.72c.64,4.84,1.26,9.68,1.9,14.52s1.32,9.81,2,14.72,1.25,9.68,1.89,14.51q1.22,9.18,2.44,18.36c0,.35.06.71.13,1.06.19.89.6,1.17,1.56,1,.54-.09,1.08-.26,1.77-.43a18.47,18.47,0,0,1-.19,2.84,34.34,34.34,0,0,0-.25,4.3A55.28,55.28,0,0,0,241.2,473a17,17,0,0,0,2.34,5.29,27.45,27.45,0,0,0,19.7,12.51c2.07.29,4.15.36,6.22.52a149.12,149.12,0,0,0,17.43.52c5.74-.24,11.48-.46,17.21-.74,1.79-.1,3.57-.35,5.35-.61,2.91-.41,5.81-.9,8.72-1.31.92-.13,1.86-.12,2.79-.16a.68.68,0,0,1,.67.43c.15.33.31.65.45,1,1,2.29,2,4.59,3.06,6.88a36,36,0,0,0,5.06,8.47,10.37,10.37,0,0,0,2.88,2.56c1.94,1.07,3.6.36,4.08-1.8a9.58,9.58,0,0,0,.23-2.56,26,26,0,0,0-.47-3.62,41.75,41.75,0,0,0-4.05-11.08c-.29-.56-.59-1.12-1.08-2,1.14-.08,2-.18,2.84-.2a66.42,66.42,0,0,0,9-.57c1.27-.2,2.56-.33,3.84-.49,3.78-.45,7.58-.75,11.32-1.4a5.33,5.33,0,0,1,4.84,1.25,39.66,39.66,0,0,0,6.18,3.88,16.34,16.34,0,0,0,6.56,1.93c3.44.3,6.88.32,10.33.36a69.13,69.13,0,0,0,13.69-1.4c8.52-1.63,16.93-3.75,25.36-5.78a140.78,140.78,0,0,0,29.94-10.56,63.22,63.22,0,0,0,7.33-4.07,9.92,9.92,0,0,0,2.75-2.69,5.2,5.2,0,0,0,.91-3.46A9.77,9.77,0,0,0,465.39,459.79ZM364.83,205a7.25,7.25,0,0,1,1.74,2.95.63.63,0,0,1,.29.62.33.33,0,0,1,.1.36,1.16,1.16,0,0,1,.31.92c0,.2-.14.39-.39.37a.35.35,0,0,1-.37-.36.15.15,0,0,1-.09-.23v0a.7.7,0,0,1-.27-.62c-.6-1.14-1.21-2.28-1.81-3.43h0l0,0a1.5,1.5,0,0,1-.3-.4,37.56,37.56,0,0,0-7-7,3.8,3.8,0,0,1-1.3-.9,3,3,0,0,1-.4-.3l-.05,0-.87-.54a2.36,2.36,0,0,1-.36-.26.75.75,0,0,1-.62-.42.21.21,0,0,1-.28-.13.43.43,0,0,1-.46-.3l-.44-.22a.58.58,0,0,1-.34-.23,5.61,5.61,0,0,1-1.76-1h0a.46.46,0,0,1-.49-.3l-.43-.18h0a.33.33,0,0,1-.38-.25l-.5-.22a1.52,1.52,0,0,1-.34-.22l-.53-.25h0a.24.24,0,0,1-.3-.19l-.6-.3h0a.19.19,0,0,1-.25-.15,9.69,9.69,0,0,1-2.66-1.45,4.56,4.56,0,0,1-1.76-1.1l-.44-.24h0a.32.32,0,0,1-.32-.23,7.8,7.8,0,0,1-2.67-2.17h0a5.2,5.2,0,0,1-1.73-2.18.86.86,0,0,1-.23-.39.73.73,0,0,1-.24-.65h0c-.25-.37-.61-.75.07-1s.47.25.48.57a.51.51,0,0,0,.06.25.71.71,0,0,1-.06-.25c.11.22.22.44.32.66a.21.21,0,0,1,.11.27h0l.38.57,1.35,1.66,3,2.3a.48.48,0,0,1,.47.33,7.17,7.17,0,0,1,2.13,1.3h0a1,1,0,0,1,.82.45l0,0h0a.68.68,0,0,1,.64.39l.11,0,.08.1h0a.62.62,0,0,1,.6.34.18.18,0,0,1,.26.11h0a.56.56,0,0,1,.56.33.24.24,0,0,1,.31.12.53.53,0,0,1,.52.31.31.31,0,0,1,.35.15.47.47,0,0,1,.49.29l.38.16h0a.39.39,0,0,1,.43.29h0l.46.2a.57.57,0,0,1,.34.22,4.74,4.74,0,0,1,1.77,1,.42.42,0,0,1,.46.3l.44.23h0a.49.49,0,0,1,.33.23l.06,0a.6.6,0,0,1,.55.36.27.27,0,0,1,.31.17,2,2,0,0,1,.41.29l0,0a.6.6,0,0,1,.53.38.34.34,0,0,1,.35.19,1.31,1.31,0,0,1,.35.27,2.1,2.1,0,0,1,1.11.83c.12,0,.19,0,.21.13a3,3,0,0,1,.43.35l-.43-.35a.45.45,0,0,1,.43.35l0,0a.52.52,0,0,1,.48.39,19.56,19.56,0,0,1,5.55,5.66.39.39,0,0,1,.3.39A.28.28,0,0,1,364.83,205Zm-38.47,24.38a4.24,4.24,0,0,0,.72.47c3.25,1.65,5.46,4.38,7.42,7.31a11.9,11.9,0,0,1,1.61,7.86,47.94,47.94,0,0,1-1.69,8.2c-1.92,7.35-4.49,14.5-7,21.66-.11.34-.25.67-.36,1a1.51,1.51,0,0,1-1.23,1.06c-1.68.37-3.36.76-5,1.11-.78.16-1,0-1.11-.82-.22-1.92-.43-3.85-.56-5.78a152.8,152.8,0,0,1,.05-21.29c.59-8,1.28-16,2.38-24S324,210,325.4,202a51.94,51.94,0,0,0,1-12,6.65,6.65,0,0,1,3.81,3,23.74,23.74,0,0,1,2.75,6,62.47,62.47,0,0,1,2,9.68c.49,3.4.86,6.82,1.28,10.24,0,.35,0,.71.09,1.07a1,1,0,0,1-.43.92l-1.42,1c-2.32,1.56-4.65,3.1-7,4.67a7.75,7.75,0,0,0-1.33,1.08A1.14,1.14,0,0,0,326.36,229.35Zm-8.92,39.1c.12,2.65.42,5.29.65,7.93,0,.43.1.85.13,1.28,0,.69-.08.85-.81,1s-1.41.25-2.11.39c-7,1.39-14,2.5-21,3.67-4.73.8-9.52,1.22-14.18,2.39-.44-.42-.29-1-.31-1.41a116.26,116.26,0,0,1,.75-17.4c.89-7.12,1.93-14.21,3.21-21.26,1-5.29,2.18-10.53,3.23-15.8.92-4.64,1.91-9.26,3.2-13.81a52.15,52.15,0,0,1,1.91-5.78c.47,0,.59.26.77.48.39.51.77,1,1.2,1.52,4.22,4.88,10.09,6.46,16.36,4.41a29.26,29.26,0,0,0,9.92-5.88,22.54,22.54,0,0,1,2-1.7,3,3,0,0,1,0,1.77c-1,5.5-1.69,11-2.49,16.59-.65,4.54-1.14,9.11-1.54,13.68A205.21,205.21,0,0,0,317.44,268.45ZM262.69,325a84.49,84.49,0,0,1,.2-9.68,11,11,0,0,0,0-1.28.62.62,0,0,1,.63-.71,34.9,34.9,0,0,0,8.92-2.32c.33-.13.66-.24.87-.31.37.06.54.16.63.38s.24.52.34.79c2.74,7.77,5.91,15.39,8.37,23.27.73,2.32,1.45,4.65,2.21,7a32.82,32.82,0,0,0,5,10.18,1.4,1.4,0,0,1,.22,1.58c-.67,1.59-1.27,3.21-2,4.76a118.24,118.24,0,0,1-6.81,12.45c-.3.49-.63,1-1,1.42a.41.41,0,0,1-.7-.08q-.25-.47-.48-1l-10.83-23.9c-1.54-3.39-3.09-6.79-4.62-10.19a4.19,4.19,0,0,1-.58-2C263.3,331.86,262.77,328.43,262.69,325ZM284.57,335c-.53-.22-.59-.69-.71-1.06-2.32-7.52-5.45-14.75-8-22.17-.67-1.91-.72-1.8,1.18-2.14a23.14,23.14,0,0,1,7.05,0,.92.92,0,0,1,.82.84c.23,1,.47,2,.61,2.94a56.08,56.08,0,0,1-.26,18C285,332.63,284.79,333.83,284.57,335Zm-3.68-27a19.94,19.94,0,0,0-6.36.75c-2.76.77-5.42,1.88-8.23,2.47a17.16,17.16,0,0,1-6,.42,12.12,12.12,0,0,0-6.9,1.17,63.6,63.6,0,0,0-8.11,4.42,4.14,4.14,0,0,1-2.62.77,1.33,1.33,0,0,1-1.26-1,4.41,4.41,0,0,1,1.39-4.67,18.3,18.3,0,0,1,5.66-3c.54-.17,1.1-.31,1.66-.46a.67.67,0,0,0,.53-.79c-.08-.45-.48-.51-.83-.48a9.44,9.44,0,0,0-1.49.24,13.77,13.77,0,0,0-5.61,3.06c-.59.52-1.2,1-1.78,1.57a4.78,4.78,0,0,1-2.07,1.1,2.25,2.25,0,0,1-2.91-2.9,6.07,6.07,0,0,1,.76-1.53,11.67,11.67,0,0,1,3.3-3.34c2.67-1.84,5.52-3.34,8.3-5,.73-.44,1.47-.89,2.18-1.36a.56.56,0,0,0,.14-.77.62.62,0,0,0-.76-.23,1.46,1.46,0,0,0-.39.16c-2.75,1.54-5.51,3.08-8.24,4.64a16.66,16.66,0,0,0-6,5.41,2.5,2.5,0,0,1-3.88-.1,1.73,1.73,0,0,1-.2-.81,3.55,3.55,0,0,1,.48-1.85c.76-1.39,1.5-2.78,2.24-4.17a5,5,0,0,1,3-2.61c4.12-1.18,7.68-3.47,11.37-5.52a3.88,3.88,0,0,0,.87-.61.78.78,0,0,0,.07-.59.39.39,0,0,0-.49-.29c-1.57.66-3.25.28-4.87.54a36.78,36.78,0,0,0-6.19,1.77c-2.37.82-4.72,1.7-7.07,2.55a6.36,6.36,0,0,1-1,.3c-1,.17-1.63-.51-1.46-1.54a3.33,3.33,0,0,1,.62-1.35,7.94,7.94,0,0,1,2.48-2.35,43,43,0,0,1,4.13-2.31c3.14-1.4,6.34-2.67,9.52-4a21.33,21.33,0,0,1,11.19-1.21,61.23,61.23,0,0,1,9.4,2.24c3.91,1.17,7.84,2.29,11.86,3.07a1.79,1.79,0,0,1,1.46,1,10.82,10.82,0,0,1,1,2.59,95.32,95.32,0,0,0,3.38,11.1,11.44,11.44,0,0,1,1,3.6Zm-19.47,21.53c0,.63.67,1.43-.48,1.73l-6.72-14.83c-.2-.46-.41-.91-.61-1.37a.64.64,0,0,1,.37-.88,10,10,0,0,1,3.25-1c.14,0,.28,0,.43,0,4.11,0,3.88-.46,3.68,3.55A114.94,114.94,0,0,0,261.42,329.59Zm.7,30.44c-.59,8-1.13,15.9-1.7,23.84-.53,7.3-1.08,14.6-1.59,21.9a4.27,4.27,0,0,1-.72,2.21,100.86,100.86,0,0,0-8.51,15.66c-1.08,2.42-2.42,4.72-3.33,7.22-1.18.08-.31-1-.79-1.36-.37-3.28-.73-6.56-1.12-9.84-.5-4.13-1-8.26-1.52-12.39s-1-8.4-1.55-12.6-1-8.12-1.48-12.18-1-8.4-1.55-12.6c-.49-4-1-8-1.45-12-.52-4.27-1.06-8.54-1.58-12.81q-.73-6.09-1.46-12.18c-.5-4.13-1-8.26-1.53-12.39-.33-2.71-.66-5.41-1-8.12a2.74,2.74,0,0,1,.06-1.74,8.37,8.37,0,0,0,2.77.38c.3.93.26,1.91.88,2.64a4.42,4.42,0,0,0,2.15,1.35,6,6,0,0,0,2.82-.13,3.1,3.1,0,0,1,.25,1.65c.15,2.46,1.22,3.3,3.64,2.86l.91-.17a4.31,4.31,0,0,1,.44.7c3.07,8.51,7.14,16.58,10.81,24.84q2.75,6.18,5.6,12.33A5.68,5.68,0,0,1,262.12,360Zm1,6.73c.1-1.43.27-2.85.42-4.28,0,0,.09-.06.14-.09.42.2.52.63.69,1l8.7,19.17c.15.33.27.66.42,1a1.06,1.06,0,0,1-.07,1c-.14.25-.28.51-.44.74-3.13,4.37-5.93,9-8.84,13.48-.89,1.38-1.88,2.71-2.82,4.06-1.18-.51-.5-1.44-.5-2.22.25-3.79.49-7.58.75-11.37.16-2.36.36-4.71.52-7.07C262.47,377.05,262.8,371.9,263.15,366.76Zm-32.46-62.13a.33.33,0,0,1-.61-.12c-.28-1.68-.55-3.37-.79-4.87,0-.52.14-.76.43-.83,1.81-.43,3.45-1.33,5.21-1.89.27-.08.55-.15.83-.21s.51.1.63.41.1.58-.22.71c-2.15.83-3.33,2.56-4.25,4.56C231.57,303.16,231.12,303.89,230.69,304.63Zm7.45-8.79a6,6,0,0,1,.8-.3l4.29-1.3c.44-.14.54.07.48.45-1.15.57-2.29,1.15-3.45,1.69-.52.24-1.07.4-1.6.61a.61.61,0,0,1-.87-.32C237.57,296.26,237.77,296,238.14,295.84Zm-10.33-5.3q-1.5-9.33-3-18.64c-.07-.43-.09-.86-.13-1.28s-.34-1,.49-.89a87.38,87.38,0,0,1,4.15,8.94c1.21,3.21,2.44,6.41,3.66,9.61.33.85.32.9-.48,1.32a17.48,17.48,0,0,0-4.11,2.84A4.38,4.38,0,0,1,227.81,290.54ZM222.06,229c-.45-2.32-1-4.61-1.53-6.91-.47-2.13-.41-2.3,1.32-3.6.86-.65,1.71-1.31,2.59-1.93a15.59,15.59,0,0,0,2.22-2.23c.59,0,.77.47,1,.8a20.49,20.49,0,0,1,4.48,10.07c.54,3.75,1.33,7.47,1.21,11.29a21.25,21.25,0,0,1-.86,5.5,11.5,11.5,0,0,1-.62,1.6c-.22.44-.52.85-.84,1.37-.8-.37-1.05-1-1.47-1.48a8.41,8.41,0,0,0-4.57-3,1.38,1.38,0,0,1-1.17-1.31C223.28,235.73,222.7,232.34,222.06,229Zm-.48,11.5a35,35,0,0,0-5.61,2.8c-.48-.38-.42-.92-.51-1.35-.88-4.14-1.73-8.28-2.58-12.42,0-.21-.11-.42-.14-.63a5.92,5.92,0,0,1-.21-2.1c.21-.77,1.21-.62,1.83-.91a12.14,12.14,0,0,0,3.56-2.38,12.9,12.9,0,0,0,1-1.26c.29.42.48.58.52.77.43,2,.88,4.06,1.25,6.11.59,3.39,1.13,6.79,1.68,10.18C222.47,240.11,222.46,240.1,221.58,240.47Zm11.61,3.84a15.19,15.19,0,0,0,1-2.83,24.77,24.77,0,0,0,.63-7.68,90.14,90.14,0,0,0-1.47-10.22,18.56,18.56,0,0,0-2.63-6.54c-.55-.84-1.12-1.68-1.74-2.46a6.58,6.58,0,0,1-1.93-3.72,6.63,6.63,0,0,0-.9-2.17c-.38-.77-.77-1.54-1.19-2.29a1.09,1.09,0,0,1,.07-1.38,6,6,0,0,0,1.16-2.28c.37-1.24.42-1.26,1.59-1.21a17.52,17.52,0,0,1,1.93.17,7.25,7.25,0,0,1,5.35,3.57,46.67,46.67,0,0,1,4.73,11.27,127,127,0,0,1,4,19.81,110.26,110.26,0,0,1,.81,16.75,47.72,47.72,0,0,1-.64,6.2,6.22,6.22,0,0,0-.1,1.05.66.66,0,0,0,.56.58.59.59,0,0,0,.7-.37,6.42,6.42,0,0,0,.35-1.23,58.77,58.77,0,0,0,.66-13.51A113.34,113.34,0,0,0,245,234c-.36-2.27-.72-4.53-1.09-6.8-.08-.49-.18-1-.26-1.48a.84.84,0,0,1,.55-1c.39-.17.78-.35,1.18-.5a103.68,103.68,0,0,0,16.13-8.13c6.05-3.58,11.87-7.53,17.72-11.43.65-.44,1.33-.83,2-1.25a.36.36,0,0,1,.1-.13c.1-.11.19-.22.28-.34a1.12,1.12,0,0,1,.8-.57.59.59,0,0,1,.34.12s0,.14,0,.2a1.18,1.18,0,0,1-.72.68h-.45c-.21.89-.95,1.41-1.49,2.05a99.9,99.9,0,0,0-13.21,20.09,10.92,10.92,0,0,0-.73,1.78.81.81,0,0,0,.58,1,8.16,8.16,0,0,0,1.68.32c1.36.11,2.73.16,4.09.26.26,0,.6-.11.76.22s-.17.65-.4.88a57.12,57.12,0,0,0-5.11,6.1,36.49,36.49,0,0,0-6.57,13.44,27.79,27.79,0,0,0-.81,8.32c.15,2.5.4,5,.67,7.5.33,3.06.77,6.12,1.09,9.18a36.52,36.52,0,0,0,2.1,9.64,1.84,1.84,0,0,1,.06.41c-.3.33-.66.22-1,.11a42.67,42.67,0,0,0-10.57-1.83,14.76,14.76,0,0,0-4.49.41,19.48,19.48,0,0,0-2.48.71c-1.63.61-1.57.41-2-1.14-1.11-4-2.44-8-3.38-12a22.32,22.32,0,0,0-1.1-3.26c-2.36-5.85-4.45-11.81-6.38-17.81a1.66,1.66,0,0,0-.06-.21l-1-2.83C232.29,245.93,232.81,245.15,233.19,244.31ZM220.58,193.5a4.84,4.84,0,0,0-2.4-4.09,1.71,1.71,0,0,1-.93-1.51c-.5-4.27-1.05-8.54-1.58-12.81q-.76-6.09-1.52-12.17c-.5-4-1-8-1.48-12s-1-8.25-1.53-12.38q-.62-5-1.21-10A2.39,2.39,0,0,1,210,128a3.18,3.18,0,0,1,1.71.27c5.08,1.49,10.07,3.26,15.09,4.95,8.41,2.85,16.83,5.67,25.23,8.55,3.52,1.2,7,2.52,10.51,3.78.27.1.55.17.81.28.64.26.77.49.5,1.15a23.68,23.68,0,0,0-1.58,11,56,56,0,0,0,1.44,7.82c1.12,4.67,2.29,9.33,3.4,14,.72,3,1.07,6.07,1.58,9.11a47,47,0,0,1-.06,13.29,17.27,17.27,0,0,0,.29,6.83.75.75,0,0,1-.4.9l-.72.47a172.93,172.93,0,0,1-15.95,9.33,69.39,69.39,0,0,1-7.88,3.41c-.66.23-.91.1-1.06-.6a86,86,0,0,0-2.65-9.52,54.57,54.57,0,0,0-3.55-8.29,8.72,8.72,0,0,0-7.27-4.66c-1.07-.1-2.15,0-3.22,0-1.94-3.21-2.22-3.41-5.64-4.15C220.59,195.05,220.64,194.27,220.58,193.5ZM273,172.34h0a31.55,31.55,0,0,1,2.1,4.34,6.26,6.26,0,0,1,1,2.08,17.12,17.12,0,0,1,2.51,7.6h0a7.62,7.62,0,0,1,0,4.7l-.11,1.12a1.92,1.92,0,0,1-.31,1.47l-.12.69a1.07,1.07,0,0,1-.34.95.27.27,0,0,1-.11.34c0,.26-.09.39-.36.38-.55,0-.59-.16-.3-.84h0l.24-.54.15-.75a1.39,1.39,0,0,1,.28-1c0-.37.08-.75.13-1.12a3.5,3.5,0,0,1,.3-2v-2.14h0a4.12,4.12,0,0,1-.31-1.9,47.35,47.35,0,0,0-2.16-6.48.34.34,0,0,1-.13-.38,3.22,3.22,0,0,1-.86-1.64,14.4,14.4,0,0,1-2-4,49.84,49.84,0,0,1-3.48-9.45,16.11,16.11,0,0,1-.92-4.18h0a2.68,2.68,0,0,1-.34-1.89,7.49,7.49,0,0,1-.08-3.16c.09-.36.37-.31.55,0a19,19,0,0,1,.31,3.61c.05.34.09.69.14,1h0a1.25,1.25,0,0,1,.29,1.1A116.12,116.12,0,0,0,273,172.34Zm5.36,102.34a77.26,77.26,0,0,0,.05,10.32,1.68,1.68,0,0,1-.3,1.41,2.75,2.75,0,0,0-.53,1.61.43.43,0,0,1-.47.34,7.89,7.89,0,0,1-1.28-.18c-2.76-.74-5.52-1.51-8.3-2.24a2.25,2.25,0,0,1-1.62-1.48A35.53,35.53,0,0,1,263.56,274c-.49-4.49-.94-9-1.51-13.47a30.38,30.38,0,0,1,4.69-20.33,52,52,0,0,1,8.05-10.06,16.66,16.66,0,0,0,1.44-1.59.76.76,0,0,0-.5-1.17,7.51,7.51,0,0,0-1.5,0A26.81,26.81,0,0,1,268,227c-.12-.58.23-1,.45-1.41a96.41,96.41,0,0,1,16.89-23.76,49.53,49.53,0,0,1,7.51-6.43,19.06,19.06,0,0,1,4.88-2.59c.32.39.1.7-.06,1-1,2-2.1,4.07-3.12,6.12a94.75,94.75,0,0,0-7.78,22.95c-1.58,7.43-3.16,14.87-4.57,22.34-1,5.07-1.6,10.2-2.39,15.3A139.31,139.31,0,0,0,278.36,274.68Zm11.37-82.56c.58-1.05,1.15-2.1,1.73-3.14a4.57,4.57,0,0,1,.42-.71.32.32,0,0,1,.59.19,1.28,1.28,0,0,1-.06.62,9.64,9.64,0,0,1-2.17,3.57,1.76,1.76,0,0,1-1.35.93.79.79,0,0,1-.58-.18c-.15-.16,0-.4.15-.52l1.27-.76Zm41.42-16a10.06,10.06,0,0,1-2.95,2.79q-1,.76-2,1.59a7.29,7.29,0,0,0-1.54,1.78c-1.31,2-1.6,4.14-.24,6.25a5,5,0,0,1,.64,2.24,23.27,23.27,0,0,1-.31,4.93c-.3,2.93-.73,5.84-1.26,8.73a2.73,2.73,0,0,1-.76,1.5,36.67,36.67,0,0,1-9.08,7.17,20.21,20.21,0,0,1-5.84,2.1,12.51,12.51,0,0,1-11-3,18.28,18.28,0,0,1-3.18-3.77,2,2,0,0,1-.17-2.2c1.33-3.09,2.76-6.15,4.35-9.12a44.25,44.25,0,0,0,3.34-7.9c0-.14.1-.27.13-.41.54-2.14.1-2.24-1.63-2.62-9.8-2.14-16.69-8-20.92-17a34.76,34.76,0,0,1-2.82-19.76c.06-.42.12-.85.16-1.28a3.7,3.7,0,0,1,1.08-2.27,26.58,26.58,0,0,0,6.67-14.19c.19-1.2.28-2.42.36-3.64a8.65,8.65,0,0,0-.64-4,2.12,2.12,0,0,1,.16-2,15.94,15.94,0,0,1,2.94-4c1.9-2,3.92-3.78,6-5.8a28.55,28.55,0,0,0,2.84,3.62,23.64,23.64,0,0,0,6.12,4.34c1.55.76,3.12,1.46,4.71,2.12a65.43,65.43,0,0,1,14.76,8.32,38.27,38.27,0,0,1,5.78,5.46,19.78,19.78,0,0,1,3.89,7.6,44.46,44.46,0,0,1,1.21,6.77,26.43,26.43,0,0,1,.38,6.22,2.31,2.31,0,0,0,.05.64.68.68,0,0,0,.54.59.64.64,0,0,0,.71-.37c.19-.46.29-1,.48-1.42a8.1,8.1,0,0,1,4.34-4.54c2.49-1.1,4.52-.35,5.73,2.08a13,13,0,0,1,1.17,4.56,25.73,25.73,0,0,1-1.57,11.85,20.14,20.14,0,0,1-.87,2,7,7,0,0,1-7.11,3.87,25,25,0,0,1-3-.49A1.41,1.41,0,0,0,331.15,176.09Zm30.1,10a1.51,1.51,0,0,1,.08.61.17.17,0,0,1-.12.16c-.12,0-.32.08-.37,0a4.58,4.58,0,0,1-.74-1,19.12,19.12,0,0,1-1.86-6.49A2.08,2.08,0,0,1,358,178a18.63,18.63,0,0,1-.17-4.6c0-.3.16-.51.51-.5.1.08.3.15.3.24.05,1.47.07,3,.09,4.43.05.36.09.72.13,1.08h0a1.29,1.29,0,0,1,.26,1.07A27,27,0,0,0,361.25,186.1ZM322.12,94.83c.4-.08.6.23.85.45a1.63,1.63,0,0,0,.51.34l-.51-.34a.57.57,0,0,1,.51.34.32.32,0,0,1,.34.17h0l.43.29h0a.71.71,0,0,1,.62.38l3.65,1.8h0a.72.72,0,0,1,.69.37l.1,0,.08.09h0a1.1,1.1,0,0,1,.91.4l.41.14a.49.49,0,0,1,.51.27.3.3,0,0,1,.34.11.61.61,0,0,1,.6.31.17.17,0,0,1,.25.08h0a1.08,1.08,0,0,1,.87.39,17.5,17.5,0,0,1,3.87,1.74h0a1,1,0,0,1,.89.4h0l.45.16h0a.43.43,0,0,1,.45.26l.4.14h0a.46.46,0,0,1,.49.28.33.33,0,0,1,.36.13.48.48,0,0,1,.52.3.3.3,0,0,1,.34.13.47.47,0,0,1,.51.3.33.33,0,0,1,.36.15.45.45,0,0,1,.47.29l.4.18h0c.22,0,.33.09.41.27l0,0h0a1.13,1.13,0,0,1,.84.45.54.54,0,0,1,.53.35.34.34,0,0,1,.34.17.35.35,0,0,1,.41.29,7.54,7.54,0,0,1,2.17,1.44.33.33,0,0,1,.38.3l0,0a.52.52,0,0,1,.5.38h0a17.66,17.66,0,0,1,4.7,4.7,4.09,4.09,0,0,1,1.3,1.7,4.16,4.16,0,0,1,1.23,1.83,24.43,24.43,0,0,1,4,11h0a3.07,3.07,0,0,1,.32,1.95c0,.51.07,1,.1,1.52h0a13.64,13.64,0,0,1,.32,4.5,13.35,13.35,0,0,1,0,3q.06,5.52.11,11h0a7.28,7.28,0,0,1,.3,2.74c.16,1.15.31,2.3.46,3.45a11,11,0,0,1,.52,2.89h0a1.93,1.93,0,0,1,.35,1.41c.57,1.87,1.15,3.74,1.72,5.61a.26.26,0,0,1,.12.3,1.48,1.48,0,0,1,.29.26c.43.83.45,1.15.07,1.18-.63.05-.75-.43-.84-.9a.26.26,0,0,1-.12-.3h0a4.75,4.75,0,0,1-1.05-2.26,15.75,15.75,0,0,1-1-3.89h0c-.05-.22-.09-.44-.13-.67h0a1.18,1.18,0,0,1-.27-1.05c-.06-.38-.11-.75-.16-1.13a14.54,14.54,0,0,1-.73-4.48l-.12-1.57h0a9.22,9.22,0,0,1-.25-1.25,94.52,94.52,0,0,1-.05-9.67l-.12-7.52h0v0a2,2,0,0,1-.09-.33,7.21,7.21,0,0,1-.21-2.45h0c0-.52-.09-1-.13-1.55h0a2.17,2.17,0,0,1-.3-1.47,36.55,36.55,0,0,0-3.6-9.77,5.34,5.34,0,0,1-1.24-1.84,6.22,6.22,0,0,1-1.28-1.73,60.58,60.58,0,0,0-4.76-4.72.57.57,0,0,1-.5-.41.32.32,0,0,1-.33-.19h0a.36.36,0,0,1-.37-.29l-.09,0a.41.41,0,0,1-.45-.33l-.8-.52h0a.5.5,0,0,1-.5-.34l-.38-.2h0a.38.38,0,0,1-.39-.27l-.06,0a.56.56,0,0,1-.56-.35.88.88,0,0,1-.77-.45l-.41-.18a.33.33,0,0,1-.38-.24l-.5-.23h0a.72.72,0,0,1-.33-.21l-.54-.24h0a.27.27,0,0,1-.32-.19l-.54-.22a1.2,1.2,0,0,1-.34-.21l-.5-.19h0a.35.35,0,0,1-.4-.23l-.45-.16a.42.42,0,0,1-.46-.26,67.58,67.58,0,0,1-6.48-2.83h0c-.17.05-.27,0-.33-.19l-.46-.16a.5.5,0,0,1-.52-.28h-.18l-.13-.11h0a28.56,28.56,0,0,1-6.08-3.1h0c-.11-.09-.23-.17-.35-.25a1.75,1.75,0,0,1-.91-.57.53.53,0,0,1-.4-.55C321.72,94.84,321.92,94.78,322.12,94.83Zm-16.77,10.09.39.68a3.24,3.24,0,0,1,.88,1.22l4.74,4.75,2.59,1.85a.39.39,0,0,1,.41.3h0l.1.15s-.08-.08-.1-.15a.48.48,0,0,1,.5.35h0a3.3,3.3,0,0,1,1.58,1h0a.67.67,0,0,1,.6.38,14.69,14.69,0,0,1,3.27,1.86.45.45,0,0,1,.46.3l.43.23a.42.42,0,0,1,.34.23l.06,0a.55.55,0,0,1,.54.35.32.32,0,0,1,.34.17.36.36,0,0,1,.41.28,14.9,14.9,0,0,1,3.47,2.34.31.31,0,0,1,.33.27l.08.06a1.63,1.63,0,0,1,.95.76h0a.63.63,0,0,1,.5.43h0a.25.25,0,0,1,.28.21.44.44,0,0,1,.31.28l.12.1a.36.36,0,0,1,.34.32l.09.08a2,2,0,0,1,.37.35c-.13-.11-.25-.23-.37-.35a.4.4,0,0,1,.37.35l.06.06a.41.41,0,0,1,.37.37l.06.06a.42.42,0,0,1,.37.38l.06.06a.4.4,0,0,1,.35.37l.07.09a.66.66,0,0,1,.31.35,27.18,27.18,0,0,1,5.63,10,3.33,3.33,0,0,1,.08.84,1.94,1.94,0,0,1,.17.6c0,.18-.13.47-.25.5-.41.11-.38-.26-.44-.52a32.29,32.29,0,0,0-2.92-6.65l-2.19-3.44a.4.4,0,0,1-.32-.38l-.1-.13a.29.29,0,0,1-.25-.29l-2.78-2.76a.46.46,0,0,1-.3-.26l-.1-.09a.5.5,0,0,1-.44-.36,1.73,1.73,0,0,1-1-.82.22.22,0,0,1-.27-.16h0a.4.4,0,0,1-.4-.31l-.07-.05a.43.43,0,0,1-.46-.35L323,119.76h0a.5.5,0,0,1-.5-.33l-.38-.2a.36.36,0,0,1-.39-.27l-.05,0a.56.56,0,0,1-.56-.35.26.26,0,0,1-.3-.14.4.4,0,0,1-.44-.3l-.45-.23a.54.54,0,0,1-.33-.22,25.61,25.61,0,0,1-3.93-2.28,1.61,1.61,0,0,1-.92-.58,2.82,2.82,0,0,1-1.26-.79.46.46,0,0,1-.34-.24,7,7,0,0,1-2.29-1.71,19.46,19.46,0,0,1-4.7-4.75,4,4,0,0,1-1.34-2h0c-.2-.25-.41-.49,0-.69h0c.25-.35.25-.35.44.06l.1.07,0,.12a.89.89,0,0,0,.08.29A1.23,1.23,0,0,1,305.35,104.92Zm-24.26,9.21h0a.45.45,0,0,1,.14-.35,13.16,13.16,0,0,1,2.21-4.35,2,2,0,0,1,.3-.4v0a.6.6,0,0,1,.39-.52h0a1.42,1.42,0,0,1,.59-.79,1.19,1.19,0,0,1,.31-.36l0-.07a.48.48,0,0,1,.37-.42,12.25,12.25,0,0,1,3-3,.49.49,0,0,1,.44-.38l0,0a.44.44,0,0,1,.4-.35l.09-.07a.74.74,0,0,1,.34-.29.24.24,0,0,1,.29-.19h0a2,2,0,0,1,1.06-.83,1.29,1.29,0,0,1,.37-.28.3.3,0,0,1,.33-.19,7.52,7.52,0,0,1,2.7-1.62,22.69,22.69,0,0,1,6.81-2.67,1.09,1.09,0,0,1,.94-.32l.71-.12h0a1.12,1.12,0,0,1,1-.28,6.26,6.26,0,0,1,1-.12c.26,0,.28.24.23.46-.13.42-.45.44-.8.39l-.81.12a1,1,0,0,1-.89.27l-.83.16a1,1,0,0,1-.92.33l-5.84,2.26h0a13.54,13.54,0,0,1-2.76,1.65h0l-.05,0a2.19,2.19,0,0,1-.39.29l-1.29.94-.1.07a.59.59,0,0,1-.32.26,61.23,61.23,0,0,0-4.91,4.89.67.67,0,0,1-.28.34l-.06.09a.47.47,0,0,1-.36.43v0h0a.62.62,0,0,1-.39.54.26.26,0,0,1-.17.3,4.15,4.15,0,0,1-.3.43l-2.1,4h0c0,.24-.09.48-.14.71s0,.45-.14.59a.37.37,0,0,1-.66-.11A1.24,1.24,0,0,1,281.09,114.13Zm-32.57-9.22c.41-.16.71.08,1,.24,8.45,4.4,16.85,8.9,24.92,14,1.28.8,2.49,1.7,3.77,2.49a1.78,1.78,0,0,1,.89,1.77,33.26,33.26,0,0,1-5.54,18,19.12,19.12,0,0,1-4.22,4,1.33,1.33,0,0,1-1.23.19c-.83-.2-1.67-.39-2.47-.67-6.42-2.25-12.83-4.53-19.25-6.76-3.58-1.25-7.19-2.42-10.79-3.63-.2-.06-.41-.11-.61-.18a.39.39,0,0,1-.15-.67c.68-.53,1.39-1,2-1.59a28.76,28.76,0,0,0,6-7.54,40.83,40.83,0,0,0,5.55-19A5.58,5.58,0,0,1,248.52,104.91ZM227.09,93.67c.47-.11.82.2,1.18.39q8.39,4.38,16.77,8.79c.31.16.62.36,1,.5a1.31,1.31,0,0,1,.81,1.37,30.67,30.67,0,0,1-.54,6.41,39.9,39.9,0,0,1-7.08,16.22,21.09,21.09,0,0,1-5.59,5.31,3,3,0,0,1-2.84.3c-6.75-2.4-13.56-4.61-20.41-6.73-.19-.06-.47-.09-.43-.37a.91.91,0,0,1,.32-.5c6.6-5.06,10.61-11.94,13.64-19.49a48.16,48.16,0,0,0,2.94-11.2A1.62,1.62,0,0,1,227.09,93.67Zm-80.11,15a7.71,7.71,0,0,1-7.09-3.68,14.56,14.56,0,0,1-2.2-6.23A33,33,0,0,1,139,85.1a45.88,45.88,0,0,1,9.73-18,26.76,26.76,0,0,1,7.1-5.87,13.42,13.42,0,0,1,5.68-1.82,7.84,7.84,0,0,1,7.7,4.13,16.72,16.72,0,0,1,2.1,7.38c.06.71,0,1.43,0,2.15a38.32,38.32,0,0,1-3.08,14.63,43.43,43.43,0,0,1-10,15.17,24.18,24.18,0,0,1-5.71,4.18A13.07,13.07,0,0,1,147,108.62Zm19.8,4.64c-3-.89-6-1.82-9.06-2.71-1.51-.44-3-.83-4.55-1.26a.44.44,0,0,1-.26-.3.5.5,0,0,1,.15-.34,1.48,1.48,0,0,1,.36-.23,31.55,31.55,0,0,0,10-9,47.75,47.75,0,0,0,9.07-21.13A26.47,26.47,0,0,0,171.25,64c1.5.84,2.6,1.38,3.61,2,3.32,2.13,6.81,4,10.3,5.8.51.27,1,.59,1.52.81a1.87,1.87,0,0,1,1.07,1.69,37.25,37.25,0,0,1,.25,9A39,39,0,0,1,183.82,98a38,38,0,0,1-13.66,14.87C168.63,113.78,168.62,113.8,166.78,113.26Zm24.55,7c-6.38-1.91-12.79-3.74-19.19-5.61l-.62-.16a.38.38,0,0,1-.14-.66c.4-.3.82-.57,1.23-.86a39.55,39.55,0,0,0,16.68-27.31,32.8,32.8,0,0,0,.26-9.23c-.09-.71-.1-1.42-.15-2.14a4.12,4.12,0,0,1,2.24.83Q204,81.45,216.32,87.8c2.68,1.37,5.36,2.75,8.05,4.09a1.48,1.48,0,0,1,.93,1.69,42.38,42.38,0,0,1-2.67,11,48.75,48.75,0,0,1-9.08,15.51,26.53,26.53,0,0,1-4.82,4.28,3,3,0,0,1-2.83.41C201.06,123.28,196.21,121.74,191.33,120.29Zm11.8,22.84c-.78-5.47-1.59-10.93-2.38-16.39a2.56,2.56,0,0,1,.07-1.8l6.52,1.93a1,1,0,0,1,.77.93c.17,1.35.37,2.7.53,4,.64,5.2,1.26,10.4,1.9,15.59s1.31,10.39,2,15.59q.73,5.86,1.45,11.74l.93,7.48a3.59,3.59,0,0,1,.34,2.59c-.11.2-.21.21-.31,0,0-.63-.59-1.13-.44-1.8a4.64,4.64,0,0,0-1.15-1.79,4.15,4.15,0,0,0-3.67-1.41c-.35,0-.7.11-1.13.18a12.84,12.84,0,0,1-.22-6.37A12.11,12.11,0,0,0,206.34,163a3.36,3.36,0,0,1-.6-1.57Q204.45,152.29,203.13,143.13ZM196.41,181a14.54,14.54,0,0,1,1.24-2.25,9.86,9.86,0,0,0,1-8.84,38.63,38.63,0,0,0-1.82-4.58c-.58-1.25-.38-2,.85-2.64,2.53-1.36,5.82-1.39,7.92,1.81a10.85,10.85,0,0,1,1.6,6.57,12.1,12.1,0,0,1-.47,3c-.29,1-.43,2-.66,2.93a5.52,5.52,0,0,0,0,3.17.59.59,0,0,1-.37.85c-3.43,1.24-6.72,2.79-10.26,4.4A7.79,7.79,0,0,1,196.41,181Zm1.28,35.12c-2.23-2.9-4.25-6-6.24-9a20.85,20.85,0,0,1-3.17-9.93,13.42,13.42,0,0,1,.44-4.27,5.63,5.63,0,0,1,2.28-3.3,22.54,22.54,0,0,1,2.73-1.69A114.53,114.53,0,0,1,207.12,182a9.61,9.61,0,0,1,2.91-.7,2.8,2.8,0,0,1,2.43,1.14,5.58,5.58,0,0,1,1,4.89,1.2,1.2,0,0,1-1,.95C207.47,189.6,203,192,198.29,194c-.95.41-1.34,1-1,1.36.55.59,1,0,1.55-.15,3.92-1.57,7.71-3.47,11.72-4.83.54-.18,1.08-.38,1.63-.55a6.45,6.45,0,0,1,5.35.86,3.41,3.41,0,0,1,1.58,2.46,6.46,6.46,0,0,1,.08,1.08c0,2.11,0,2.05-1.87,3.1-3.19,1.78-6.35,3.63-9.5,5.48-1,.58-1.26,1.1-.9,1.39.6.49,1.05,0,1.54-.25,2.74-1.57,5.47-3.14,8.23-4.68a14.78,14.78,0,0,1,3.3-1.53,3.35,3.35,0,0,1,4,1.29,3.93,3.93,0,0,1,.25,4.63,10.34,10.34,0,0,1-3.74,3.17c-1.47.75-2.94,1.5-4.39,2.28a7.85,7.85,0,0,0-2.27,1.6.62.62,0,0,0-.07.59.67.67,0,0,0,.5.32,1.46,1.46,0,0,0,.81-.17c2.09-1.42,4.4-2.41,6.6-3.62.62-.34,1.15-1.16,1.83-1s.85,1.22,1.21,1.89a24.69,24.69,0,0,1,1,2.36,2.35,2.35,0,0,1-.29,2.25,6.32,6.32,0,0,1-1.6,1.74l-2.38,1.84a9,9,0,0,0-2.67,3c-1.92,3.82-5.23,5.3-9.29,5.48a10.83,10.83,0,0,1-5.92-1.73,5.76,5.76,0,0,1-2.05-2.17A48.23,48.23,0,0,0,197.69,216.09Zm5.41,31.29a30.68,30.68,0,0,1-1.6-6.68c-.41-2.91-.75-5.83-1.14-8.74a11.87,11.87,0,0,1,.52-4.67,9.78,9.78,0,0,1,1-3,2,2,0,0,1,.52.21,11.4,11.4,0,0,0,7.64,2.39c.62,0,.95.19,1,.77.17,1,.29,2,.48,3,.85,4.29,1.7,8.58,2.59,12.86a1.6,1.6,0,0,1-.47,1.73,35.79,35.79,0,0,0-5.53,6.85,3.18,3.18,0,0,1-1,1.22A15.46,15.46,0,0,1,203.1,247.38Zm8.22,37.1c-1.65,6.84-3.71,13.55-5.68,20.3-2,7-4.49,13.75-7.18,20.48-3.53,8.85-6.9,17.77-10.28,26.69-3,7.77-5.71,15.61-8.74,23.35-4.92,12.56-9,25.41-13.69,38-3.11,8.32-6,16.74-9,25.08-2.33,6.33-4.8,12.59-7.18,18.9q-2.45,6.44-4.79,12.9c-.41,1.14-.69,2.33-1,3.5a4.41,4.41,0,0,1-.23.83c-1,1.86-1.25,3.94-2,5.86-1.2,3-2.27,6-3.37,9.07A81.85,81.85,0,0,1,133.7,499a11.41,11.41,0,0,1-3,3.62,8.68,8.68,0,0,1-1.42,1,2.73,2.73,0,0,1-3.7-.51,7.71,7.71,0,0,1-2.51-4.87c-.13-1.29-.17-2.58-.25-3.87A70.7,70.7,0,0,1,125,481.45c2.54-10.84,6.19-21.34,9.75-31.86,6.43-19,13.11-37.94,20.21-56.71,3.85-10.19,8-20.26,11.94-30.42,3.83-9.9,7.42-19.88,11.34-29.74,4.69-11.79,8.85-23.78,13.3-35.65,2.29-6.11,4.73-12.16,7.12-18.23,1.49-3.8,3-7.59,4.49-11.4.78-2,1.49-4,2.18-6.07a38.69,38.69,0,0,1,9.22-14.86,21,21,0,0,1,7.21-4.59,4.85,4.85,0,0,1,5.38,1.07,14.2,14.2,0,0,1,3.58,5c.31.72.57,1.47.81,2.22,1.92,6.09,4.09,12.08,6.45,18a53.24,53.24,0,0,1,2.44,8c.58,2.59,1.43,5.11,2.15,7.67.27,1,.26,1-.71,1.39l-6.5,2.85a.6.6,0,0,1-.88-.3c-.23-.52-.44-1.06-.64-1.59-1-2.54-2-5.07-2.93-7.63A96.42,96.42,0,0,0,226,267.92c-1.51-2.94-3-5.86-4.54-8.79a5,5,0,0,0-.87-1.47.7.7,0,0,0-1.11.12,6.49,6.49,0,0,0-.4,1A243,243,0,0,0,211.32,284.48Zm27.62,165.69c-.81.3-1.06.18-1.17-.63-.33-2.49-.64-5-1-7.47-.66-5-1.33-10-2-14.93l-1.89-14.3c-.66-5-1.34-10.1-2-15.15-.64-4.83-1.25-9.67-1.89-14.51s-1.31-9.81-2-14.72-1.27-9.67-1.91-14.51-1.26-9.67-1.9-14.51l-2-14.93q-1-7.36-2-14.72t-1.91-14.51q-.94-7.26-1.9-14.51c-.09-.64-.13-1.29-.27-1.92a8.82,8.82,0,0,1,.41-4.85c1.41-4.28,2.78-8.58,4.18-12.88.09-.26.21-.51.38-.91a11,11,0,0,1,1.92,4.12c.89,5.38,1.73,10.76,2.6,16.15.64,4,1.27,8.07,1.94,12.11a5.2,5.2,0,0,1-.06,3,2.28,2.28,0,0,0,.41,2.24,4.47,4.47,0,0,1,.81,2.17q1.54,9,2.58,18.1c.73,6.42,1.59,12.82,2.38,19.23.64,5.27,1.25,10.54,1.89,15.81s1.32,10.54,2,15.81c.49,4.06,1,8.12,1.46,12.18s1,8.26,1.53,12.39l1.47,12.18c.5,4.13,1,8.26,1.51,12.39.5,4.42,1.22,8.81,1.5,13.26a6.78,6.78,0,0,0,.13,1.28,9.62,9.62,0,0,1-.54,5.87c-1.08,3.19-2,6.43-3,9.66C240.29,449.64,240.33,449.65,238.94,450.17Zm79.69,37.55a50.54,50.54,0,0,0-7.47,1,85.38,85.38,0,0,1-12.85,1.17c-5.67.22-11.33.57-17,.51-4.6-.06-9.18-.39-13.76-.7a39.18,39.18,0,0,1-7.24-1,25.84,25.84,0,0,1-15.92-12,20.78,20.78,0,0,1-2.36-7.11,47.11,47.11,0,0,1,1.17-24.23c1.08-3.27,2.07-6.57,3.09-9.85a59.89,59.89,0,0,1,4.2-10.11c1-1.84,1.8-3.75,2.67-5.64a61.58,61.58,0,0,1,4-7.36c2.52-3.93,5-7.9,7.6-11.75,2.43-3.55,4.67-7.23,7-10.84.82-1.26,1.71-2.48,2.64-3.83a4.31,4.31,0,0,1,1.1,1.84q22.19,48.85,44.35,97.73C320.87,487.76,320.75,487.64,318.63,487.72Zm17,14.1c.14.84.21,1.7.26,2.07a6,6,0,0,1-.38,2.8,1,1,0,0,1-1.24.54,4.66,4.66,0,0,1-1.79-1.16,17.24,17.24,0,0,1-2.47-3,38.63,38.63,0,0,1-3.43-6.2q-6.63-14.7-13.26-29.39-31.75-70-63.51-140c-1.24-2.74-2.24-5.58-3.37-8.37a.76.76,0,0,1,.35-1.08c1.44-.81,2.86-1.64,4.31-2.42.74-.41.89-.34,1.27.5q3.92,8.61,7.82,17.23l69.56,153.3c.32.71.69,1.41,1.07,2.1A40.34,40.34,0,0,1,335.65,501.82Zm24.74-18.93a.39.39,0,0,1-.2.06c-1.14.15-2.27.31-3.41.45-4.42.51-8.84,1-13.25,1.55a111.16,111.16,0,0,1-11.81.67c-.75,0-1-.42-1.22-1q-3.18-7.07-6.38-14.1l-42.54-93.78a9,9,0,0,0-.54-1.18,1.23,1.23,0,0,1,.1-1.54c1.94-2.93,3.73-5.95,5.4-9a75.18,75.18,0,0,0,4.44-9.55c.14-.39.16-.86.59-1.11s.51.16.72.32a11,11,0,0,0,7.09,2,17.59,17.59,0,0,0,5.27-1,31.68,31.68,0,0,0,6.34-3.13,4.2,4.2,0,0,0,1.34-1.07.6.6,0,0,0,0-.78.64.64,0,0,0-.75-.27,9.49,9.49,0,0,0-1.1.67,34,34,0,0,1-5.72,2.95,16.05,16.05,0,0,1-6.75,1,8.38,8.38,0,0,1-6.06-2.85,24.06,24.06,0,0,1-4.55-7.77,2.74,2.74,0,0,1,.67.09,18.45,18.45,0,0,0,7.95,1.59l10.76.09,13.78.13,1.08,0a.66.66,0,0,1,.7.65c.06.57.1,1.14.14,1.71.43,7.82,1.26,15.59,2.38,23.33.65,4.39,1.61,8.74,2.48,13.1,1.34,6.75,2.71,13.49,4.49,20.14,2.73,10.18,5.8,20.25,9.05,30.27,2,6.27,3.94,12.59,6.14,18.8a141.71,141.71,0,0,0,13.06,27.3c.18.29.47.55.4.95A.65.65,0,0,1,360.39,482.89Zm102.47-14.41a21.07,21.07,0,0,1-3.28,2.07A120.61,120.61,0,0,1,437.45,480c-5.61,1.78-11.3,3.25-17,4.59-6.35,1.48-12.7,3-19.09,4.35a73.58,73.58,0,0,1-17.76,1.54c-1.79-.06-3.59-.07-5.38-.13a17.62,17.62,0,0,1-9.16-2.77c-1.14-.74-2.3-1.47-3.47-2.16A10.29,10.29,0,0,1,362,482a134.08,134.08,0,0,1-8.47-15.47,168.4,168.4,0,0,1-7.52-19.69c-3.14-10-6.51-19.91-9.42-30-2.07-7.16-4.17-14.33-5.68-21.64s-3-14.75-4.39-22.16c-.72-3.95-1.15-7.95-1.49-12-.28-3.29-.67-6.57-1-9.85-.12-1.22-.2-2.44-.25-3.65,0-.94.13-1.06,1.13-1.11h.22a114.56,114.56,0,0,0,23-2.89c2.86-.65,5.75-1.21,8.62-1.87a28.13,28.13,0,0,0,5.65-2.06c3.18-1.49,6.33-3,9.42-4.73a27,27,0,0,0,9.8-8.86c2-3.06,4.11-6.06,5.92-9.25.57-1,1-2,1.52-3.08a2.59,2.59,0,0,0,.18-1,.61.61,0,0,0-.34-.47.73.73,0,0,0-.59.08,2,2,0,0,0-.72,1,84.78,84.78,0,0,1-8.82,14,20.86,20.86,0,0,1-6.5,5.57A116.09,116.09,0,0,1,360,339.08a27.55,27.55,0,0,1-5.55,1.68c-4.77,1-9.56,2-14.36,2.83a77.1,77.1,0,0,1-7.9,1,83.75,83.75,0,0,1-9.89.47c-8.75-.38-17.51-.23-26.27-.28a16.07,16.07,0,0,1-4.48-.47,18.24,18.24,0,0,1-2.64-.9,4.89,4.89,0,0,1-3.17-5.12,51.47,51.47,0,0,1,.79-5.53,66.12,66.12,0,0,0,1.06-12.64,50.78,50.78,0,0,0-2.52-14.36c-.61-1.92-1.28-3.81-1.93-5.71a47.31,47.31,0,0,1-1.6-5.58,25.16,25.16,0,0,0-1.76-5.07c-.8-1.83-.61-2.27,1.25-2.8a33.85,33.85,0,0,1,4-.85c4.25-.68,8.51-1.28,12.76-2,6.51-1,13-2.27,19.49-3.48,3.38-.63,6.73-1.41,10.11-2.1a24.37,24.37,0,0,0,2.9-.79A16.61,16.61,0,0,0,341.11,267a30,30,0,0,0,1.67-7.1c.25-2.21.53-4.42.74-6.63a104.44,104.44,0,0,1,1.68-10.41,16.57,16.57,0,0,0,.24-2.34.48.48,0,0,0-.54-.52.8.8,0,0,0-.52.3,1.34,1.34,0,0,0-.24.59c-.61,3.38-1.53,6.71-1.89,10.15-.24,2.35-.51,4.71-.77,7.06a31.28,31.28,0,0,1-2.12,9.19,14.68,14.68,0,0,1-10.22,8.77c-.05,0-.13,0-.47-.13l3.57-10.24c1.85-5.36,3.35-10.82,4.72-16.32a23.87,23.87,0,0,0,.68-7,11.58,11.58,0,0,0-1.81-5.9A23.79,23.79,0,0,0,328,228.6c-.15-.58.35-.73.67-.95,2.44-1.65,4.89-3.27,7.34-4.9.36-.24.71-.5,1.08-.72a1.49,1.49,0,0,0,.79-1.62c-.26-2.35-.44-4.71-.76-7.06-.47-3.34-1-6.66-1.59-10a30.73,30.73,0,0,0-3.34-9.94c-.1-.19-.2-.38,0-.59s.38,0,.55.08c.5.29,1,.57,1.48.89A154.82,154.82,0,0,0,352,203.9a101.5,101.5,0,0,1,17,10.58,39.85,39.85,0,0,1,8.7,9.48,81.83,81.83,0,0,1,9.16,19.4c2.92,8.86,5.6,17.79,7.84,26.84.91,3.7,1.44,7.47,2,11.22.53,3.49.63,7,.86,10.52.19,2.79.5,5.57.67,8.36.5,8.08,2.5,15.86,4.8,23.57,2.14,7.14,4.35,14.27,6.58,21.38A78.9,78.9,0,0,0,415,357.91c2.86,5.55,5.39,11.25,7.91,17a132.14,132.14,0,0,1,4.77,14.06c1.7,5.4,3.21,10.87,5.16,16.19a208.07,208.07,0,0,0,13.43,30.27c3.28,5.82,6.93,11.4,10.77,16.87a36.91,36.91,0,0,0,3.38,3.9c.84.89,1.68,1.78,2.46,2.71a10,10,0,0,1,1.84,3.15C465.62,464.74,465.31,466.51,462.86,468.48Z"/><path d="M332.19,99.91a.58.58,0,0,1-.18,0A.58.58,0,0,0,332.19,99.91Z"/><path d="M324.9,96.47a.71.71,0,0,1-.27-.07A.57.57,0,0,0,324.9,96.47Z"/><path d="M345.4,190.46a1,1,0,0,0,.17.18A.59.59,0,0,1,345.4,190.46Z"/><path d="M346,190.85a.89.89,0,0,1-.29-.09A.66.66,0,0,0,346,190.85Z"/><path d="M346.84,191.25a.79.79,0,0,1-.22-.05A.54.54,0,0,0,346.84,191.25Z"/><path d="M314.88,114.08a.57.57,0,0,1-.27-.07A.38.38,0,0,0,314.88,114.08Z"/><path d="M331.55,127.1c-.11-.13-.22-.25-.32-.38l.32.38Z"/><path d="M324.43,96.26a.77.77,0,0,1-.15-.16Z"/><path d="M276.14,178.76h0Z"/><path d="M329.24,98.64a1.07,1.07,0,0,1-.27-.07A.6.6,0,0,0,329.24,98.64Z"/><path d="M305.49,165.37a4.43,4.43,0,0,0-2.09-.39c-1.86,0-3.72,0-5.58,0h0c-2,0-4,0-6,0a1.28,1.28,0,0,0-1.46,1.22,3.63,3.63,0,0,0,.13,1.7,31.11,31.11,0,0,0,4.48,8.75,4.52,4.52,0,0,0,1.61,1.39,2.47,2.47,0,0,0,3.15-.32,14.07,14.07,0,0,0,1.63-2c1-1.39,2-2.8,3-4.21.57-.82,1.17-1.63,1.69-2.48a5.41,5.41,0,0,0,.59-1.6A1.79,1.79,0,0,0,305.49,165.37Zm-1.36,3.83c-1.52,2.17-3,4.34-4.6,6.47-1.13,1.55-1.91,1.85-3.19.21a24,24,0,0,1-4.4-8.51,2.93,2.93,0,0,1,0-.78,1.4,1.4,0,0,1,1.07-.26c3.22,0,6.44,0,9.66.1.82,0,1.9-.19,2.3.67S304.57,168.57,304.13,169.2Z" fill="#050404"/><path d="M51.47,99.18c-.24,0-.46,0-.67-.05a.54.54,0,0,1-.52-.56.64.64,0,0,1,.48-.64c.77-.16,1.55-.3,2.33-.41,5.75-.78,11.51-1.54,17.27-2.33s11.5-1.63,17.26-2.42,11.52-1.54,17.27-2.33c3.63-.49,7.24-1,10.87-1.53.85-.11,1.71-.16,2.57-.19a.51.51,0,0,1,.51.56.79.79,0,0,1-.31.53,2,2,0,0,1-.79.25l-16,2.2c-4.69.64-9.37,1.32-14.06,2s-9.39,1.26-14.08,1.91-9.37,1.31-14.06,2C56.85,98.46,54.15,98.82,51.47,99.18Z" fill="#040303"/><path d="M97.36,7.14a1.27,1.27,0,0,1,.48.22c.39.42.74.88,1.09,1.33L132,51.4c.39.51.75,1,1.09,1.59a.58.58,0,0,1-.2.76.56.56,0,0,1-.77,0c-.49-.53-.94-1.08-1.38-1.65l-26.85-34.7L97.54,9.17a9.49,9.49,0,0,1-.8-1.25C96.59,7.64,97,7.1,97.36,7.14Z" fill="#040404"/><path d="M88.31,54.41c.44.12.93.23,1.41.37l26.73,8a3.21,3.21,0,0,1,1.38.55c.2.19.41.44.17.74-.13.15-.34.37-.49.35a10.42,10.42,0,0,1-1.66-.35q-7.3-2.18-14.6-4.39-6.06-1.81-12.13-3.66a6.42,6.42,0,0,1-1.2-.45.56.56,0,0,1-.28-.72A.7.7,0,0,1,88.31,54.41Z" fill="#080505"/><path d="M112.9,75.45q-7.08-.44-14.14-.9a1.89,1.89,0,0,1-.63-.1.69.69,0,0,1-.47-.65.54.54,0,0,1,.51-.57,10.59,10.59,0,0,1,1.49,0l11.79.74c1.07.06,2.14.11,3.21.18a6.78,6.78,0,0,1,1.28.14.66.66,0,0,1,.56.77c0,.37-.34.44-.61.48a3.42,3.42,0,0,1-.85,0l-2.14-.13Z" fill="#0c0707"/><path d="M120.56,56.13c-.09.27-.21.59-.55.55a2.7,2.7,0,0,1-1-.36q-2.88-1.86-5.74-3.75a3.33,3.33,0,0,1-.64-.55.58.58,0,0,1,0-.77.71.71,0,0,1,.75-.28.58.58,0,0,1,.18.11c2.22,1.44,4.43,2.87,6.64,4.32A.82.82,0,0,1,120.56,56.13Z" fill="#130e0e"/><path d="M328.67,276l3.57-10.24c1.85-5.36,3.35-10.82,4.72-16.32a23.87,23.87,0,0,0,.68-7,11.58,11.58,0,0,0-1.81-5.9A23.79,23.79,0,0,0,328,228.6c-.15-.58.35-.73.67-.95,2.44-1.65,4.89-3.27,7.34-4.9.36-.24.7-.5,1.08-.72a1.49,1.49,0,0,0,.79-1.62c-.26-2.35-.44-4.71-.77-7.06-.46-3.34-1-6.66-1.58-10a30.86,30.86,0,0,0-3.34-10c-.1-.18-.2-.37,0-.58s.38,0,.55.08c.5.29,1,.57,1.48.89A155.54,155.54,0,0,0,352,203.9a101.18,101.18,0,0,1,17,10.58,39.85,39.85,0,0,1,8.7,9.48,81.83,81.83,0,0,1,9.16,19.4c2.92,8.86,5.6,17.79,7.84,26.84.91,3.7,1.44,7.47,2,11.22.53,3.49.63,7,.86,10.52.19,2.79.5,5.57.67,8.36.5,8.08,2.5,15.86,4.8,23.57,2.14,7.14,4.35,14.27,6.58,21.38A79.81,79.81,0,0,0,415,357.91c2.86,5.55,5.39,11.25,7.91,17a132.14,132.14,0,0,1,4.77,14.06c1.7,5.4,3.21,10.87,5.16,16.19a208.07,208.07,0,0,0,13.43,30.27c3.28,5.82,6.93,11.4,10.77,16.87a36.91,36.91,0,0,0,3.38,3.9c.84.89,1.68,1.78,2.46,2.71a10,10,0,0,1,1.84,3.15c.95,2.72.64,4.49-1.81,6.46a21.07,21.07,0,0,1-3.28,2.07A120.61,120.61,0,0,1,437.45,480c-5.61,1.78-11.3,3.25-17,4.59-6.35,1.48-12.7,3-19.09,4.35a73.58,73.58,0,0,1-17.76,1.54c-1.79-.06-3.59-.07-5.38-.13a17.62,17.62,0,0,1-9.16-2.77c-1.14-.74-2.3-1.47-3.47-2.16A10.29,10.29,0,0,1,362,482a134.08,134.08,0,0,1-8.47-15.47,168.4,168.4,0,0,1-7.52-19.69c-3.14-10-6.51-19.91-9.42-30-2.07-7.16-4.17-14.33-5.68-21.64s-3-14.75-4.39-22.16c-.72-3.95-1.15-7.95-1.49-12-.28-3.29-.67-6.57-1-9.85-.12-1.22-.2-2.44-.25-3.65,0-.94.13-1.06,1.13-1.11h.22a114.56,114.56,0,0,0,23-2.89c2.86-.65,5.75-1.21,8.62-1.87a28.13,28.13,0,0,0,5.65-2.06c3.18-1.49,6.33-3,9.42-4.73a27,27,0,0,0,9.8-8.86c2-3.06,4.11-6.06,5.92-9.25.57-1,1-2,1.52-3.08a2.59,2.59,0,0,0,.18-1,.61.61,0,0,0-.34-.47.73.73,0,0,0-.59.08,2,2,0,0,0-.72,1,84.78,84.78,0,0,1-8.82,14,20.86,20.86,0,0,1-6.5,5.57A116.09,116.09,0,0,1,360,339.08a27.55,27.55,0,0,1-5.55,1.68c-4.78,1-9.55,2-14.36,2.83a77.1,77.1,0,0,1-7.9,1,83.75,83.75,0,0,1-9.89.47c-8.75-.38-17.51-.23-26.27-.28a16.07,16.07,0,0,1-4.48-.47,18.24,18.24,0,0,1-2.64-.9,4.91,4.91,0,0,1-3.18-5.12,54.14,54.14,0,0,1,.8-5.53,66.12,66.12,0,0,0,1.06-12.64,50.78,50.78,0,0,0-2.52-14.36c-.61-1.92-1.28-3.81-1.93-5.71a47.31,47.31,0,0,1-1.6-5.58,25.16,25.16,0,0,0-1.76-5.07c-.8-1.83-.61-2.27,1.25-2.8a33.85,33.85,0,0,1,4-.85c4.25-.68,8.51-1.28,12.76-2,6.51-1,13-2.27,19.49-3.48,3.38-.63,6.73-1.41,10.11-2.1a24.37,24.37,0,0,0,2.9-.79A16.61,16.61,0,0,0,341.11,267a30,30,0,0,0,1.67-7.1c.25-2.21.53-4.42.74-6.63a104.44,104.44,0,0,1,1.68-10.41,16.57,16.57,0,0,0,.24-2.34.48.48,0,0,0-.54-.52.8.8,0,0,0-.52.3,1.34,1.34,0,0,0-.24.59c-.61,3.38-1.53,6.71-1.89,10.15-.24,2.35-.51,4.71-.77,7.06a31.28,31.28,0,0,1-2.12,9.19,14.68,14.68,0,0,1-10.22,8.77C329.09,276.12,329,276.07,328.67,276Z" fill="#f38704"/><path d="M281.58,203.38c-.21.89-.95,1.41-1.49,2.05a99.9,99.9,0,0,0-13.21,20.09,10.92,10.92,0,0,0-.73,1.78.81.81,0,0,0,.58,1,8.16,8.16,0,0,0,1.68.32c1.36.11,2.73.16,4.09.26.26,0,.6-.11.76.22s-.17.65-.4.88a57.12,57.12,0,0,0-5.11,6.1,36.49,36.49,0,0,0-6.57,13.44,27.79,27.79,0,0,0-.81,8.32c.15,2.5.4,5,.67,7.5.33,3.06.77,6.12,1.09,9.18a36.52,36.52,0,0,0,2.1,9.64,1.84,1.84,0,0,1,.06.41c-.3.33-.66.22-1,.11a42.67,42.67,0,0,0-10.58-1.83,14.73,14.73,0,0,0-4.48.41,19.48,19.48,0,0,0-2.48.71c-1.63.61-1.57.41-2-1.14-1.11-4-2.44-8-3.38-12a22.32,22.32,0,0,0-1.1-3.26c-2.36-5.85-4.45-11.81-6.38-17.81a1.66,1.66,0,0,0-.06-.21l-1-2.83c.46-.81,1-1.59,1.36-2.43a15.36,15.36,0,0,0,1-2.82,24.86,24.86,0,0,0,.63-7.69,90.14,90.14,0,0,0-1.47-10.22,18.56,18.56,0,0,0-2.63-6.54c-.55-.84-1.12-1.68-1.74-2.46a6.58,6.58,0,0,1-1.93-3.72,6.63,6.63,0,0,0-.9-2.17c-.38-.77-.77-1.54-1.19-2.29a1.09,1.09,0,0,1,.07-1.38,6,6,0,0,0,1.16-2.28c.37-1.24.42-1.26,1.59-1.21a17.52,17.52,0,0,1,1.93.17,7.25,7.25,0,0,1,5.35,3.57,46.67,46.67,0,0,1,4.73,11.27,127,127,0,0,1,4,19.81,110.26,110.26,0,0,1,.81,16.75,47.72,47.72,0,0,1-.64,6.2,6.22,6.22,0,0,0-.1,1.05.66.66,0,0,0,.56.58.59.59,0,0,0,.7-.37,6.42,6.42,0,0,0,.35-1.23,58.77,58.77,0,0,0,.66-13.51A113.34,113.34,0,0,0,245,234c-.36-2.27-.72-4.53-1.09-6.8-.08-.49-.18-1-.26-1.48a.84.84,0,0,1,.54-1c.4-.17.79-.35,1.19-.5a103.68,103.68,0,0,0,16.13-8.13c6.05-3.58,11.87-7.53,17.72-11.43.65-.44,1.33-.83,2-1.25C281.33,203.23,281.44,203.22,281.58,203.38Z" fill="#f38704"/><path d="M273.28,310.69c.37.06.54.16.63.38s.24.52.34.79c2.74,7.77,5.91,15.39,8.37,23.27.73,2.32,1.45,4.65,2.21,7a32.82,32.82,0,0,0,5,10.18,1.4,1.4,0,0,1,.22,1.58c-.67,1.59-1.27,3.21-2,4.76a118.24,118.24,0,0,1-6.81,12.45c-.31.49-.63,1-1,1.42a.41.41,0,0,1-.7-.08q-.25-.47-.48-1l-10.83-23.9c-1.54-3.39-3.09-6.79-4.62-10.19a4.19,4.19,0,0,1-.58-2c.22-3.45-.31-6.88-.39-10.32a86.83,86.83,0,0,1,.2-9.68,11,11,0,0,0,0-1.28.62.62,0,0,1,.63-.71,34.9,34.9,0,0,0,8.92-2.32C272.74,310.87,273.07,310.76,273.28,310.69Z" fill="#f38704"/><path d="M227.09,93.67c.47-.11.82.2,1.18.39q8.39,4.38,16.76,8.79c.32.16.63.36,1,.5a1.31,1.31,0,0,1,.81,1.37,30.67,30.67,0,0,1-.54,6.41,39.9,39.9,0,0,1-7.08,16.22,21.09,21.09,0,0,1-5.59,5.31,3,3,0,0,1-2.84.3c-6.75-2.4-13.56-4.61-20.41-6.73-.19-.06-.47-.09-.43-.37a.91.91,0,0,1,.32-.5c6.6-5.06,10.61-11.94,13.64-19.49a48.16,48.16,0,0,0,2.94-11.2A1.62,1.62,0,0,1,227.09,93.67Z" fill="#f38704"/><path d="M171.25,64c1.51.84,2.6,1.38,3.61,2,3.32,2.13,6.81,4,10.3,5.8.51.27,1,.58,1.52.81a1.87,1.87,0,0,1,1.07,1.69,37.25,37.25,0,0,1,.25,9A39,39,0,0,1,183.82,98a38,38,0,0,1-13.66,14.87c-1.53,1-1.54,1-3.38.44-3-.89-6-1.82-9.06-2.71-1.51-.44-3-.83-4.55-1.26a.44.44,0,0,1-.26-.3.5.5,0,0,1,.15-.34,1.48,1.48,0,0,1,.36-.23,31.55,31.55,0,0,0,10-9,47.62,47.62,0,0,0,9.06-21.13A26.37,26.37,0,0,0,171.25,64Z" fill="#f38704"/><path d="M207.16,253.31a15.46,15.46,0,0,1-4.06-5.93,30.68,30.68,0,0,1-1.6-6.68c-.41-2.91-.75-5.83-1.14-8.74a11.87,11.87,0,0,1,.52-4.67,9.78,9.78,0,0,1,1-3,2,2,0,0,1,.52.21,11.4,11.4,0,0,0,7.64,2.39c.62,0,.95.19,1,.77.17,1,.29,2,.48,3,.85,4.29,1.7,8.58,2.59,12.86a1.6,1.6,0,0,1-.47,1.73,35.79,35.79,0,0,0-5.53,6.85A3.18,3.18,0,0,1,207.16,253.31Z" fill="#f38704"/><path d="M231.05,244.93c-.8-.37-1.05-1-1.47-1.48a8.41,8.41,0,0,0-4.57-3,1.38,1.38,0,0,1-1.17-1.31c-.56-3.39-1.14-6.78-1.78-10.15-.45-2.32-1-4.61-1.53-6.91-.47-2.13-.41-2.3,1.32-3.6.86-.65,1.71-1.31,2.59-1.93a15.09,15.09,0,0,0,2.22-2.23c.59,0,.77.47,1,.8a20.49,20.49,0,0,1,4.48,10.07c.54,3.75,1.33,7.47,1.21,11.29a21.25,21.25,0,0,1-.86,5.5,11.5,11.5,0,0,1-.62,1.6C231.67,244,231.37,244.41,231.05,244.93Z" fill="#f38704"/><path d="M260.85,400.64c.25-3.79.49-7.58.75-11.37.16-2.36.36-4.71.52-7.07.35-5.15.68-10.3,1-15.44.1-1.43.27-2.85.42-4.28,0,0,.09-.06.14-.09.42.2.52.63.69,1l8.7,19.17c.15.33.27.66.42,1a1.06,1.06,0,0,1-.07,1c-.14.25-.28.51-.44.74-3.13,4.37-5.93,9-8.84,13.48-.89,1.38-1.88,2.71-2.82,4.06C260.17,402.35,260.85,401.42,260.85,400.64Z" fill="#f38704"/><path d="M280.86,123.85a2.36,2.36,0,0,1,1.66,2.24,21.39,21.39,0,0,1-.07,4.08,27.79,27.79,0,0,1-5.05,13.1,14.49,14.49,0,0,1-2.19,2.37c-1,.9-2.16.53-3.28.34,0,0-.12-.3-.06-.37a5.32,5.32,0,0,1,.74-.76,14.35,14.35,0,0,0,3-3.63,33.52,33.52,0,0,0,4.77-14.15c.1-1,.23-2,.35-3C280.74,124,280.8,124,280.86,123.85Z" fill="#f08604"/><path d="M260.94,331.32c.32-.11.37-.37.38-.67s.07-.71.1-1.06a3.91,3.91,0,0,1,.37,2.23c0,.19,0,.48-.28.44a.81.81,0,0,1-.47-.35A1.82,1.82,0,0,1,260.94,331.32Z" fill="#7e7070"/><path d="M260.85,400.64c0,.43.09.85.1,1.28a1,1,0,0,0,.4.94,3.55,3.55,0,0,1-.3.54c-.17.19-.47.13-.49-.06A4.63,4.63,0,0,1,260.85,400.64Z" fill="#a85603"/><path d="M245.48,429.5c.3.25.29.62.38,1s.16.38.41.4c0,.18,0,.46-.13.54-.3.21-.51,0-.6-.31A2.34,2.34,0,0,1,245.48,429.5Z" fill="#594747"/><path d="M243.71,294.69c0-.28-.28-.34-.48-.45a1.78,1.78,0,0,1,.32-.24c.25-.13.63-.21.72.06S244.11,294.66,243.71,294.69Z" fill="#2e4242"/><path d="M396.56,392.32c-2-.47-4.21-.94-6.42-1.54a51,51,0,0,1-22.85-12.72c-.82-.8-1.56-1.67-2.32-2.53a.62.62,0,0,1,0-.79.65.65,0,0,1,.95-.1q.66.56,1.26,1.17a49.29,49.29,0,0,0,22.52,13.26,52,52,0,0,0,7.29,1.78c.45.06.86.17.9.72S397.42,392.4,396.56,392.32Z" fill="#050300"/><path d="M294.23,131.33a11.61,11.61,0,0,0-6.5,1.63.68.68,0,0,1-.38.17.94.94,0,0,1-.56-.18.67.67,0,0,1-.14-.57,1.31,1.31,0,0,1,.47-.68,10.55,10.55,0,0,1,1.88-1,16.45,16.45,0,0,1,4.81-1,8.85,8.85,0,0,1,5.25,1.54,1.12,1.12,0,0,1,.45.44.93.93,0,0,1,.08.59.63.63,0,0,1-.67.42,2.66,2.66,0,0,1-1.37-.55A6.47,6.47,0,0,0,294.23,131.33Z" fill="#100c0c"/><path d="M295.64,153.19c-.45,2,.72,2.74,2.7,2.67a22.72,22.72,0,0,0,2.32-.33,4.63,4.63,0,0,1,1,0,.42.42,0,0,1,.42.4,1.71,1.71,0,0,1-.15.59.66.66,0,0,1-.32.27,8.42,8.42,0,0,1-5.24.41,2.94,2.94,0,0,1-2.31-3.17c0-1.27.32-2.56-.32-3.78-.12-.24.06-.54.35-.69a.61.61,0,0,1,.77.14,3,3,0,0,1,.53.91A5.18,5.18,0,0,1,295.64,153.19Z" fill="#0f0e0e"/><path d="M314.67,133.51c3.58.17,6.36,1.39,8.3,4.2a4.2,4.2,0,0,1,.57,1.14.67.67,0,0,1-.4.88.62.62,0,0,1-.77-.17c-.27-.33-.46-.72-.72-1.06a8.32,8.32,0,0,0-8.48-3.37c-.45.08-.84.18-1.1-.3s.11-1,.72-1.08S314.2,133.57,314.67,133.51Z" fill="#0f0a0a"/><path d="M338,163.3a4.39,4.39,0,0,1-2.45,4.55,1.58,1.58,0,0,1-1.43.15.73.73,0,0,1-.37-.47A.65.65,0,0,1,334,167a7.44,7.44,0,0,1,.94-.46,2.9,2.9,0,0,0,1.78-2.7,6.09,6.09,0,0,1,.07-.85.63.63,0,0,1,1.22-.09A1.23,1.23,0,0,1,338,163.3Z" fill="#141010"/><path d="M142.21,91.77A28.35,28.35,0,0,1,147,76.06a35.47,35.47,0,0,1,8.39-8.89,8.17,8.17,0,0,1,1.06-.71.73.73,0,0,1,1,.14.72.72,0,0,1,0,1,8.92,8.92,0,0,1-1.17.94,35.05,35.05,0,0,0-5.33,5,28.36,28.36,0,0,0-6.91,15,24.94,24.94,0,0,0,.37,8.13,7.69,7.69,0,0,1,.18,1,.66.66,0,0,1-.48.64.71.71,0,0,1-.9-.35,2.68,2.68,0,0,1-.28-.81A25.53,25.53,0,0,1,142.21,91.77Z" fill="#050404"/><path d="M147.25,89.27a18.22,18.22,0,0,1,.72-4.44,23.83,23.83,0,0,1,4.78-9.06,6.23,6.23,0,0,1,1.57-1.46.65.65,0,0,1,.79,0,.7.7,0,0,1,.18,1,6,6,0,0,1-.7.81,21.62,21.62,0,0,0-5.54,11,8.92,8.92,0,0,0,.11,4.47,1.85,1.85,0,0,1,.06.84.66.66,0,0,1-.59.53.77.77,0,0,1-.57-.21,1.78,1.78,0,0,1-.43-.72A7.62,7.62,0,0,1,147.25,89.27Z" fill="#090808"/><path d="M318.29,140.69a2.5,2.5,0,0,0-4.28-.46,5.27,5.27,0,0,0-1.36,3.46,4.85,4.85,0,0,0,.75,2.91,2.52,2.52,0,0,0,4,.45A5.61,5.61,0,0,0,318.29,140.69ZM316.43,143c-.08.28-.21.83-.41,1.36a.83.83,0,0,1-.83.55.76.76,0,0,1-.74-.65,4.21,4.21,0,0,1,.39-3.11.72.72,0,0,1,.71-.37.85.85,0,0,1,.67.47A3.37,3.37,0,0,1,316.43,143Zm.53,3.07c-.36,0-.42-.32-.44-.6,0-.52.28-.84.71-.75a.55.55,0,0,1,.48.55A.74.74,0,0,1,317,146.1Z" fill="#090808"/><path d="M295.88,138.56a2.39,2.39,0,0,0-4.23-.17,5.1,5.1,0,0,0-1,3.23,5,5,0,0,0,.71,2.67,2.36,2.36,0,0,0,4,.32A5.49,5.49,0,0,0,295.88,138.56Zm-2.44,3.28a.77.77,0,0,1-1.43-.3,5.59,5.59,0,0,1-.1-.71,3.53,3.53,0,0,1,.42-2,.73.73,0,0,1,1.1-.15,1.56,1.56,0,0,1,.54,1.12A3.32,3.32,0,0,1,293.44,141.84Zm1.84,1.9a.53.53,0,0,1-.73.15.81.81,0,0,1-.37-.89.84.84,0,0,1,.56-.79,1.23,1.23,0,0,1,.2,0c.12.06.28.09.34.19A1.19,1.19,0,0,1,295.28,143.74Z" fill="#090808"/></g></svg>