<svg id="Layer_1" data-name="Layer 1" xmlns="http://www.w3.org/2000/svg" viewBox="0 0 517 516"><title>Artboard 2 copy 11</title><g id="e_commerce_or_online_shopping" data-name="e commerce or online shopping"><path d="M276.4,240.93c-.11-1.28-.28-2.55-.32-3.83a24.44,24.44,0,0,0-.3-3.62,25.2,25.2,0,0,1-.49-5.42c0-.85-.45-1.28-1.29-1.08a32.1,32.1,0,0,1-5.62.51c-5.24.35-10.49.66-15.75.62l-8.29-.18-4.85-.07c-2,0-4-.1-6.06-.11-1.14,0-1.63.42-1.69,1.53a17.67,17.67,0,0,0,.11,2.62c.21,2.07.43,4.15.69,6.22s.26,4.44.7,6.63c.4,2,1.1,2.62,3.14,2.69.27,0,.54,0,.81,0l6.06-.18c2.83-.09,5.66-.1,8.49-.34,4.56-.39,9.13-.68,13.71-1,3.09-.18,6.19-.23,9.29-.35,1.32,0,1.85-.54,1.86-1.85C276.6,242.81,276.48,241.87,276.4,240.93Zm-2.17,3.18c-2,.08-3.91.11-5.87.21-3.43.18-6.86.4-10.29.6-3.63.22-7.25.66-10.9.71-3.23.05-6.47.2-9.7.29-2.67.08-2.45,0-2.89-2.5a37.16,37.16,0,0,1-.41-4.23,64.23,64.23,0,0,0-.78-6.62,16.85,16.85,0,0,1-.17-2c0-1.07.07-1.21,1.09-1.19,2.16,0,4.32.11,6.47.17a9.9,9.9,0,0,0,1.21.06c2.9-.23,5.8.06,8.69.11,5.94.11,11.87-.18,17.79-.61,1.48-.11,3-.14,4.44-.22.48,0,.76.17.8.67.22,3.09,1,6.13.88,9.25a28,28,0,0,0,.38,3.62,7,7,0,0,1,0,.8C275,243.89,274.86,244.09,274.23,244.11Z" fill="#020101"/><path d="M406.16,233.41c-.23-4.17-.7-8.33-.59-12.52a4.25,4.25,0,0,0,0-.8,1.5,1.5,0,0,0-1.23-1.42,10,10,0,0,0-1.8-.22c-4.25-.07-8.5-.18-12.74-.18-11.74,0-23.47.31-35.69.14-4,.08-8.55.2-13.06.25-7.49.08-15,.08-22.46.2-4,.07-8.09.27-12.12.49a40.93,40.93,0,0,0-4.41.58c-.76.12-.88.33-.74,1.14a23.92,23.92,0,0,1,.17,4.23c0,9.78.32,19.55,1.11,29.3.18,2.22.33,4.44.47,6.66.34,5.45.78,10.89,1,16.35.19,5.73.13,11.46.16,17.19,0,2.36.06,4.72.3,7.07a13.33,13.33,0,0,0,.39,2,3.33,3.33,0,0,0,2.28,2.37,10.44,10.44,0,0,0,2.36.5c6.25.66,12.52.92,18.78,1.09,10,.27,20,.24,29.94,0,4.11-.11,8.21-.39,12.32-.61,2.49-.14,5-.35,7.47-.47,7.07-.32,14.14-.6,21.22-.92a8.29,8.29,0,0,0,1.79-.24,2.19,2.19,0,0,0,1.88-2.28c.08-1.08.08-2.16.18-3.23.29-3.36.64-6.71.92-10.07.47-5.51.86-11,1.36-16.53.63-6.85.9-13.72.88-20.6,0-3.3,0-6.61.07-9.91S406.33,236.58,406.16,233.41Zm-1.49,24.2c-.1,5.39-.39,10.78-.91,16.15-.38,3.89-.63,7.79-1,11.68-.31,3.63-.69,7.25-1,10.88-.17,1.94-.24,3.9-.36,5.85s-.24,2-2.17,2.1c-6.6.28-13.2.53-19.8.85q-6.76.33-13.52.83c-4,.3-8.09.32-12.13.42-9.37.24-18.74.22-28.11-.15-5-.19-10-.54-14.94-.84-.8-.05-1.6-.21-2.4-.34a2.51,2.51,0,0,1-2.26-2.46c-.14-1.41-.32-2.82-.33-4.23-.06-5.12-.07-10.25-.08-15.37s-.34-10.38-.69-15.56q-.48-7.16-.95-14.32c-.19-2.69-.4-5.38-.6-8.07,0-.53-.1-1.07-.11-1.61l-.48-20.63c0-.2,0-.4,0-.6,0-.66.17-.84.83-.91,1.61-.17,3.22-.33,4.83-.43,8.08-.49,16.18-.47,24.26-.48,8.43,0,16.86-.45,26.51-.24,7.54-.07,16.31-.17,25.07-.22,3.51,0,7,.07,10.52.11l6.67,0c.61,0,1.21,0,1.82.09a.68.68,0,0,1,.62.68,5.35,5.35,0,0,1,0,.8c-.1,4.06.38,8.08.63,12.12.1,1.68.14,3.36.13,5.05C404.77,245.07,404.79,251.34,404.67,257.61Z" fill="#010000"/><path d="M405.38,409.57c-.3-3.89-.92-7.75-1.36-11.62a6.94,6.94,0,0,0-.27-1.18c-.49-1.6-1.07-2-2.76-2.12-.67,0-1.34.05-2,.09l-8.31.44-10.45-.13a11.39,11.39,0,0,0-2.61.17,1.59,1.59,0,0,0-1.47,1.64,11.23,11.23,0,0,0,.06,2c.14,1.21.36,2.4.53,3.6.5,3.39,1,6.79,1.47,10.18a31.44,31.44,0,0,0,1.17,5.93,5.58,5.58,0,0,0,4.23,3.9,21.8,21.8,0,0,0,8.81.2c.67-.12,1.33-.21,2-.31a42.72,42.72,0,0,0,6.53-1.24,5.67,5.67,0,0,0,4.23-5.11A34.72,34.72,0,0,0,405.38,409.57Zm-1.85,6.79a3.88,3.88,0,0,1-2.73,3.22,29,29,0,0,1-5.52,1.17c-1.47.23-2.95.37-4.4.63a18.25,18.25,0,0,1-6.83-.31,4,4,0,0,1-3.16-2.8,23.3,23.3,0,0,1-1.07-5.13c-.48-4.16-1.2-8.27-1.86-12.39-.13-.8-.2-1.61-.39-2.4-.35-1.48,0-1.62,1.39-1.68,2.22-.09,4.44,0,6.66,0a54.68,54.68,0,0,0,7.68,0c2.35-.23,4.71-.28,7.06-.4h.41c1,0,1.37.32,1.56,1.25s.3,1.72.4,2.59c.37,3.15.69,6.3,1.1,9.44A26.62,26.62,0,0,1,403.53,416.36Z" fill="#020101"/><path d="M351.66,439c-.05-.81-.18-1.62-.2-2.42-.19-6.48-.83-12.92-1.37-19.37-.16-1.81-.33-3.62-.54-5.43a99.31,99.31,0,0,1-1.05-14.91,39.11,39.11,0,0,0-.09-4c-.55-7.6-1.15-15.19-1.15-22.82a33.94,33.94,0,0,0-.7-8,24.84,24.84,0,0,0-3.18-7.61,4.47,4.47,0,0,0-3.25-2.16,20.87,20.87,0,0,0-2.62-.21c-3.3-.05-6.6-.07-9.91-.1-5.66-.06-11.33-.14-17-.18-2.09,0-4.18.06-6.27.08q-6.07.08-12.14.13c-5.6.05-11.17.58-16.76.8-2.9.11-5.81.1-8.7.3-5.11.37-10.22.69-15.35.7a17.81,17.81,0,0,1-4.42-.37c-1.75-.43-2.17-.06-2.27,1.74a8.42,8.42,0,0,0,0,1.42c.17,1.67.32,3.35.57,5s.69,3.57.9,5.37c.81,7,1.16,14.11,2.05,21.14.41,3.27.65,6.57.94,9.86q.78,9.08,1.52,18.14c.32,3.76.54,7.53,1,11.28.53,4.76,1.21,9.49,1.86,14.23a16.91,16.91,0,0,0,.56,2.56,4.46,4.46,0,0,0,4.26,3.43c.87.06,1.75.14,2.62.12,7.76-.18,15.51-.34,23.26-.6,9.57-.33,19.14-.74,28.7-1.15,5.12-.21,10.24-.49,15.36-.74,3.43-.17,6.85-.66,10.3-.49H341c.88,0,1.76,0,2.63-.08a19.41,19.41,0,0,0,4.79-.72C350.91,443,351.83,441.61,351.66,439Zm-3.6,3.39a11.11,11.11,0,0,1-3.37.64c-1.21.06-2.42.11-3.63.09-4.39-.06-8.76.28-13.13.61s-8.61.43-12.93.59c-4.71.18-9.43.27-14.14.46-7.14.31-14.28.72-21.42,1-4.58.17-9.16.17-13.75.26-1.68,0-3.36.12-5.05.19a13.33,13.33,0,0,1-2.81-.28,2.64,2.64,0,0,1-2.08-1.71,9.72,9.72,0,0,1-.67-2.54c-.37-2.94-.73-5.88-1.17-8.81-.89-6-1.3-12.05-1.73-18.1-.39-5.45-.94-10.88-1.42-16.32-.28-3.15-.57-6.31-.88-9.46s-.67-6.43-1-9.65q-.31-3.21-.58-6.44a83.35,83.35,0,0,0-1.22-9.82c-.43-2.1-.57-4.27-.82-6.41a8.15,8.15,0,0,1,0-1.21c0-.4.25-.66.64-.58,4,.8,7.94.28,11.9.28,2.29,0,4.57-.3,6.86-.45,1.55-.1,3.09-.2,4.64-.23,4.86-.12,9.7-.35,14.54-.72,2.15-.16,4.31-.17,6.47-.2,7-.09,14-.23,21-.22,8.22,0,16.45.15,24.67.24.74,0,1.49,0,2.22.09a3.67,3.67,0,0,1,3.1,2,23.9,23.9,0,0,1,3,8.52,34.07,34.07,0,0,1,.33,5.24c-.1,7.09.48,14.15,1,21.2.17,2.5.25,5,.27,8-.2,3.92.51,8.32,1,12.74.18,1.67.41,3.34.53,5,.49,6.66,1.28,13.29,1.42,20,0,1,.22,2,.25,3C350.19,441.08,349.72,441.75,348.06,442.36Z" fill="#010000"/><path d="M504.58,141.55c-.22-.49-.5-1-.75-1.43Q477,89.75,450.1,39.38c-2.62-4.92-5.42-9.74-7.75-14.8a8.06,8.06,0,0,0-.57-1c-1.87-3-1-2.79-3.87-2.78l-29.34.13-66,.25L220,21.69q-41.88.18-83.76.33l-72,.22a9.53,9.53,0,0,0-1.41.08,1.77,1.77,0,0,0-1.62,1.3,14.76,14.76,0,0,1-.63,1.49l-43.62,105c-1.52,3.67-3.05,7.33-4.57,11-.4,1-.39,1.11.38,1.74,1,.85,2.06,1.72,3.13,2.52C28.52,155,42.77,160.46,58.15,163c2,.32,4,.59,6,.88a4.25,4.25,0,0,1,.23,2q.33,21.54.63,43.09c.21,13.75.46,27.51.67,41.27q.36,24,.7,48,.45,29.63.92,59.27.36,24,.7,47.95.41,27.1.83,54.22.21,13.95.43,27.92c0,.53,0,1.08,0,1.61s.3.88.86.92,1.08,0,1.62,0L82.47,490l19.22-.22c9.71-.11,19.42-.2,29.13-.34a1.7,1.7,0,0,1,1.78,1,5.26,5.26,0,0,0,2.91,2.67,14.1,14.1,0,0,0,7.73.89,23.69,23.69,0,0,0,7.21-2.51c.88-.5,1.77-1,2.62-1.53a5,5,0,0,1,2.83-.83c4.12,0,8.23-.11,12.34-.17,3.78-.05,7.56-.07,11.33-.16a3.69,3.69,0,0,1,2.24.71c1.88,1.24,3.78,2.46,5.73,3.61a17.89,17.89,0,0,0,2.79,1.34,8.36,8.36,0,0,0,4.95.63,10,10,0,0,0,6.29-4.72c.29-1.74,1.47-1.87,3-1.89q31.26-.33,62.52-.74c9.24-.11,18.48-.19,27.72-.31,14.83-.19,29.67-.43,44.51-.61,15.3-.19,30.61-.34,45.92-.53q25.69-.33,51.39-.7c2.38,0,2.38.15,2.39-2.49,0-6.07.09-12.14.11-18.21q.24-51.69.45-103.39.21-48.47.4-96.92.15-36.73.26-73.45.06-15.59.18-31.16c0-.58-.18-1.21.3-1.75a99.54,99.54,0,0,0,11.95,1.08,93.69,93.69,0,0,0,16.57-.75c10.38-1.43,20.29-4.23,29.16-9.86a31.19,31.19,0,0,0,2.73-2C504.65,143.87,505.5,143.56,504.58,141.55Zm-473,11.75a82.43,82.43,0,0,1-16.08-10.06l-.47-.38c-1.25-1.06-1.26-1.06-.66-2.51l24-57.87L62,25.55l.3-.75a1.42,1.42,0,0,1,1.41-.95H65q33.18-.11,66.36-.22,21.74-.09,43.49-.23c.61,0,1.21,0,1.82.05A.4.4,0,0,1,177,24c-.17.52-.38,1-.58,1.51-3.13,7.89-6.41,15.72-9,23.8-2.69,8.27-4.86,16.68-6.94,25.12-1.72,7-3.34,14-4.61,21.12-.36,2.06-.74,4.11-1.06,6.18A1.3,1.3,0,0,1,153.7,103c-8.49,2.21-13.94,7.81-17.26,15.7a27,27,0,0,0-2.29,10.6,24.36,24.36,0,0,0,1,6.57c.12.45.11.78-.3,1.05a3.64,3.64,0,0,0-1.54,3.32,11.05,11.05,0,0,0,3.69,8.85c-.74.37-1.27.65-1.82.9a144.84,144.84,0,0,1-31.81,10.41,139.24,139.24,0,0,1-16.41,2.27,123.08,123.08,0,0,1-15.36.25A102.91,102.91,0,0,1,31.56,153.3ZM168.68,125a39.23,39.23,0,0,1-.21-6c.52-.14.58.3.7.54a33.59,33.59,0,0,0,3.49,5.42,24.31,24.31,0,0,1,3.66,6.71c.29.82.68,1.6,1,2.42a6.36,6.36,0,0,0,1.49,2.14c.57.57.81.55,1.25-.09.11-.17.17-.37.28-.54a1.19,1.19,0,0,1,2.2.21,7.09,7.09,0,0,1,.49,1.94,14.52,14.52,0,0,1-.41,5.21,4.06,4.06,0,0,1-1.19,2.07,2,2,0,0,1-2.76.13c-.32-.24-.55-.59-.87-.82a.63.63,0,0,0-.57,0,.57.57,0,0,0-.33.66,1,1,0,0,0,.23.54,1.65,1.65,0,0,1,.16,1.72c-.08.25-.16.51-.25.76a32.16,32.16,0,0,1-7.33,11.95,21.6,21.6,0,0,1-5.12,3.55,7.51,7.51,0,0,1-4.1.85,18.87,18.87,0,0,1-10.14-3.57,24.28,24.28,0,0,1-5.59-5.49c-1.46-2-2.9-4-4.37-6.06a1.23,1.23,0,0,1-.11-1.64,3.62,3.62,0,0,0,.4-1.13.63.63,0,0,0-.38-.82.65.65,0,0,0-.84.35,1.62,1.62,0,0,1-.28.52c-.17.14-.37.06-.44-.17a1.73,1.73,0,0,1,.36-1.67,1.31,1.31,0,0,0-.47-2,1,1,0,0,0-1.52.47,1.72,1.72,0,0,0-.06,1.37,5.8,5.8,0,0,1,.28,2.58.51.51,0,0,1-.55-.16,10.29,10.29,0,0,1-2.1-6.8,2.32,2.32,0,0,1,.74-1.92c.32.24.65.52,1,.74a3.05,3.05,0,0,0,.91.39,1,1,0,0,0,1.28-1c.41-5.77,2.61-10.93,5.28-15.94.46,0,.55.39.64.66a7.51,7.51,0,0,0,2.63,3.5,28.1,28.1,0,0,0,6.36,3.87,6,6,0,0,0,2.35.48,1.22,1.22,0,0,0,1.32-1.43,9.65,9.65,0,0,0-.28-1.38l-1.41-6.3c-.15-.41-.32-.82.4-.75a26.87,26.87,0,0,0,4.67,5.54,12.15,12.15,0,0,0,6.68,3.06c1.18.15,1.7-.25,1.68-1.39S168.78,126.05,168.68,125Zm-.4-12.25c0-.07.12-.23.22-.29s.29-.08.36,0a2.36,2.36,0,0,1,.47.62,24.12,24.12,0,0,0,3.79,5.44,30.47,30.47,0,0,1,5.47,8.88,1.85,1.85,0,0,1,.28,1.15c-.1.08-.19.21-.3.24a.5.5,0,0,1-.35-.07c-.45-.26-.53-.76-.72-1.18a40.13,40.13,0,0,0-2.3-4.47,35,35,0,0,0-3-4,26.9,26.9,0,0,1-3.52-5.14A4.89,4.89,0,0,1,168.28,112.72Zm32.39,79.33a37.9,37.9,0,0,1,2.7,7.59,4.18,4.18,0,0,1-1,3.94A11.36,11.36,0,0,1,201,205a44.89,44.89,0,0,1-9,5.31c-.6.3-.92.1-.93-.53a68,68,0,0,1,0-10.29,4.9,4.9,0,0,0,0-1.21c0-.14-.27-.33-.43-.36a.61.61,0,0,0-.51.2,3.57,3.57,0,0,0-.46,1.94c-.07,1.89-.12,3.77-.13,5.66,0,3.91.11,7.82,0,11.72-.12,4.44-.42,8.88-.67,13.32-.15,2.76-.33,5.52-.5,8.27,0,.34,0,.68-.07,1-.16,1.63-.21,1.72-1.77,1.82-2.42.16-4.85.25-7.27.42-4.1.28-8.19.61-12.29.91l-17.34,1.27L142,245c-.94.07-1.89.13-2.83.16-1.19,0-1.21,0-1.44-1.11-1.15-5.47-2.18-11-2.84-16.52-.53-4.55-1.07-9.1-1.15-13.68a115,115,0,0,1,.68-13.12,3,3,0,0,0,0-1,.52.52,0,0,0-.63-.37c-.17,0-.42.19-.45.32a21.67,21.67,0,0,0-.4,2.39c-.19,2.35-.34,4.7-.5,7.06-.06.76-.25.9-1,.73a18.7,18.7,0,0,1-4.35-1.57c-1.68-.85-3.34-1.74-5-2.61l-.17-.1a3.76,3.76,0,0,1-2.09-4.55,29,29,0,0,1,2.71-7.36c2.41-4.89,6.4-8.24,10.86-11.13a.89.89,0,0,1,1.11,0c3.79,2.71,8.17,3.69,12.67,4.33.66.1,1.33.17,2,.3s1.79-.25,2.3.36a6.16,6.16,0,0,1,.77,2.27,77.83,77.83,0,0,0,4.9,12.37q2.2,4.65,4.67,9.17a1.73,1.73,0,0,1,.34.92c-.27.38-.71.35-1.1.39l-8.64.92c-.8.09-1.6.24-2.39.38a.55.55,0,0,0-.46.58,9.5,9.5,0,0,0,0,1.41q.69,5.29,1.41,10.6c.15,1.14.29,2.28.49,3.4.14.82.4,1,1.25.94l.6-.05,21.09-2.37a14.24,14.24,0,0,0,1.59-.26c.68-.15.86-.41.78-1.16-.19-1.81-.4-3.61-.62-5.42-.38-3.07-.77-6.15-1.16-9.22-.12-1-.48-1.25-1.49-1.14-2.68.29-5.35.6-8,.9l-1.16.11c-.27-.44,0-.67.2-.93a44.29,44.29,0,0,0,7.29-20.53c.18-1.81.34-3.61.51-5.46.44-.15.86-.34,1.31-.46a40.17,40.17,0,0,0,11.12-4.68,1.49,1.49,0,0,1,1.67,0c2.46,1.25,4.87,2.57,7.21,4A18.83,18.83,0,0,1,200.67,192.05Zm-5.41-12.52c.05-.1.19-.14.36-.26a2.27,2.27,0,0,1,.62.4,5.75,5.75,0,0,1,.84,1.35A6.61,6.61,0,0,0,200,184.2a3.75,3.75,0,0,1,1.4,1.1c.14.22,0,.38-.1.52s-.26.19-.34.15a9.6,9.6,0,0,1-4.07-3.12c-.62-.94-1-2-1.68-2.95A.41.41,0,0,1,195.26,179.53ZM196,348.8q0,8.51-.51,17c-.31,5-.74,10.08-1.36,15.09-.41,3.28-.81,6.56-1.4,9.8-.55,3-.13,2.55-2.95,2.55a77.89,77.89,0,0,0-8.08.37,152,152,0,0,1-15.53.88q-9.9.09-19.81.16A34.9,34.9,0,0,1,137,393.2a2,2,0,0,1-1.49-1.47,28.13,28.13,0,0,1-1.35-5.48c-.34-2.4-.61-4.81-.86-7.23q-.6-5.92-1.14-11.87c-.17-1.81-.32-3.62-.41-5.44q-.31-6-.56-11.91c-.3-7.41-.47-14.83-.89-22.23-.45-7.8-.71-15.61-1-23.43a79.08,79.08,0,0,1,.42-11.1,124.28,124.28,0,0,1,2.09-13.38c.88.49,1.11,1.24,1.56,1.79s.92,1.33,2,1.13c.44-.08.6.42.75.81a33,33,0,0,0,2.37,4.9,32.59,32.59,0,0,0,12.19,12.36c.11.06.16.2.24.3l-1.17,3a4.65,4.65,0,0,0-.28,2,1.43,1.43,0,0,0,1.83,1.34c.45-.1.81-.49,1.33-.4.24.59,0,1.2,0,1.79a1.84,1.84,0,0,0,2.23,1.75,10.9,10.9,0,0,0,1.77-.63,12.45,12.45,0,0,0,0,1.51,1.6,1.6,0,0,0,1.85,1.45,8.06,8.06,0,0,0,1.18-.27c.38.38.14.9.3,1.33A1.66,1.66,0,0,0,161.7,315a4.37,4.37,0,0,0,1.92-.6,15.29,15.29,0,0,0,2.3-1.64,40.94,40.94,0,0,0,7.73-9c1.57-2.51,3.19-5,4.8-7.48a31,31,0,0,1,5.88-6.89c.81-.7,1.54-1.5,2.32-2.25.39-.38.6-.37,1,.05s.7.82,1.1,1.17a1.45,1.45,0,0,0,2.17,0,5.93,5.93,0,0,0,1.43-1.94c.34-.65.64-1.32,1-2,.55.1.37.52.37.79.08,7.28.44,14.55.78,21.82.21,4.57.65,9.14,1,13.71.08,1,.11,2,.18,3C196.14,332.09,196,340.45,196,348.8ZM184.25,458.52a17.29,17.29,0,0,0,3.1,7c.28.36.7.66.73,1.27a24.47,24.47,0,0,0-11.15,6.72c-.39,0-.46-.3-.56-.51a51.89,51.89,0,0,0-6-9.81,3.14,3.14,0,0,1-.72-2.41c.3-3,.57-6,.77-9.06a69.78,69.78,0,0,0-.27-11.83c-.5-4.65-1.09-9.29-1.55-14-.52-5.16-.94-10.33-1.36-15.5a112.6,112.6,0,0,0-1.64-12.82c-.38-1.91-.31-1.82,1.45-1.82,3.92,0,7.82-.24,11.72-.51,2-.14,4-.39,6.05-.57a1.31,1.31,0,0,1,1.38,1,51.79,51.79,0,0,1,1.17,6.77,112.92,112.92,0,0,1,.3,16.35c-.39,7.16-1.74,14.17-2.8,21.23a77.13,77.13,0,0,0-1.23,11.24A31.94,31.94,0,0,0,184.25,458.52Zm-36.48.93c-.31-3.56-.76-7.1-1.25-10.64-.75-5.47-1.58-10.92-2.38-16.39a171.88,171.88,0,0,1-1.56-25.55,66.38,66.38,0,0,1,.74-9.13c.24-1.68.11-1.77,1.24-1.77l14.14,0c1.15,0,2.29-.06,3.44-.07.63,0,.74.09.74.64-.08,5.82-.12,11.64-.24,17.45-.17,7.74.05,15.47.57,23.19.17,2.61.31,5.21.48,7.81.14,2.15.26,4.31.51,6.45.3,2.55.26,5.11.41,7.67a10.09,10.09,0,0,1-1,5.28,56.69,56.69,0,0,1-3.68,6.71,8.66,8.66,0,0,1-.73,1,.68.68,0,0,1-.9.15c-1-.54-2-1-3-1.58a16.38,16.38,0,0,0-5.36-1.7l-3.1-.52C148.17,465.5,148,462.46,147.77,459.45Zm26.8-183.23c.46.27,1,.48,1.59.8-1.49,2.67-3.12,5-5.7,6.38a18.51,18.51,0,0,1-3.54,1.44,2.28,2.28,0,0,1-2.68-.75,17.74,17.74,0,0,0-6.42-4.46c-1.48-.63-3-1.2-4.5-1.78-2.07-.81-4.15-1.59-6.21-2.41-.79-.31-.84-.42-.42-1.11a2.06,2.06,0,0,0,0-2.4,48.11,48.11,0,0,1-2.46-5.3c-.58-1.37-1.08-2.77-1.57-4.16-.25-.7,0-1,.73-1.06,1.14-.13,2.28-.28,3.42-.37,2.28-.19,4.57-.32,6.85-.52,3.36-.29,6.71-.64,10.06-.94,2.55-.23,5.1-.45,7.66-.61,3.5-.21,7-.29,10.5-.57,2.48-.2,2.45-.18,1.39,2.09a51.82,51.82,0,0,1-7.53,11.92,19.12,19.12,0,0,0-1.57,2.1A1.1,1.1,0,0,0,174.57,276.22Zm-6.64,26.86c-.25-.39-.88-.34-1.38.2-1.43,1.51-2.82,3.06-4.22,4.6-.64.7-1.24,1.43-1.91,2.09a8.14,8.14,0,0,1-1.44,1.09,1,1,0,0,1-.76.09c-.3-.08-.26-.42-.23-.68a8.07,8.07,0,0,1,1.84-4.37,57.6,57.6,0,0,1,4.13-4.7c.26-.27.58-.62.31-1.06s-.88-.32-1.26.05c-.72.71-1.41,1.44-2.07,2.2-1.55,1.78-3,3.63-4.7,5.27-.56.54-1.12,1.47-2,1s-.16-1.35,0-2.06A7.66,7.66,0,0,1,156,303a30.26,30.26,0,0,1,3.55-4.12,8.21,8.21,0,0,0,1.11-1.17.74.74,0,0,0,0-.93.71.71,0,0,0-1.07,0,35.36,35.36,0,0,0-5.14,5.93,8.51,8.51,0,0,1-2.85,2.81c-.18.09-.34.22-.56.11-.34-.46,0-.91.07-1.34a9.6,9.6,0,0,1,1.78-3.59,26.36,26.36,0,0,1,4.56-4.82c1.44-1.12,2.82-2.29,4.23-3.44a4.44,4.44,0,0,0,1.21-1.34,1.82,1.82,0,0,0-.85-2.7,5.26,5.26,0,0,0-2.77-.34h0a3.39,3.39,0,0,1-2.14.38h0c-.18-.05-.5-.08-.51-.15,0-.4.24-.53.58-.58h0c.28,0,2.86-.76,3.93-.87,1.27-.14,2.55-.24,3.82-.37a13.74,13.74,0,0,0,10.52-6c.54-.77,1-1.58,1.54-2.36a.48.48,0,0,1,.7-.15,1.91,1.91,0,0,1,.32.24l7.33,6.33a4.28,4.28,0,0,1,.45.4.63.63,0,0,1,.06.9,11.36,11.36,0,0,1-1.43,1.43c-3.77,3-6.47,6.8-9,10.81-1.25,2-2.53,4-3.81,5.95a37.41,37.41,0,0,1-7.14,7.93,9,9,0,0,1-2.22,1.37.78.78,0,0,1-.77,0c-.26-.18-.21-.45-.14-.72a9.89,9.89,0,0,1,2.3-4.21c1.24-1.41,2.55-2.77,3.83-4.15C167.84,303.93,168.28,303.63,167.93,303.08ZM155.29,289.7a4.19,4.19,0,0,0,1,0c.74-.08,1.47-.19,2.21-.28a6.34,6.34,0,0,1,2.6.15.66.66,0,0,1,.3,1.2c-.38.37-.83.68-1.24,1-2.8,2.32-5.76,4.46-7.92,7.46a2.07,2.07,0,0,1-.49.36,34,34,0,0,1-14.14-16.1c-.14-.31-.24-.64-.38-.94a.62.62,0,0,1,.21-.88,53.3,53.3,0,0,0,6.92-5.24,1.26,1.26,0,0,1,1.6-.23,95.85,95.85,0,0,0,9,3.62,26.25,26.25,0,0,1,5.42,2.67,13,13,0,0,1,2.72,2.36c-.24.52-.7.34-1,.38a20.92,20.92,0,0,0-5.11,1.16,6.44,6.44,0,0,0-1.59.86,2.12,2.12,0,0,0-.79,1.37A.92.92,0,0,0,155.29,289.7Zm28.16-32.87q-4.14.18-8.28.44c-6.12.37-12.24.77-18.33,1.5-1.67.2-3.35.28-5,.41a79.77,79.77,0,0,0-8,.86,7.36,7.36,0,0,1-.81.06c-1.06.06-1.17,0-1.46-.93-.56-1.8-1.12-3.61-1.59-5.43-.61-2.33-1.13-4.69-1.7-7.07a4,4,0,0,1,.66-.17c3.43-.2,6.87-.36,10.3-.57,3.09-.2,6.18-.46,9.27-.68,2-.14,3.9-.27,5.84-.42,4.91-.37,9.81-.77,14.71-1.14,2.69-.2,5.4-.09,8.07-.49.55-.08.77.17.69.67a97.32,97.32,0,0,1-2.69,11.8A1.49,1.49,0,0,1,183.45,256.83Zm-44.61-1.71a97.78,97.78,0,0,0,6.2,16.82c.15.3.28.61.41.92a.64.64,0,0,1-.12.74,13.63,13.63,0,0,1-1.14,1.14c-2,1.64-3.94,3.25-5.92,4.87a5.15,5.15,0,0,1-.82.59c-2.62,1.29-2.18,1.36-3.64-.75a45.75,45.75,0,0,1-5.41-11,157.18,157.18,0,0,1-5.67-21.24,114.33,114.33,0,0,1-2.36-19.84c-.14-6.06-.19-12.12.26-18.18.06-.74.06-1.47.1-2.51,1.53.78,2.8,1.38,4,2.06a23.67,23.67,0,0,0,6.73,2.65,6.27,6.27,0,0,1,.76.3A132.48,132.48,0,0,0,133.35,227c.41,3.47,1,6.93,1.59,10.38C136,243.35,137.25,249.27,138.84,255.12Zm52.79,29.44A8,8,0,0,1,190.2,287a.47.47,0,0,1-.7,0,1.54,1.54,0,0,1-.29-.28c-2.33-3.1-5.42-5.41-8.3-7.92a25.85,25.85,0,0,0-5.41-3.91c1-1.34,2-2.61,3-3.88a48.86,48.86,0,0,0,8.55-17.23,93.36,93.36,0,0,0,2.35-11.45c.55-3.87.71-7.78.89-11.68q.42-8.78.77-17.56a1.29,1.29,0,0,1,.94-1.3,47.29,47.29,0,0,0,8.95-5,17,17,0,0,0,2.4-2.16c.21-.23.35-.58.8-.59.38.41.26,1,.36,1.47s.2,1.06.27,1.6a108.16,108.16,0,0,1,1.32,17.7,120.51,120.51,0,0,1-2.18,20.66c-1.19,6.07-2.58,12.09-3.91,18.14a43.68,43.68,0,0,1-2.88,8.38ZM162,172.69a2.34,2.34,0,0,0-2.19-1.78,1.82,1.82,0,0,0-1.42.65,1,1,0,0,1-1.09.28l-4.53-1.4c.9-2,.74-4,1.24-6.05,1.64.44,3.17.87,4.75,1.16a10.16,10.16,0,0,0,7.18-1.22c.23-.13.48-.24.73-.36.47.26.51.74.62,1.18a18.77,18.77,0,0,0,2.2,5.39,3.84,3.84,0,0,1,.56,1.7c.39,3.61.71,7.23.78,10.87,0,1-.05,1.11-1.07,1.33A69.06,69.06,0,0,1,153.91,186c-1.26,0-1.31-.06-1.55-1.33a47,47,0,0,1-.88-7.2c0-1.28-.17-2.55-.23-3.83a5.9,5.9,0,0,1,.13-1.39.64.64,0,0,1,.75-.52,6.67,6.67,0,0,1,1,.24c1,.32,2,.69,3.07,1a3,3,0,0,1,2.07,1.4,2,2,0,0,0,2.64.73A2.44,2.44,0,0,0,162,172.69Zm1,38c-1.19-2.29-2.41-4.54-3.52-6.83a88.9,88.9,0,0,1-5.65-13.57c-.21-.71-.43-1.42-.62-2.13-.12-.47.13-.75.64-.76h2.62A67.08,67.08,0,0,0,170,185.82a2.62,2.62,0,0,1,.56,0C171.24,193,167,206.75,163,210.69ZM152.6,164.45c-.14.86-.22,1.73-.32,2.59a6.9,6.9,0,0,1-1,2.9,47.74,47.74,0,0,1-10.39-4.41,2.24,2.24,0,0,1-1.22-2.1c-.08-3.09-.23-6.18-.37-9.26-.06-1.32-.19-2.63-.28-3.94.54-.12.65.25.83.51,1.36,1.91,2.67,3.86,4.08,5.74a24,24,0,0,0,8,6.89C152.45,163.63,152.7,163.87,152.6,164.45ZM151,185.86c-5.58-.38-10.87-1.26-15.53-4.2-.1-.49.19-.59.38-.71,3.38-2.06,6.68-4.24,10.45-5.59a30.32,30.32,0,0,0,3.55-1.79c.13,2.22.19,4.24.38,6.24S150.75,183.75,151,185.86Zm21.28,27a4.39,4.39,0,0,1,.81,0,.54.54,0,0,1,.54.49c.15,1,.29,2,.41,3,.4,3.21.78,6.42,1.17,9.63.1.84,0,1-.76,1.09-1.2.17-2.41.27-3.61.41L157,229c-1,.11-2,.26-2.69.35l-.72,0c-.71,0-.83,0-.94-.74-.22-1.4-.41-2.8-.59-4.2-.35-2.74-.7-5.48-1-8.22-.1-.83,0-1,.8-1.08q2.9-.36,5.81-.69Zm5.14-42.16a.77.77,0,0,1-.4,0c-2.21-.63-4.07-1.72-4.92-4a20,20,0,0,1-.8-4.55.44.44,0,0,1,.56-.47c.07.07.25.2.29.36.15.51.25,1,.35,1.57s.12.93.19,1.39a5.61,5.61,0,0,0,3.67,4.43c.42.19.87.34,1.29.54.08,0,.1.23.12.35S177.64,170.67,177.45,170.72Zm6.49,8.33a39.89,39.89,0,0,1-11.3,4.66c-.23-.13-.3-.14-.34-.19a.31.31,0,0,1-.07-.18c0-3.49-.4-7-.77-10.56C175.64,174.84,179.84,176.59,183.94,179.05Zm7.55-2.3c-.08.23-.23.38-.45.35a1.26,1.26,0,0,1-.54-.22,14.94,14.94,0,0,0-4.94-2.2,10.78,10.78,0,0,1-2.64-1,5.84,5.84,0,0,1-3.07-4.7c-.07-.81,0-1.62-.07-2.42a22.85,22.85,0,0,0-.65-5,5.66,5.66,0,0,0-2.55-3.94.67.67,0,0,1-.25-.3.51.51,0,0,1,0-.38.36.36,0,0,1,.49-.19,3.52,3.52,0,0,1,.89.44,6,6,0,0,1,2.16,3.09,18.26,18.26,0,0,1,.93,5.34c0,1,.05,2,.12,3a5,5,0,0,0,3.65,4.59c1.07.38,2.18.66,3.26,1.05a9.8,9.8,0,0,1,3.35,1.8C191.33,176.27,191.57,176.45,191.49,176.75Zm-54.64-48.1a24.45,24.45,0,0,1,3.73-12.21,6.06,6.06,0,0,1,.77-.92.39.39,0,0,1,.53-.07.41.41,0,0,1,.2.51c-.21.42-.47.82-.7,1.23a24.85,24.85,0,0,0-3,7.45,24.18,24.18,0,0,0-.53,5.62,6.69,6.69,0,0,1,0,1c0,.1-.19.26-.26.25s-.49-.14-.51-.25C137,130.4,136.9,129.52,136.85,128.65Zm10.78-8.36c0-.16.18-.33.22-.41.22-.15.35-.15.45,0a4.57,4.57,0,0,1,.43.65,13.31,13.31,0,0,0,5,6.11,1.38,1.38,0,0,1,.39.44.46.46,0,0,1,0,.36,1.08,1.08,0,0,1-.5.25c-.1,0-.24-.08-.36-.15a14.08,14.08,0,0,1-5.42-6.28A3.15,3.15,0,0,1,147.63,120.29Zm8.84-6.7a.49.49,0,0,1,.32.3c.22.56.42,1.13.61,1.7a13.24,13.24,0,0,0,6.28,7.77,2.46,2.46,0,0,1,.6.51.41.41,0,0,1,0,.36.51.51,0,0,1-.31.23,1.34,1.34,0,0,1-.56-.08,10.31,10.31,0,0,1-3-2,16,16,0,0,1-4.45-8.17C155.9,114,155.93,113.65,156.47,113.59Zm8.1-6.39c0,.1-.2.23-.29.22a3.19,3.19,0,0,1-.75-.2,15.46,15.46,0,0,0-9.32-.38,8.73,8.73,0,0,0-4.3,2.49c-.14.15-.25.32-.38.47s-.46.49-.85.36-.23-.55.12-1a9.2,9.2,0,0,1,4.77-3.21,18.2,18.2,0,0,1,5-.71,14.58,14.58,0,0,1,5.28,1c.31.15.62.27.76.61A.46.46,0,0,1,164.57,107.2ZM131.58,487c0,.93-.05,1-1.07,1-3.1,0-6.21,0-9.31.09l-47.54.65c-.81,0-1.62,0-2.43,0a.52.52,0,0,1-.53-.5q-.06-.71-.06-1.41-.28-21.45-.58-42.89c-.21-14.29-.46-28.59-.67-42.89-.2-12.88-.35-25.76-.54-38.64q-.33-21-.68-42.07c-.19-12.82-.34-25.63-.54-38.44-.21-14-.46-28-.67-42.08-.19-12.68-.34-25.36-.53-38q-.29-17.91-.61-35.81c0-2-.12-1.87,1.85-1.75,2.49.16,5,.32,7.47.35a137.13,137.13,0,0,0,43.58-6.6,153.58,153.58,0,0,0,17.12-6.61,2.73,2.73,0,0,1,1.83-.53c.15,2.44.32,4.91.44,7.38.08,1.82.15,3.64.14,5.46a3.2,3.2,0,0,0,1.71,3,38.83,38.83,0,0,0,6.91,3.31c1.06.38,2.12.78,3.3,1.22a10.79,10.79,0,0,1-4,2.79c-1.41.64-2.88,1.17-4.24,1.9a91.54,91.54,0,0,0-14.66,9.52,20.37,20.37,0,0,0-4.08,4.51,33.63,33.63,0,0,0-4.62,10,9.39,9.39,0,0,0-.26,1.83,4.37,4.37,0,0,0,.55,2.9,3.57,3.57,0,0,1,.55,2.5c-.48,5.64-.39,11.3-.52,16.95-.07,3,.21,6.07.44,9.09a152.22,152.22,0,0,0,5.18,27.66,90.19,90.19,0,0,0,3.85,11.31,34,34,0,0,0,2.18,4.61,2.4,2.4,0,0,1,.24,1.92,100.15,100.15,0,0,0-2.51,15.47,79.87,79.87,0,0,0-.3,8.33c.15,9.31.64,18.6,1.11,27.9.31,6.22.59,12.44.72,18.67.13,5.86.51,11.71,1,17.55.3,3.4.54,6.8.9,10.19.44,4,.72,8.05,1.55,12a32.12,32.12,0,0,0,1.18,3.84,2.38,2.38,0,0,0,1.7,1.54,28.28,28.28,0,0,0,4.69,1.19,6.87,6.87,0,0,1,.75.19.79.79,0,0,1,.63.88c-.16,1.06-.32,2.13-.47,3.2a64.48,64.48,0,0,0-.55,11.37c.16,3.94.2,7.89.5,11.83.33,4.44.91,8.85,1.52,13.25.92,6.67,1.92,13.33,2.83,20,.27,1.94.33,3.9.48,5.86a12.84,12.84,0,0,1-.2,3.33c-.16.87-.23,1.83-1.19,2.28a1.18,1.18,0,0,0-.39.46,63.53,63.53,0,0,1-8.11,9.23c-.57.58-1.17,1.12-1.71,1.72A11.24,11.24,0,0,0,131.58,487Zm17.12,3.9a21.17,21.17,0,0,1-6.36,1.92,11.45,11.45,0,0,1-6.5-1c-2.06-.92-2.77-2.84-2.87-5A8.55,8.55,0,0,1,134.4,482a12.7,12.7,0,0,1,2.29-2.82,75,75,0,0,0,8.14-8.95c.27-.35.56-.61,1-.46a17.36,17.36,0,0,0,3.19.5,18.7,18.7,0,0,1,7,2.42c.58.34,1.17.66,1.78,1a1.77,1.77,0,0,0,2.21-.4,13.74,13.74,0,0,0,1.23-1.59,52.46,52.46,0,0,0,3.48-6.37c.09-.17.2-.34.31-.51.12.1.27.16.3.25a14.72,14.72,0,0,1,.52,6.16,21.59,21.59,0,0,1-4.46,9.59A36.12,36.12,0,0,1,148.7,490.85Zm29.61-3.66a.36.36,0,0,1-.17.11l-.6.05-20.35.25c-.21-.65.3-.77.56-1a35.31,35.31,0,0,0,6.49-7.42,17.35,17.35,0,0,0,2.75-6.66h0a17.28,17.28,0,0,0,.32-2.78c0-.34,0-.68,0-1a13.34,13.34,0,0,0-.29-2.81c-.31-1.44-.62-2.88-.92-4.33a3.82,3.82,0,0,1-.06-.68c0-4.09-.34-8.16-.66-12.23-.35-4.64-.64-9.28-1-13.92-.63-8.82-.38-17.64-.3-26.47,0-2.83,0-5.66,0-8.49.46-.27.54.12.69.4.36,3.47.85,6.94,1.06,10.43.14,2.35.37,4.7.58,7q.76,8.88,1.9,17.74a85.77,85.77,0,0,1,.27,21.24c-.26,2.18-.39,4.39-.59,6.58.06,2.33.13,4.63.19,6.95A22.68,22.68,0,0,0,172,479.6a45.44,45.44,0,0,0,5.17,6.17c.42.42.82.85,1.23,1.28A.48.48,0,0,1,178.31,487.19ZM199,491.47a8.87,8.87,0,0,1-2.83,1.92,6.43,6.43,0,0,1-4.55.08A11.65,11.65,0,0,1,189,492.4a64.3,64.3,0,0,1-8.78-5.74,36.4,36.4,0,0,1-8-9.29,21.57,21.57,0,0,1-2.84-11.09c.13-.47-.36-1.31.33-1.51.46-.13.74.67,1,1.12a58.21,58.21,0,0,1,4.68,8.47,9.58,9.58,0,0,0,.42.92c.41.76,1.1.86,1.58.15,2.31-3.41,5.72-5.23,9.4-6.68.37-.15.76-.26,1.14-.39a2.13,2.13,0,0,1,2.54.6c1.27,1.39,2.68,2.65,4,4a24.33,24.33,0,0,1,6.47,11.7A7,7,0,0,1,199,491.47ZM438.21,308.09q-.13,35.1-.25,70.21-.19,51.79-.42,103.59c0,2.39.34,2.24-2.3,2.27q-28.83.33-57.66.66c-14.9.18-29.8.42-44.7.62-5.53.07-11.06.08-16.59.15l-55.23.72q-23,.29-45.92.53c-3.51,0-7,.12-10.52.18-.47,0-1,0-1.42,0a.68.68,0,0,1-.62-.7c0-2.92-1.27-5.43-2.42-8a20.26,20.26,0,0,0-4.44-6.28c-1.88-1.81-3.7-3.68-5.57-5.5-3.37-3.3-4.75-7.42-5-12a58.58,58.58,0,0,1,.93-12.88c.89-5.52,1.89-11,2.54-16.58a103.16,103.16,0,0,0,.31-21.59c-.28-2.95-.82-5.86-1.41-8.86a16.35,16.35,0,0,1,3.41-.11c.53,0,1.07,0,1.61,0a1,1,0,0,0,.93-.67,15.89,15.89,0,0,0,.49-1.95c.72-3.7,1.21-7.44,1.66-11.19,1.91-16,2-32,1.74-48.08-.1-5.84-.44-11.66-.91-17.48-.35-4.37-.62-8.76-.79-13.14-.23-6.05-.39-12.1-.58-18.16a10.34,10.34,0,0,0-.14-1.1,7.54,7.54,0,0,1,1-4.54c1.22-2.62,2.31-5.3,3.47-7.95a46.12,46.12,0,0,0,2.46-8.31c1.45-6.37,2.86-12.74,4-19.17a110,110,0,0,0,0-37.8,53,53,0,0,0-2.14-9.22c-.48-1.4-1.06-2.76-1.6-4.16.05-.45.49-.34.75-.48a3.43,3.43,0,0,0,1.71-4.27,5.37,5.37,0,0,0-2.12-2.87,7.15,7.15,0,0,1-3.35-5.89,9.48,9.48,0,0,0-.27-1.39,5.45,5.45,0,0,0-3.3-4.06,8.75,8.75,0,0,0-3.1-.83c-1.21-.09-2.41-.25-3.62-.33a4.23,4.23,0,0,1-3.93-3,9.25,9.25,0,0,1-.63-2.75c-.06-.94-.13-1.88-.14-2.82,0-2.63-.14-5.22-1.67-7.49.45-.28.75-.06,1.06,0a131.1,131.1,0,0,0,20.72,5.27,127.06,127.06,0,0,0,21.95,1.78,110.25,110.25,0,0,0,38.38-6.88,87.89,87.89,0,0,0,24.5-13.89l.68-.53a4.72,4.72,0,0,1,1.55,1.22,77.1,77.1,0,0,0,36.74,18.9,79.27,79.27,0,0,0,24.33,1.48,80.51,80.51,0,0,0,45.67-19.11c1.78-1.51,1.28-1.41,3.16-.13a86.13,86.13,0,0,0,24.28,11.24,101.09,101.09,0,0,0,12.39,2.86c.84.14.92.23.95,1,0,.41,0,.81,0,1.22Q438.52,234,438.21,308.09Zm64.43-164.5a43.26,43.26,0,0,1-8.82,6,67.55,67.55,0,0,1-16.88,6.06,96.2,96.2,0,0,1-26.54,2,100.64,100.64,0,0,1-39.67-10.15,71.21,71.21,0,0,1-9.88-5.93c-1.63-1.16-1.39-1-2.7.17a79.1,79.1,0,0,1-39.45,18.81,77,77,0,0,1-16.11,1.13c-19.47-.81-36.56-7.45-50.86-20.85-1.73-1.62-1.5-1.91-3.57-.22a86.69,86.69,0,0,1-27.78,15,107.25,107.25,0,0,1-20.28,4.56,117.82,117.82,0,0,1-23.22.62,128,128,0,0,1-38.29-8.67c-.31-.13-.62-.25-.93-.4a2.94,2.94,0,0,1-.43-.35c.54-1.53,1.05-3,1.55-4.43,2.9.14,4.42-1,5.15-3.74a11.65,11.65,0,0,0-.21-7.92,1.44,1.44,0,0,1,0-1c1.31-5.58,0-10.81-2.21-15.9a21.21,21.21,0,0,0-2.2-4.09c-5.51-7.42-12.73-11.64-22.11-11.85-.78,0-.95-.17-.82-1,.41-2.53.8-5.06,1.31-7.57,2.9-14.41,6.41-28.66,10.71-42.72,1.65-5.42,3.76-10.67,5.81-16,1.3-3.32,2.58-6.66,3.87-10,.2-.51.41-1,.63-1.49a.68.68,0,0,1,.62-.44l1.82,0,42.7-.15,63.93-.3c.61,0,1.21,0,1.82,0a.71.71,0,0,1,.75.77c0,.61,0,1.21,0,1.82q-.31,15.78-.66,31.55c-.14,6.41,0,12.82.13,19.22.06,4.45.08,8.91.22,13.35.21,6.54.46,13.08.81,19.61a47.17,47.17,0,0,0,1.09,8.61,7.25,7.25,0,0,0,.26,1,.63.63,0,0,0,.8.43.67.67,0,0,0,.48-.79c-.11-.94-.29-1.86-.4-2.8-.23-1.87-.51-3.74-.63-5.62-.23-3.71-.39-7.41-.52-11.12-.49-12.94-.8-25.88-.7-38.83.06-8,.28-15.91.42-23.87q.11-6,.22-11.93,0-.41,0-.81a.53.53,0,0,1,.5-.53c.6,0,1.21,0,1.81-.06,9.85,0,19.7-.06,29.54-.11q29.64-.13,59.29-.27c2.83,0,2.28-.53,3.76,2.35A58.26,58.26,0,0,1,391,36.26a157.21,157.21,0,0,1,3.8,18.6q1.13,7.71,1.86,15.46c.41,4.36.63,8.74,1,13.11.37,4.84.39,9.7.47,14.55,0,1.28.16,2.56.25,3.84a1.32,1.32,0,0,0,.15.58.54.54,0,0,0,.66.3c.17-.06.39-.22.42-.37a6,6,0,0,0,.1-1.2c0-6.54-.13-13.09-.59-19.61q-.62-8.77-1.55-17.52a178.53,178.53,0,0,0-4.76-27,58.78,58.78,0,0,0-5.13-13.58c-.27-.5-.11-.79.4-.82.2,0,.41,0,.61,0h1c9.37,0,18.75-.06,28.12-.11,6.21,0,12.41-.11,18.62-.16a9.77,9.77,0,0,0,1.21,0,1.83,1.83,0,0,1,2,1.08c.69,1.23,1.47,2.41,2.14,3.66q17.54,32.81,35,65.64l25.41,47.64c.29.53.58,1.06.85,1.6C503.45,142.77,503.43,142.87,502.64,143.59Z"/><path d="M413.58,336.91a55,55,0,0,1-.13-6.67c0-2.42,0-4.85-.05-7.28a5.72,5.72,0,0,0-.24-1.59,1.78,1.78,0,0,0-1.94-1.42c-.6,0-1.21,0-1.81.05-3.17.18-6.32.45-9.5.43-7.89-.07-15.77.34-23.65.55-6.48.18-12.94,0-19.4-.34-4.11-.19-8.22-.41-12.32-.61q-9.9-.48-19.79-1c-2.5-.13-5-.27-7.47-.44-4.85-.32-9.68-.74-14.53-1q-14.24-.68-28.48-1.19c-9-.31-17.93-.34-26.9-.3a65.41,65.41,0,0,1-10.08-.58c-1.26-.19-2.54-.3-3.82-.38-.87,0-1.23.3-1.28,1.17a6.08,6.08,0,0,0,.06,1.41c.49,3.19.95,6.39,1.52,9.57a24.21,24.21,0,0,0,1.92,6.16,10.25,10.25,0,0,0,6.68,5.74,17.39,17.39,0,0,0,3.37.61A62.26,62.26,0,0,0,252,340c7.48-.19,15-.54,22.43-.83,10.65-.42,21.3,0,31.94.49,7.14.32,14.27.67,21.41,1v0l4.65.22c4.1.21,8.21.44,12.32.61,5.52.21,11.05.35,16.57.55,5.8.22,11.59.23,17.39.13,4.58-.09,9.17-.12,13.75-.12,5.32,0,10.65.11,16-.08.74,0,1.49,0,2.23-.11,2.12-.22,2.81-.94,3-3.09A11,11,0,0,0,413.58,336.91Zm-4.29,3.41c-3.77.27-7.54.23-11.32.19-7.35-.08-14.69,0-22,.09-9.44.15-18.87-.25-28.3-.64q-6.27-.25-12.53-.53c-2.22-.1-4.44-.23-6.66-.35v0c-8.22-.39-16.43-.86-24.64-1.17-9.16-.34-18.33-.72-27.5-.45-3.3.1-6.6.31-9.9.44-2.76.12-5.52.21-8.28.3s-5.53.19-8.29.25a26.31,26.31,0,0,1-6.62-.61,8.65,8.65,0,0,1-6-4.73,21.1,21.1,0,0,1-1.87-5.74c-.6-3-1.09-6.1-1.62-9.15-.05-.33,0-.67-.06-1a.38.38,0,0,1,.36-.41,6.64,6.64,0,0,1,1.41.06,74,74,0,0,0,13.3.77c9.11-.07,18.21.05,27.3.43,6.53.28,13.07.51,19.6.78,5.66.23,11.3.66,16.95,1,2.42.15,4.84.34,7.27.46,9.35.46,18.7,1.08,28.07,1.37,4.85.16,9.69.53,14.54.71,7.95.3,15.91.11,23.86-.21q4.54-.18,9.09-.18c4.66,0,9.3-.17,13.95-.47.47,0,.94-.08,1.41-.08.63,0,.88.17,1,.77a20.37,20.37,0,0,1,.19,2.21c0,1.28.06,2.57,0,3.85-.09,3-.14,6.05.07,9.09S411.72,340.15,409.29,340.32Z"/><path d="M275.22,277.76c-.37-3-.62-6-.71-9.06,0-1.68-.1-3.37-.18-5.05-.05-.9-.41-1.22-1.27-1.18a4.09,4.09,0,0,0-.6.07,36.36,36.36,0,0,1-7.43.67c-4.11.13-8.22.16-12.82.23-2.88.09-6.25.22-9.62.29-2.35,0-4.71,0-7.07,0-1,0-1.38.32-1.5,1.27a15,15,0,0,0-.07,2.42c.13,5.06.93,10.05,1.56,15.06a13.79,13.79,0,0,0,.3,1.8,3.65,3.65,0,0,0,3,2.9,36.73,36.73,0,0,0,8.43.79c5.18-.31,10.38-.3,15.55-.78,3.08-.28,6.17-.5,9.26-.83,2.13-.23,3.07-1.26,3.33-3.39A21.89,21.89,0,0,0,275.22,277.76Zm-1.45,5.57a1.62,1.62,0,0,1-1.47,1.44c-1,.16-2,.3-3,.39-7.32.6-14.64,1.06-22,1.28a43.45,43.45,0,0,1-7.64-.64,2.56,2.56,0,0,1-2.46-2.47c-.32-2.6-.73-5.2-1.05-7.8-.28-2.34-.49-4.69-.72-7-.05-.53-.09-1.07-.1-1.61,0-1.56,0-1.57,1.52-1.54,5.39.12,10.77-.31,13.71-.33,7.37-.09,12.29-.1,17.2-.37a24.82,24.82,0,0,0,4.21-.42c.55-.13.75.06.8.59,0,.33.05.67.06,1a142.59,142.59,0,0,0,1.06,14.31A11.14,11.14,0,0,1,273.77,283.33Z" fill="#010101"/><path d="M164.07,151.19c-.34,0-.67,0-.94-.06-.6.06-1.14.09-1.67.17-2.18.35-4.37.7-6.55,1.07-1,.17-1.3.76-.75,1.7a2.56,2.56,0,0,0,.62.76,33.67,33.67,0,0,1,3,2.94,15.79,15.79,0,0,0,1.48,1.36c1.29,1,2.21.83,3.06-.48s1.71-2.87,2.57-4.3a3.46,3.46,0,0,0,.47-1.53A1.34,1.34,0,0,0,164.07,151.19Zm-.37,2.43c-.82,1.38-1.64,2.77-2.48,4.14a.7.7,0,0,1-1.18.17c-1.39-1.34-2.74-2.72-4.31-4.28,2.89-.49,5.5-.94,8.1-1.19A1.35,1.35,0,0,1,163.7,153.62Z" fill="#070505"/><path d="M177.23,151.45c.54-1.53,1.05-3,1.55-4.43,2.9.14,4.42-1,5.15-3.74a11.65,11.65,0,0,0-.21-7.92,1.5,1.5,0,0,1,0-1c1.31-5.58,0-10.81-2.21-15.9a21.21,21.21,0,0,0-2.2-4.09c-5.51-7.42-12.73-11.64-22.11-11.85-.78,0-.95-.17-.82-1,.41-2.53.8-5.06,1.31-7.57,2.9-14.41,6.41-28.66,10.71-42.72,1.66-5.42,3.76-10.67,5.81-16,1.3-3.32,2.58-6.66,3.87-10,.2-.51.41-1,.63-1.49a.68.68,0,0,1,.62-.44l1.82,0q21.34-.08,42.7-.15l63.93-.3c.61,0,1.21,0,1.82,0a.71.71,0,0,1,.75.77c0,.61,0,1.21,0,1.82q-.31,15.78-.66,31.55c-.14,6.41,0,12.82.13,19.22.06,4.45.08,8.91.22,13.35.21,6.54.46,13.08.81,19.61a47.17,47.17,0,0,0,1.09,8.61,7.25,7.25,0,0,0,.26,1,.63.63,0,0,0,.8.43.67.67,0,0,0,.48-.79c-.11-.94-.29-1.86-.4-2.8-.23-1.87-.51-3.74-.63-5.62-.23-3.71-.39-7.41-.52-11.12-.49-12.94-.8-25.88-.7-38.83.06-8,.28-15.91.42-23.87q.11-6,.22-11.93,0-.41,0-.81a.53.53,0,0,1,.5-.53c.6,0,1.21,0,1.81-.06,9.85,0,19.7-.06,29.54-.11q29.64-.13,59.29-.27c2.83,0,2.28-.53,3.76,2.35A58.26,58.26,0,0,1,391,36.26a157.21,157.21,0,0,1,3.8,18.6q1.13,7.71,1.86,15.46c.41,4.36.63,8.74,1,13.11.37,4.84.39,9.7.47,14.55,0,1.28.16,2.56.25,3.84a1.47,1.47,0,0,0,.15.58.54.54,0,0,0,.66.3c.17-.06.39-.22.42-.37a6,6,0,0,0,.1-1.2c0-6.54-.13-13.09-.59-19.61q-.62-8.77-1.55-17.52a178.53,178.53,0,0,0-4.76-27,58.78,58.78,0,0,0-5.13-13.58c-.27-.5-.11-.79.4-.82.2,0,.41,0,.61,0h1c9.37,0,18.75-.06,28.12-.11,6.21,0,12.41-.11,18.62-.16a9.77,9.77,0,0,0,1.21,0,1.82,1.82,0,0,1,2,1.08c.69,1.23,1.47,2.41,2.14,3.66q17.54,32.81,35,65.64l25.41,47.64c.29.53.58,1.06.85,1.6.45.9.43,1-.36,1.72a43.26,43.26,0,0,1-8.82,6,67.55,67.55,0,0,1-16.88,6.06,96.2,96.2,0,0,1-26.54,2,100.64,100.64,0,0,1-39.67-10.15,71.21,71.21,0,0,1-9.88-5.93c-1.63-1.16-1.39-1-2.7.17a79.1,79.1,0,0,1-39.45,18.81,77,77,0,0,1-16.11,1.13c-19.47-.81-36.56-7.45-50.86-20.85-1.73-1.62-1.5-1.91-3.57-.22a86.69,86.69,0,0,1-27.78,15,107.25,107.25,0,0,1-20.28,4.56,117.82,117.82,0,0,1-23.22.62,128,128,0,0,1-38.29-8.67c-.31-.13-.62-.25-.93-.4A2.94,2.94,0,0,1,177.23,151.45Z" fill="#f38704"/><path d="M137,149.11c-.74.37-1.27.65-1.82.9a144.84,144.84,0,0,1-31.81,10.41,139.24,139.24,0,0,1-16.41,2.27,123.08,123.08,0,0,1-15.36.25,102.91,102.91,0,0,1-40-9.64,82.43,82.43,0,0,1-16.08-10.06l-.47-.38c-1.25-1.06-1.26-1.06-.66-2.51l24-57.87L62,25.55l.3-.75a1.42,1.42,0,0,1,1.41-.95H65q33.18-.11,66.36-.22,21.74-.09,43.49-.23c.61,0,1.21,0,1.82.05A.4.4,0,0,1,177,24c-.16.52-.38,1-.58,1.51-3.13,7.89-6.41,15.72-9,23.8-2.69,8.27-4.86,16.68-6.94,25.12-1.72,7-3.34,14-4.61,21.12-.36,2.06-.74,4.11-1.06,6.18A1.3,1.3,0,0,1,153.7,103c-8.49,2.21-13.94,7.81-17.26,15.7a27,27,0,0,0-2.29,10.6,24.36,24.36,0,0,0,1,6.57c.12.45.11.78-.3,1.05a3.64,3.64,0,0,0-1.54,3.32A11.05,11.05,0,0,0,137,149.11Z" fill="#f38704"/><path d="M131.86,279.66c.88.49,1.11,1.24,1.56,1.79s.92,1.33,2,1.13c.44-.08.6.42.75.81a33,33,0,0,0,2.37,4.9,32.59,32.59,0,0,0,12.19,12.36c.11.06.17.2.24.3l-1.17,3a4.65,4.65,0,0,0-.28,2,1.43,1.43,0,0,0,1.82,1.34c.46-.1.82-.49,1.34-.4.24.59,0,1.2,0,1.79a1.84,1.84,0,0,0,2.23,1.75,10.9,10.9,0,0,0,1.77-.63,12.45,12.45,0,0,0,0,1.51,1.6,1.6,0,0,0,1.85,1.45,8.06,8.06,0,0,0,1.18-.27c.38.38.14.9.3,1.33A1.66,1.66,0,0,0,161.7,315a4.37,4.37,0,0,0,1.92-.6,15.29,15.29,0,0,0,2.3-1.64,40.94,40.94,0,0,0,7.73-9c1.57-2.51,3.19-5,4.8-7.48a31,31,0,0,1,5.88-6.89c.81-.7,1.54-1.5,2.32-2.25.39-.38.6-.37,1,.05s.7.82,1.1,1.17a1.45,1.45,0,0,0,2.17,0,5.93,5.93,0,0,0,1.43-1.94c.34-.65.64-1.32,1-2,.55.1.37.52.37.79.08,7.28.44,14.55.78,21.82.21,4.57.65,9.14,1,13.71.07,1,.11,2,.18,3,.52,8.35.39,16.71.41,25.06q0,8.51-.51,17c-.31,5-.74,10.08-1.36,15.09-.41,3.28-.81,6.56-1.4,9.8-.55,3-.13,2.55-2.95,2.55a77.57,77.57,0,0,0-8.07.37,152.39,152.39,0,0,1-15.54.88q-9.9.09-19.81.16A34.9,34.9,0,0,1,137,393.2a2,2,0,0,1-1.49-1.47,28.13,28.13,0,0,1-1.35-5.48c-.34-2.4-.61-4.81-.86-7.23q-.6-5.92-1.14-11.87c-.17-1.81-.32-3.62-.42-5.44q-.3-6-.55-11.91c-.3-7.41-.47-14.83-.89-22.23-.45-7.8-.71-15.61-1-23.43a79.08,79.08,0,0,1,.42-11.1A121.84,121.84,0,0,1,131.86,279.66Z" fill="#f38704"/><path d="M176.16,277c-1.49,2.67-3.12,5-5.7,6.38a18.77,18.77,0,0,1-3.54,1.44,2.28,2.28,0,0,1-2.68-.75,17.74,17.74,0,0,0-6.42-4.46c-1.48-.63-3-1.2-4.5-1.78-2.07-.81-4.15-1.59-6.21-2.41-.79-.31-.84-.42-.42-1.11a2.06,2.06,0,0,0,0-2.4,48.11,48.11,0,0,1-2.46-5.3c-.58-1.37-1.08-2.77-1.57-4.16-.25-.7,0-1,.73-1.06,1.14-.13,2.28-.28,3.42-.37,2.28-.19,4.57-.32,6.85-.52,3.36-.29,6.71-.64,10.06-.94,2.55-.23,5.11-.45,7.66-.61,3.5-.21,7-.29,10.5-.57,2.48-.2,2.45-.18,1.39,2.09a51.82,51.82,0,0,1-7.53,11.92,19.12,19.12,0,0,0-1.57,2.1,1.1,1.1,0,0,0,.43,1.71C175,276.49,175.53,276.7,176.16,277Z" fill="#f38704"/><path d="M169.37,466.28c.13-.47-.36-1.31.33-1.51.46-.13.74.67,1,1.12a58.21,58.21,0,0,1,4.68,8.47,9.58,9.58,0,0,0,.42.92c.41.76,1.1.86,1.58.15,2.31-3.41,5.72-5.23,9.4-6.68.37-.15.76-.26,1.14-.39a2.13,2.13,0,0,1,2.54.6c1.27,1.39,2.68,2.65,4,4a24.33,24.33,0,0,1,6.47,11.7,7,7,0,0,1-2,6.85,8.87,8.87,0,0,1-2.83,1.92,6.43,6.43,0,0,1-4.55.08A11.65,11.65,0,0,1,189,492.4a64.3,64.3,0,0,1-8.78-5.74,36.4,36.4,0,0,1-8-9.29A21.57,21.57,0,0,1,169.37,466.28Z" fill="#f38704"/><path d="M165.06,464.79c.12.1.27.16.3.25a14.72,14.72,0,0,1,.52,6.16,21.59,21.59,0,0,1-4.46,9.59,36.12,36.12,0,0,1-12.72,10.06,21.17,21.17,0,0,1-6.36,1.92,11.54,11.54,0,0,1-6.5-1c-2.06-.92-2.77-2.84-2.87-5A8.55,8.55,0,0,1,134.4,482a12.7,12.7,0,0,1,2.29-2.82,75,75,0,0,0,8.14-8.95c.27-.35.56-.61,1-.46a17.36,17.36,0,0,0,3.19.5,18.7,18.7,0,0,1,7,2.42c.58.34,1.17.66,1.78,1a1.77,1.77,0,0,0,2.21-.4,13.74,13.74,0,0,0,1.23-1.59,52.46,52.46,0,0,0,3.48-6.37C164.84,465.13,165,465,165.06,464.79Z" fill="#f38704"/><path d="M154.32,229.37l-.72,0c-.71,0-.83,0-.94-.74-.22-1.4-.41-2.8-.59-4.2-.35-2.74-.7-5.48-1-8.22-.1-.83,0-1,.8-1.08q2.9-.36,5.81-.69l14.66-1.6a4.39,4.39,0,0,1,.81,0,.54.54,0,0,1,.54.49c.15,1,.29,2,.41,3,.4,3.21.78,6.42,1.17,9.63.1.84,0,1-.76,1.09-1.2.17-2.41.27-3.61.41L157,229C156,229.13,155,229.28,154.32,229.37Z" fill="#f38704"/><path d="M148.7,133.33c1,.2,2.09.4,3.13.62a.91.91,0,0,1,.47.33.81.81,0,0,1,.16.55.57.57,0,0,1-.54.51,12.09,12.09,0,0,1-1.56-.26l-1-.2c-1.78-.34-2.15-.2-3.12,1.35-.22.36-.38.73-.86.61s-.6-.77-.27-1.37A3.56,3.56,0,0,1,148.7,133.33Z" fill="#130f0f"/><path d="M166.9,131.16a4.09,4.09,0,0,1,3.37,1.68c.2.31.28.62-.05.88a.71.71,0,0,1-.92,0c-.16-.12-.26-.31-.42-.42a2.53,2.53,0,0,0-3.75.18c-.19.18-.39.37-.57.57a.62.62,0,0,1-.88.15.61.61,0,0,1-.1-.89,4.44,4.44,0,0,1,1.89-1.73A11.39,11.39,0,0,1,166.9,131.16Z" fill="#0f0c0c"/><path d="M159.66,148.1a4,4,0,0,1-2.63-.95.63.63,0,0,1-.18-.52.66.66,0,0,1,.55-.52,1.26,1.26,0,0,1,.93.3,2,2,0,0,0,2.59-.22,5.79,5.79,0,0,1,.82-.58.79.79,0,0,1,1.06.24.68.68,0,0,1-.3,1C161.57,147.33,160.79,148.2,159.66,148.1Z" fill="#170f0f"/><path d="M181.22,140a5,5,0,0,1-.8,2.68,1.09,1.09,0,0,1-.8.54.83.83,0,0,1-.37-.11c-.13-.06-.16-.19-.06-.33s.24-.32.36-.48a3,3,0,0,0,.47-3.2.43.43,0,0,1,.28-.63c.33-.11.53.16.62.38A9,9,0,0,1,181.22,140Z" fill="#2a2727"/><path d="M193,491.41a10.59,10.59,0,0,1-7.76-3.94,2.37,2.37,0,0,1-.22-.33c-.2-.35-.46-.7-.11-1.09s.76-.23,1.2.24.61.72.95,1A9.09,9.09,0,0,0,193.6,490a5.67,5.67,0,0,0,4-1.6,9.37,9.37,0,0,1,.71-.7.57.57,0,0,1,.74,0,.58.58,0,0,1,.22.71,3.06,3.06,0,0,1-.53.84C197.29,490.82,195.41,491.38,193,491.41Z" fill="#090500"/><path d="M141.59,490.81a7,7,0,0,1-4-1,8.37,8.37,0,0,1-1.27-1,.55.55,0,0,1-.1-.73.52.52,0,0,1,.7-.21c.35.18.69.41,1,.6a7.34,7.34,0,0,0,7.48-.1,16,16,0,0,0,2.77-2,2.46,2.46,0,0,1,.85-.48c.14-.05.37.08.52.19a.42.42,0,0,1,.13.54,4.76,4.76,0,0,1-.58.81,14.11,14.11,0,0,1-4.52,2.94A7.15,7.15,0,0,1,141.59,490.81Z" fill="#0b0600"/><path d="M407.58,463.45a15.1,15.1,0,0,0-.24-2,3.07,3.07,0,0,0-3-2.81,17,17,0,0,0-3-.09c-8.41.48-16.85.33-25.27.6-1.41.05-2.83,0-4.25,0-8-.15-16-.36-24.06-.46-8.9-.12-17.8-.17-26.7-.2-8.42,0-16.85-.12-25.28,0-7.28.12-14.56.34-21.84.35-10,0-20.08-.14-30.12-.72l-14.94-.84c-1.27-.06-2.56-.08-3.83,0-1.06,0-1.39.32-1.43,1.28a52.16,52.16,0,0,0,.31,11.1,11.4,11.4,0,0,0,7.93,9.35c.57.21,1.16.36,1.74.52a38.59,38.59,0,0,0,8,1.14c8.08.38,16.17.46,24.26.45,1.08,0,2.16-.05,3.24-.09,9.36-.35,18.72-.76,28.09-1,7.82-.22,15.64-.27,23.46-.39,10.92-.13,21.84-.41,32.75-.93l10.5-.54c6-.32,12-.71,18-1,4.92-.2,9.84-.22,14.76-.35a35.83,35.83,0,0,0,5.84-.46c3.66-.71,5.23-2.48,5.36-6.2,0-.2,0-.4,0-.6C407.75,467.49,407.68,465.47,407.58,463.45Zm-1.42,7.81a3.69,3.69,0,0,1-2.86,3.28,12,12,0,0,1-2.39.44c-1.67.13-3.36.24-5,.27-6.54.14-13.08.23-19.61.58L349.2,477.3l-1.21.06-21.64.56-5.86.16v0c-7.35.09-14.7.12-22.05.3-8.42.2-16.85.4-25.26.84-8.57.44-17.12.28-25.68.08a74.39,74.39,0,0,1-9.89-.6,30,30,0,0,1-5.3-1.22,9.65,9.65,0,0,1-6.77-7.83,45.36,45.36,0,0,1-.46-10.08c0-.64.2-.8.88-.81s1.35,0,2,0c4.58.26,9.16.44,13.73.79,5.31.4,10.64.48,16,.61,7.21.17,14.42.27,21.64.16,5.19-.08,10.38-.2,15.57-.3,7.48-.16,15-.08,22.45,0,11.53.07,23.06.09,34.59.21,6.88.07,13.75.29,20.63.42,1.95,0,3.91,0,5.86,0,5.67-.08,11.33-.16,17-.27,2.49,0,5-.18,7.48-.26,2.18-.07,3,.31,3.11,2.9.11,2.09.22,4.18.29,6.27A15.18,15.18,0,0,1,406.16,471.26Z" fill="#010000"/><path d="M347,398.59c-.2,3.92.51,8.32,1,12.74.18,1.67.41,3.34.53,5,.49,6.66,1.28,13.29,1.42,20,0,1,.22,2,.25,3,.06,1.74-.41,2.41-2.07,3a11.11,11.11,0,0,1-3.37.64c-1.21.06-2.42.11-3.63.09-4.39-.06-8.76.28-13.13.61s-8.61.43-12.93.59c-4.71.18-9.43.27-14.14.46-7.14.31-14.28.72-21.42,1-4.58.17-9.16.17-13.75.26-1.68,0-3.36.12-5.05.19a13.33,13.33,0,0,1-2.81-.28,2.64,2.64,0,0,1-2.08-1.71,9.72,9.72,0,0,1-.67-2.54c-.37-2.94-.73-5.88-1.17-8.81-.89-6-1.3-12.05-1.73-18.1-.39-5.45-.94-10.88-1.42-16.32-.28-3.15-.57-6.31-.88-9.46s-.67-6.43-1-9.65q-.31-3.21-.58-6.44a83.35,83.35,0,0,0-1.22-9.82c-.43-2.1-.57-4.27-.82-6.41a8.15,8.15,0,0,1,0-1.21c0-.4.25-.66.64-.58,4,.8,7.94.28,11.9.28,2.29,0,4.57-.3,6.86-.45,1.55-.1,3.09-.2,4.64-.23,4.86-.12,9.7-.35,14.54-.72,2.15-.16,4.31-.17,6.47-.2,7-.09,14-.23,21-.22,8.22,0,16.45.15,24.67.24.74,0,1.49,0,2.22.09a3.67,3.67,0,0,1,3.1,2,23.9,23.9,0,0,1,3,8.52,34.07,34.07,0,0,1,.33,5.24c-.1,7.09.48,14.15,1,21.2C346.85,393.06,346.93,395.54,347,398.59Z" fill="#f38704"/><path d="M359.29,220.13c7.54-.07,16.31-.17,25.07-.22,3.51,0,7,.07,10.52.11l6.67,0c.61,0,1.21,0,1.82.09a.68.68,0,0,1,.62.68,5.35,5.35,0,0,1,0,.8c-.1,4.06.38,8.08.63,12.12.1,1.68.14,3.36.13,5.05,0,6.27,0,12.54-.11,18.81-.1,5.39-.39,10.78-.91,16.15-.38,3.89-.63,7.79-1,11.68-.31,3.63-.69,7.25-1,10.88-.17,1.94-.24,3.9-.36,5.85s-.24,2-2.17,2.1c-6.6.28-13.2.53-19.8.85q-6.76.33-13.52.83c-4,.3-8.09.32-12.13.42-9.37.24-18.74.22-28.11-.15-5-.19-10-.54-14.94-.84-.8-.05-1.6-.21-2.4-.34a2.51,2.51,0,0,1-2.26-2.46c-.14-1.41-.32-2.82-.33-4.23-.06-5.12-.07-10.25-.08-15.37s-.34-10.38-.69-15.56q-.48-7.16-.95-14.32c-.19-2.69-.4-5.38-.6-8.07,0-.53-.1-1.07-.11-1.61l-.48-20.63c0-.2,0-.4,0-.6,0-.66.17-.84.83-.91,1.61-.17,3.22-.33,4.83-.43,8.08-.49,16.18-.47,24.26-.48C341.21,220.36,349.64,219.92,359.29,220.13Z" fill="#f38704"/><path d="M250.68,229.71c5.94.11,11.87-.18,17.79-.61,1.48-.11,3-.14,4.44-.22.48,0,.76.17.8.67.22,3.09,1,6.13.88,9.25a28,28,0,0,0,.38,3.62,7,7,0,0,1,0,.8c0,.67-.16.87-.79.89-2,.08-3.91.11-5.87.21-3.43.18-6.86.4-10.29.6-3.63.22-7.25.66-10.9.71-3.23.05-6.47.2-9.7.29-2.67.08-2.45,0-2.89-2.5a37.16,37.16,0,0,1-.41-4.23,64.23,64.23,0,0,0-.78-6.62,16.85,16.85,0,0,1-.17-2c0-1.07.07-1.21,1.09-1.19,2.16,0,4.31.11,6.47.17a9.9,9.9,0,0,0,1.21.06C244.89,229.37,247.79,229.66,250.68,229.71Z" fill="#f38704"/><path d="M400.35,358.93a8.18,8.18,0,0,0-.45-1.75,1.84,1.84,0,0,0-1.68-1.26,8.15,8.15,0,0,0-1.21,0c-3.56.28-7.13.3-10.7.25-2.56-.11-5.12-.24-7.67-.33-1.35,0-2.7-.08-4,0a2.52,2.52,0,0,0-2.72,2.2,9.77,9.77,0,0,0-.23,2.4c0,4.72.12,9.43-.28,14.14a21.41,21.41,0,0,0,.25,5.24,5.92,5.92,0,0,0,5.67,5.33,33.23,33.23,0,0,0,6.46-.15c2.2-.28,4.4-.6,6.63-.69a28.91,28.91,0,0,0,3.81-.46,15.68,15.68,0,0,0,3.67-1,5.08,5.08,0,0,0,3.1-3.73,10.84,10.84,0,0,0,.24-1.79A107.2,107.2,0,0,0,400.35,358.93Zm-.71,18.29c0,.33,0,.67-.08,1a3.71,3.71,0,0,1-2.43,3.21,13.09,13.09,0,0,1-2.51.73,31.88,31.88,0,0,1-4,.55c-2.22.13-4.42.4-6.63.68a32.84,32.84,0,0,1-6.65.17,4.26,4.26,0,0,1-4.14-3.71,23.5,23.5,0,0,1-.22-6.64,106.59,106.59,0,0,0,.12-12.51c0-.81,0-1.62.06-2.42a.82.82,0,0,1,.74-.82,6.61,6.61,0,0,1,1.4-.16c1.48,0,3,.05,4.44.11,1.81.08,3.62.19,5.44.29v-.05c3,0,6.06,0,9.09,0,1.07,0,2.14-.18,3.22-.24a1,1,0,0,1,1.14.9c.14.65.2,1.33.3,2A103,103,0,0,1,399.64,377.22Z" fill="#020202"/><path d="M385.62,396.65a54.68,54.68,0,0,0,7.68,0c2.35-.23,4.71-.28,7.06-.4h.41c1,0,1.37.32,1.56,1.25s.3,1.72.4,2.59c.37,3.15.69,6.3,1.1,9.44a26.62,26.62,0,0,1-.3,6.85,3.88,3.88,0,0,1-2.73,3.22,29,29,0,0,1-5.52,1.17c-1.47.23-2.95.37-4.4.63a18.25,18.25,0,0,1-6.83-.31,4,4,0,0,1-3.16-2.8,23.3,23.3,0,0,1-1.07-5.13c-.48-4.16-1.2-8.27-1.87-12.39-.12-.8-.19-1.61-.38-2.4-.35-1.48,0-1.62,1.39-1.68C381.18,396.58,383.4,396.65,385.62,396.65Z" fill="#f38704"/><path d="M151.82,140.76a3.33,3.33,0,0,0-1.24-2,1.22,1.22,0,0,0-1.91.2,2.33,2.33,0,0,0-.47,1.59,2.44,2.44,0,0,0,.56,1.81,1.67,1.67,0,0,0,2.94-.41A1.85,1.85,0,0,0,151.82,140.76Zm-2,.68a.47.47,0,0,1-.36-.07,1.18,1.18,0,0,1-.34-1.28c0-.08.19-.14.29-.21a.83.83,0,0,1,.81.73A.71.71,0,0,1,149.81,141.44Zm1.08-.09a1.91,1.91,0,0,1-.06-.33s.1-.08.15-.12l.17.33Z" fill="#1a1717"/><path d="M169.77,139.43a2.71,2.71,0,0,0-1.61-2.31,1.11,1.11,0,0,0-1.69.39h0c-.95,1-.7,2.09-.22,3.15a2.07,2.07,0,0,0,2.34,1.14,1.9,1.9,0,0,0,1.09-.86A1.32,1.32,0,0,0,169.77,139.43Zm-2.29.76c-.38,0-.59-.27-.76-.57a1.51,1.51,0,0,1,.15-1.7c1.06,0,1.07.88,1.27,1.59C168,139.83,167.85,140.16,167.48,140.19Zm1.91.12c0,.3-.19.49-.52.43s-.39-.15-.39-.37a5.13,5.13,0,0,1,.12-.77.78.78,0,0,1,.81.31C169.4,140,169.4,140.18,169.39,140.31Z" fill="#120909"/><path d="M269.47,397.6a29.38,29.38,0,1,1,30.79,28.26A29.39,29.39,0,0,1,269.47,397.6Z"/><path d="M327.58,243.48c1.35,0,2.7,0,4.05,0a1,1,0,0,1,1.19,1.1c.31,3.83,1.12,7.59,1.62,11.4.26,1.94.63,3.86,1,5.78.22,1.2.26,1.22,1.4,1.23,2.43,0,4.86.06,7.28,0,10.86-.33,21.72-.17,32.57,0,1.82,0,3.64.21,5.46.32a3.09,3.09,0,0,1,.6.08c.93.28,1.26.79.79,1.63-2.78,5-4.48,10.38-6.2,15.78a12.9,12.9,0,0,1-1.2,3,1.68,1.68,0,0,1-1.67.91c-4.72-.46-9.44,0-14.15.09-6,.1-12,.43-18,.66a12,12,0,0,1-3.22-.1,2.32,2.32,0,0,1-1.67-1.33,9.64,9.64,0,0,1-.94-3.71,111.52,111.52,0,0,0-1.77-13.62c-.82-4.78-1.74-9.55-2.37-14.36-.28-2.13-.63-4.26-1-6.39-.13-.78-.28-.91-1.06-.9-2.36,0-4.73.06-7.08.2s-5,.39-7.46.58a8.56,8.56,0,0,1-1.6,0,.67.67,0,0,1-.58-.71.63.63,0,0,1,.48-.58,2.69,2.69,0,0,1,.79-.15C319.11,244.12,323.32,243.56,327.58,243.48Z" fill="#010000"/><path d="M346.7,288.38a4.12,4.12,0,0,1,4.16,2.87,14.43,14.43,0,0,1,.53,1.73,4.06,4.06,0,0,1-3.84,5.35,6.18,6.18,0,0,1-6.38-4.47,3.89,3.89,0,0,1,1.56-4.24A8.69,8.69,0,0,1,346.7,288.38Z" fill="#010000"/><path d="M369.3,288.08a5.45,5.45,0,0,1,4.57,2.76,4.09,4.09,0,0,1-.33,4.74,5.43,5.43,0,0,1-9-.74,4.38,4.38,0,0,1,.85-5.21A5.63,5.63,0,0,1,369.3,288.08Z" fill="#010000"/><path d="M286.41,390.34c0-1.14,0-2.28,0-3.43a1.33,1.33,0,0,1,1.07-1.46,58.6,58.6,0,0,1,7.6-2,42,42,0,0,1,6.61-.8c.65,0,.83.17.81.83a14.67,14.67,0,0,1-.1,1.62,69.3,69.3,0,0,0-.26,10.29c0,.27,0,.54,0,.8,0,.63-.18.84-.8.95-1.07.17-2.14.3-3.2.46a51.27,51.27,0,0,0-8.8,2.2c-.32.1-.63.24-.95.33-.49.13-.77-.05-.86-.56a56.18,56.18,0,0,1-.92-7.41c0-.61-.07-1.21-.11-1.82Z" fill="#f38704"/><path d="M308.57,398.22a55.28,55.28,0,0,1,6.85.7c.33.07.66.11,1,.19.63.13,1.16.37,1.18,1.14a4.2,4.2,0,0,0,.14.59A27.37,27.37,0,0,0,321.54,411a1.22,1.22,0,0,1,0,1.64c-.17.2-.3.45-.47.65-.48.56-.79,1.35-1.48,1.62s-1.38-.37-2.08-.56a34.3,34.3,0,0,0-6.74-1.22c-.94-.06-1.88-.12-2.82-.11a1.21,1.21,0,0,1-1.32-1,59.79,59.79,0,0,1-2.12-9c-.18-1.2-.33-2.4-.44-3.61-.07-.71.1-.91.71-.95C306.17,398.34,307.58,398.28,308.57,398.22Z" fill="#f38704"/><path d="M273.88,408.81a25.79,25.79,0,0,1-2.58-8.31c-.17-1.27-.23-2.55-.34-3.82a1.87,1.87,0,0,1,.63-1.62c.48-.47,1-1,1.45-1.4a42.58,42.58,0,0,1,10-6.44,9.58,9.58,0,0,1,.93-.39c.6-.23.91-.05,1,.54,0,.14,0,.27,0,.41a62.36,62.36,0,0,0,1.16,12.42.89.89,0,0,1-.55,1.13,53.39,53.39,0,0,0-11.09,7.29A2.29,2.29,0,0,1,273.88,408.81Z" fill="#f38704"/><path d="M298.78,368.65a31.28,31.28,0,0,1,6.07.72c.73.17.83.3.61.94a61.71,61.71,0,0,0-2.39,9.38c-.23,1.3-.27,1.32-1.53,1.38A54.69,54.69,0,0,0,291,382.76c-1.24.32-2.45.73-3.68,1.09-.42.12-.63-.05-.65-.48a21.69,21.69,0,0,1,.43-4,40.55,40.55,0,0,1,2-7.81,2.42,2.42,0,0,1,1.77-1.71A34.8,34.8,0,0,1,298.78,368.65Z" fill="#f38704"/><path d="M305.1,412.88a3,3,0,0,1-1.4.28,32.77,32.77,0,0,0-9.1,2.58l-.92.4a.53.53,0,0,1-.7-.2,7,7,0,0,1-.39-.71,58.23,58.23,0,0,1-4.23-11.75c-.37-1.46-.3-1.62,1.08-2.06,1.86-.6,3.72-1.2,5.62-1.63,2.09-.47,4.23-.77,6.35-1.11.78-.13,1,0,1,.81a63.56,63.56,0,0,0,1.2,7.37c.36,1.57.81,3.12,1.19,4.69C305,412,305.22,412.41,305.1,412.88Z" fill="#f38704"/><path d="M306,382.45a45.16,45.16,0,0,1,11.29,1.69c.32.1.65.18,1,.3.62.22.74.43.54,1a33,33,0,0,0-1,3.69,33.4,33.4,0,0,0-.5,6.62c0,.4,0,.8,0,1.21s-.2.67-.61.57a48,48,0,0,0-11.84-.73c-.95,0-1.08-.07-1.12-1a89.11,89.11,0,0,1,.09-9.67c.06-.88.18-1.74.28-2.61s.21-1.09,1.27-1.13Z" fill="#f38704"/><path d="M286.37,402.8c.44.21.38.67.47,1a62.68,62.68,0,0,0,4.46,12.31c.43.89.39.95-.39,1.46-1.51,1-3,2-4.54,3a1.06,1.06,0,0,1-1.28.12,27.8,27.8,0,0,1-9.93-9.58c-.42-.69-.41-.92.16-1.39a52.84,52.84,0,0,1,10.66-6.9A1.23,1.23,0,0,1,286.37,402.8Z" fill="#f38704"/><path d="M287.14,372.24a49.81,49.81,0,0,0-1.87,8.87c-.1.94-.19,1.87-.24,2.81a1.12,1.12,0,0,1-.76,1.07l-.93.39a39.9,39.9,0,0,0-11,7c-.24.21-.43.53-.83.52-.21-2.15,1.07-6.41,3-9.82a27,27,0,0,1,11.73-11.3c.18-.08.33-.21.52-.29a.51.51,0,0,1,.34-.08A.67.67,0,0,1,287.14,372.24Z" fill="#f38704"/><path d="M321,379.87a2.51,2.51,0,0,1-.1.51c-.1.25-.21.49-.33.74-1.25,2.56-.53,2.19-3.16,1.45A41.23,41.23,0,0,0,307.09,381c-.8,0-1.83.29-2.34-.28s0-1.68.19-2.51a45.32,45.32,0,0,1,1.94-7.2c.32-.86.53-1,1.33-.7a29.65,29.65,0,0,1,4.57,2.13,27.61,27.61,0,0,1,7.76,6.68C320.74,379.38,320.9,379.67,321,379.87Z" fill="#f28704"/><path d="M294.06,417.93a3.18,3.18,0,0,1,1.45-.9,28.78,28.78,0,0,1,8.92-2.35c.33,0,.66,0,1,0a.66.66,0,0,1,.62.43,46.55,46.55,0,0,0,3.31,6.67.67.67,0,0,1-.54.71,29,29,0,0,1-8.82,1.89,2.22,2.22,0,0,1-2.1-.87A36.48,36.48,0,0,1,294.06,417.93Z" fill="#f28704"/><path d="M326.15,401.35a44,44,0,0,0-6.59-3,1,1,0,0,1-.68-.91,1.2,1.2,0,0,1,0-.2,27.45,27.45,0,0,1,1.37-11.12c.22-.62.47-.74,1.06-.47a9.89,9.89,0,0,1,3.9,2.42c.82,1,.84,2.39,1.05,3.64A23.52,23.52,0,0,1,326.15,401.35Z" fill="#f28704"/><path d="M318.08,416.52a12.79,12.79,0,0,1-3.17,2.69c-4.55,2.92-3.45,3.06-6-1.52a22.05,22.05,0,0,1-1.08-2.37c-.22-.51,0-.8.5-.78a32.88,32.88,0,0,1,6.78.8l2.32.62A1,1,0,0,1,318.08,416.52Z" fill="#f18604"/><path d="M322.94,410.27a25.7,25.7,0,0,1-3.66-9.57c-.08-.44.16-.69.55-.56a26.14,26.14,0,0,1,5.45,2.58.82.82,0,0,1,.43,1A24,24,0,0,1,322.94,410.27Z" fill="#f08504"/><path d="M295.89,424a16.49,16.49,0,0,1-8.42-2.25,23.41,23.41,0,0,1,4.55-2.94.54.54,0,0,1,.72.14q1.61,2.42,3.19,4.85S295.91,423.88,295.89,424Z" fill="#ef8504"/><path d="M323.89,385.13h-.16l-.16-.05a2,2,0,0,1-.52-.29,6.42,6.42,0,0,1-1.91-1.1,5.44,5.44,0,0,1,.92-2.13,8.12,8.12,0,0,1,1.95,3.16A.28.28,0,0,1,323.89,385.13Z" fill="#de7d04"/><path d="M287.14,372.24c0-.28-.05-.56-.08-.84.15-.21.32-.22.39,0A.7.7,0,0,1,287.14,372.24Z" fill="#986d03"/><path d="M323.89,385.13l.12-.41c.19.09.3.24.23.43S324,385.31,323.89,385.13Z" fill="#853201"/><path d="M323.05,384.79a.5.5,0,0,1,.52.29A.53.53,0,0,1,323.05,384.79Z" fill="#853201"/><path d="M286.72,371.48a.47.47,0,0,1-.52.29A.48.48,0,0,1,286.72,371.48Z" fill="#986d03"/><path d="M347.93,264.68a5.18,5.18,0,0,1,2.3-.33c5.11,0,10.23,0,15.34-.05a7,7,0,0,1,.8.05c.51.06.69.3.59.81-.38,1.91-.76,3.83-1.18,5.73-.2.95-.3,1-1.17,1.05-4.44.1-8.87.17-13.31.24-.48,0-.94,0-1.13-.6C349.44,269.29,348.69,267,347.93,264.68Z" fill="#f28704"/><path d="M351.91,283.37a3.06,3.06,0,0,1-.56.13c-3.35.16-6.71.33-10.07.46-2.27.08-2.66-.13-3-2.3s-.46-4.54-.66-6.81c0-.41.25-.57.63-.62a82.59,82.59,0,0,1,10.07-.45,1,1,0,0,1,1.05.72c.8,2.57,1.64,5.12,2.45,7.68C351.93,282.55,352.17,282.93,351.91,283.37Z" fill="#f38704"/><path d="M351.05,274a90.36,90.36,0,0,1,14.05-.25,12.18,12.18,0,0,1-.39,3.17c-.18,1.8-.49,3.59-.75,5.39-.1.68-.22.83-.88.85-2.76.11-5.51.21-8.27.29-.81,0-1-.1-1.22-.79-.82-2.48-1.63-5-2.44-7.47A2,2,0,0,1,351.05,274Z" fill="#f28704"/><path d="M377.9,273.43a4.65,4.65,0,0,1-.09.85q-1.17,3.64-2.37,7.28c-.1.32-.24.63-.37.94a.92.92,0,0,1-.92.62c-2.56,0-5.11,0-7.67,0-.78,0-1-.19-.91-1,.1-1.14.25-2.27.43-3.4.22-1.46.5-2.92.75-4.37.08-.52.29-.88.88-.88,2.09,0,4.18,0,6.26-.06Z" fill="#f28604"/><path d="M381.56,265.08a3,3,0,0,1-.48,1.29c-.7,1.6-1.41,3.19-2.1,4.8-.17.4-.36.72-.84.72l-10.48,0c-.11,0-.22-.13-.44-.26.41-2.13.82-4.3,1.23-6.47a.67.67,0,0,1,.68-.62c4,.09,8.06-.1,12.07.39A1.14,1.14,0,0,1,381.56,265.08Z" fill="#f28704"/><path d="M348.41,272.08a4,4,0,0,1-.73.12c-2.89.06-5.77.12-8.66.46-2.07.24-1.68,0-2-1.61-.38-1.91-.66-3.84-1-5.77-.09-.54.11-.76.63-.78s.94,0,1.41,0l7.47,0c.41,0,.82,0,1,.52.67,2.25,1.52,4.45,2,6.76C348.5,271.88,348.45,272,348.41,272.08Z" fill="#f28704"/></g></svg>